<?xml version="1.0" encoding="UTF-8" standalone="no"?>
<!-- Generator: Adobe Illustrator 21.1.0, SVG Export Plug-In . SVG Version: 6.00 Build 0)  -->

<svg
   xmlns:dc="http://purl.org/dc/elements/1.1/"
   xmlns:cc="http://creativecommons.org/ns#"
   xmlns:rdf="http://www.w3.org/1999/02/22-rdf-syntax-ns#"
   xmlns:svg="http://www.w3.org/2000/svg"
   xmlns="http://www.w3.org/2000/svg"
   xmlns:sodipodi="http://sodipodi.sourceforge.net/DTD/sodipodi-0.dtd"
   xmlns:inkscape="http://www.inkscape.org/namespaces/inkscape"
   version="1.1"
   id="logo_x5F_devopsday_x5F_salvador"
   x="0px"
   y="0px"
   viewBox="0 0 993.7 938.6"
   style="enable-background:new 0 0 993.7 938.6;"
   xml:space="preserve"
   sodipodi:docname="logo_salvador.svg"
   inkscape:version="0.92.1 r15371"><metadata
     id="metadata12"><rdf:RDF><cc:Work
         rdf:about=""><dc:format>image/svg+xml</dc:format><dc:type
           rdf:resource="http://purl.org/dc/dcmitype/StillImage" /></cc:Work></rdf:RDF></metadata><defs
     id="defs10" /><sodipodi:namedview
     pagecolor="#ffffff"
     bordercolor="#666666"
     borderopacity="1"
     objecttolerance="10"
     gridtolerance="10"
     guidetolerance="10"
     inkscape:pageopacity="0"
     inkscape:pageshadow="2"
     inkscape:window-width="1920"
     inkscape:window-height="1017"
     id="namedview8"
     showgrid="false"
     inkscape:snap-global="true"
     inkscape:zoom="0.71117496"
     inkscape:cx="197.72347"
     inkscape:cy="401.63242"
     inkscape:window-x="892"
     inkscape:window-y="-8"
     inkscape:window-maximized="1"
     inkscape:current-layer="logo_x5F_devopsday_x5F_salvador" /><style
     type="text/css"
     id="style2">
	.st0{fill:#1B81A8;}
	.st1{fill:#165B85;}
	.st2{fill:#124C6F;}
</style><path
     style="fill:#ffffff"
     d="m 51.5008,182.99883 c 3.4,-0.8 4.9004,-2.59961 5.9004,-5.59961 15.4,-45.4 48.1004,-71.8 92.9004,-85 4,-1.3 8.0992,-2.19922 12.1992,-2.69922 0.1,-0.1 0.3004,-0.20117 0.4004,-0.20117 4.2,-1 8.4988,-1.99922 12.7988,-2.69922 3.5,-0.5 5.5,-2.10039 8,-4.40039 1.4,-1.6 3.2016,-2.8 5.1016,-3.5 0.9,-0.3 1.7996,-0.4 2.5996,-0.5 5.6,-3.9 11.1988,-7.90078 16.7988,-11.80078 1.6,-1.2 3.1016,-2.89844 5.1016,-2.89844 l 3.6992,-2.30078 c 4,-3.6 9.4004,-4.6 14.4004,-6.5 0.3,0.1 0.6988,-7.8e-4 0.7988,-0.30078 7,0 14.6,0.002 20.5,-3.89844 5.8,-3.8 12.2012,-6.90039 18.7012,-9.40039 l 2.5996,-0.5 c 14.9,-1.7 29.9992,-0.90078 44.6992,-4.80078 l 1.3008,-0.29883 1.3008,-0.90039 c 0.1,-0.1 0.1984,-0.2 4.1484,-2.7002 4.05,-2.4002 4.2508,-2.6002 4.5508,-2.7002 1.2,-0.7 2.2008,-1.4 3.3008,-2 l 1,-1.19922 c 3.8,-1.2 6.1,-5.40117 10.5,-5.20117 l 0.7988,-0.40039 c 1.7,-2.9 4.9996,-2.89844 7.5996,-3.39844 9.2,-1.9 18.4016,-3.4 27.6016,-5 l 2.5996,-0.40039 5.4004,-0.40039 2.6992,-0.0996 c 8.6,0.5 17.4,0.4 25,-3.5000005 7.6,-3.9 15.2,-4.00078 23,-2.80078 9.40002,1.5 18.69963,1.10117 28.09963,0.20117 13.1,-1.2 26.60078,-4.00039 38.30078,5.0996095 1,0.700001 2.09922,0.899611 3.19922,0.599611 15.5,-5.1000005 31.60117,-8.0992205 47.70117,-10.1992205 l 9.19922,-0.70117 2.69917,1e-5 18.10156,1.09961 c 4.6,1.5 9.39922,1.70117 14.19922,2.20117 l 3.90039,1 c 18.7,4.9999995 36.39961,13.5992205 55.59961,17.1992205 14.7,2.7 29.59922,5.20039 43.69922,10.40039 5.1,1.8 9.9,4.10039 14.5,6.90039 1.3,0.8 2.50078,1.49883 2.80078,2.79883 2,1.9 4.29961,3.70078 6.59961,5.30078 5.2,3.2 12.3,4.1 18,6 l 0.20117,0.0996 h 0.0996 c 21,5.2 36.6,18.59961 51.5,33.09961 7.1,6.9 14.39922,13.501559 22.19922,19.60156 2,1.5 4.60078,2.69961 4.30078,5.59961 -0.9,7.3 4.10039,10.79961 8.90039,14.59961 13.3,10.7 27.19961,20.70039 40.09961,31.90039 23.9,20.8 39.20039,45.99922 41.40039,78.19922 0.2,3 2,4.9 3.5,7 5.6,4 8.2,10.7 13.5,15 18.1,20.6 25.3,46.80039 35.5,71.40039 0.8,1.8 1.49883,3.7 2.29883,5.5 l 0.90039,0.90039 h 0.0996 c 0.7,-0.3 1.30039,0.5 0.90039,1 l 0.0996,0.0996 -0.69922,0.80078 0.79883,-0.80078 c 1.5,0.6 2.9,1.90039 2.5,2.90039 -3.2,8.7 5.40156,15.80039 3.10156,24.40039 -0.3,1 1.09844,2.79961 1.89844,4.09961 20.00004,34.4 18.40124,68.99922 0.20117,102.69922 -3.6,7.3 -11.90117,10.70117 -17.70117,16.20117 -8.3,7.8 -15.69922,16.8 -26.19922,22 -8.7,4.4 -17.60078,6.49922 -27.30078,4.69922 -5.10002,-0.9 -6.39922,0.0992 -5.19922,5.69922 6.1,27.4 2.30078,53.1 -13.69922,76.5 -1.9,2.7 -3.90039,5.60156 -7.40039,6.60156 -0.1,0.4 -0.20039,0.79961 -0.40039,1.09961 1.3,5.4 -1.40039,10 -3.40039,14.5 -4.3,9.7 -9.49922,18.69922 -17.19922,26.19922 -0.5,3.1 -2.40039,5.79961 -5.40039,6.09961 -5.2,0.6 -7.4,4.4 -10,8 -8.5,11.3 -18.19961,21.60156 -29.09961,30.60156 -1.5,1.3 -3.00117,2.89844 -5.20117,2.89844 -3.4,4.7 -8.29844,7.60078 -13.39844,9.80078 -19.7,8.7 -39.7,16.80078 -60.5,22.30078 -11.8,3.2 -23.30078,-0.002 -34.80078,-0.60156 -8.4,-0.4 -17.00039,-1.69922 -25.40039,0.80078 -2.5,0.7 -5.69961,1.09922 -4.09961,5.19922 5,11.9 11.2,23.10078 23,29.80078 l 5.19922,3.59961 c 3.6,1.5 7.30156,3.29961 11.10156,4.59961 4.3,1.5 4.9,4.3 3.5,8 -4,9.9 -9.90156,12.90117 -19.60156,9.70117 -0.1,0.1 -0.29844,0.1 -0.39844,0 -0.4,-0.2 -0.80078,-0.39961 -1.30078,-0.59961 l -0.40039,-0.10156 c -6,-3 -10.09922,-8.09844 -14.69922,-12.89844 -3.1,-2.2 -6.00117,-4.50117 -7.20117,-8.20117 -0.2,0.10001 -0.49922,0.1004 -0.69922,-0.0996 l -0.80078,-0.80078 c -0.7,-0.3 -1.29844,-0.69922 -1.89844,-1.19922 -0.4,-0.3 -0.80156,-0.69961 -1.10156,-1.09961 -3.4,1.2 -5.09961,-3.20039 -8.09961,-3.40039 -0.9,-0.7 -19.60039,-15.49922 -30.40039,-19.19922 -5.6,-1.8 -11.2,-3.30078 -16.5,-5.80078 -3.6,-1.7 -11.1,-6.3 -13,-7 -1.7,-1.5 -10.19961,-9.90078 -13.09961,-12.80078 -1.3,0.8 -2.99922,-0.59844 -4.19922,-1.39844 -1.79999,-1.4 -1.1996,-2.40156 -0.0996,-3.10156 -0.3,-0.3 -0.60078,-0.49883 -0.80078,-0.79883 -1,-1.2 -1.90078,-2.30039 -2.80078,-3.40039 -3.1,-2.2 -5.69961,-5.00078 -7.59961,-8.30078 -0.3,0.1 -0.69883,-0.0984 -0.79883,-0.39844 l -0.90039,-2.30078 v -0.30078 c 0,0.0996 -0.0996,0.10156 -0.0996,0.10156 -0.3,0.1 -0.70078,-7.8e-4 -0.80078,-0.30078 l -0.19922,-0.30078 c -0.0996,-0.1 -0.10156,-0.29844 -0.10156,-0.39844 -0.20003,-0.5 -0.29883,-1.10117 -0.29883,-1.70117 l -0.0996,-0.19922 c -0.9,0.2 -1.80078,-0.2 -2.30078,-1 -0.3,-0.1 -0.60078,-0.20039 -0.80078,-0.40039 -0.1,0 -0.29844,-0.0992 -0.39844,-0.19922 -0.1,-0.2 -0.30039,-0.3 -0.40039,-0.5 -0.7,-0.5 -1.1,-1.40117 -1,-2.20117 l -0.5,-0.40039 c -0.1,0.0996 -0.10117,0.10156 -0.20117,0.10156 -0.4,0.1 -0.69883,-0.20156 -0.79883,-0.60156 v -0.19922 c -0.4,-0.3 -0.79961,-0.69961 -1.09961,-1.09961 -0.3,-0.1 -0.50156,-0.29961 -0.60156,-0.59961 -0.3,-0.2 -0.49922,-0.50117 -0.69922,-0.70117 -0.4,-0.1 -0.69922,-0.50039 -0.69922,-0.90039 -0.1,-0.2 -0.30039,-0.3 -0.40039,-0.5 h -0.70117 c 0.1,-0.2 0.20078,-0.4 0.30078,-0.5 -1,-1.2 -1.79961,-2.59844 -2.59961,-3.89844 -0.1,-0.1 -0.0996,-0.20078 -0.0996,-0.30078 -3.4,-3.2 -7.00156,-6.1 -10.60156,-9 -0.6,0.5 -0.89961,-0.20078 -1.09961,-0.80078 l -0.69922,-0.69922 c -4,-3.2 -8.1,-6.3 -12,-9.5 -0.20017,-0.1 -0.20117,-0.3 -0.20117,-0.5 -0.5,-0.5 -1.09922,-0.89922 -1.69922,-1.19922 L 527.2,653.49883 h -0.29883 c -0.2,0 -0.39961,-0.0992 -0.59961,-0.19922 h -0.20117 c -1.6,1.6 -3.99922,2.30039 -6.19922,1.90039 -2.3,1.2 -4.19961,1.29922 -5.59961,-0.30078 l -0.60156,-0.30078 -0.0996,-0.0996 c -0.19999,-0.2 -0.2996,-0.59883 -0.0996,-0.79883 v -0.10156 c -0.4,-0.5 -0.8,-0.9 -1,-1.5 v -0.39844 l -0.80078,-0.60156 c -1.1,-0.7 -2.09961,-1.4 -3.09961,-2 -0.2,0 -0.30039,-0.0992 -0.40039,-0.19922 -1.3,-0.8 -2.89883,-1.60078 -4.29883,-2.30078 -1.4,-0.2 -2.6,-0.69922 -3.5,-1.69922 l -1.30078,-0.59961 c -1.2,-0.1 -2.40039,-0.10039 -2.90039,-1.40039 l -0.39844,-0.19922 c -2.1,0.8 -2.8,-0.50078 -3.5,-1.80078 -0.3,-0.3 -0.70156,-0.49922 -1.10156,-0.69922 -0.8,0.1 -1.49883,-0.40117 -1.79883,-1.20117 l -0.59961,-0.40039 c -0.2,-0.1 -0.4,-0.19844 -0.5,-0.39844 -0.5,-0.4 -1.10156,-0.80117 -1.60156,-1.20117 0,0.1 -0.0996,0.0996 -0.0996,0.0996 -0.4,-0.3 -0.79922,-0.7 -1.19922,-1 -0.6,-0.1 -1.10117,-0.39844 -1.20117,-0.89844 l -0.89844,-0.70117 c -0.2,0 -0.30039,-0.0988 -0.40039,-0.29883 l -0.80078,-0.60156 c -1,0.3 -1.69961,-0.3 -2.09961,-1.5 -0.6,-0.1 -1.09961,-0.59922 -1.09961,-1.19922 l -0.40039,-0.30078 c -0.5,-0.1 -0.80039,-0.29883 -0.90039,-0.79883 l -0.59961,-0.5 c -0.4,0 -0.70078,-0.30117 -0.80078,-0.70117 l -0.59961,-0.5 c -2.5,0.1 -3.6,-2.29844 -5,-3.89844 -3.8,-1.3 -6.30039,-4.10078 -8.40039,-7.30078 l -0.59961,-0.5 c -0.8,-0.4 -1.40039,-0.89961 -1.90039,-1.59961 l -6.09961,-5 c -0.4,-0.2 -0.79961,-0.50039 -1.09961,-0.90039 l -4.09961,-3.40039 h -0.0996 c -0.2,-0.2 -0.2,-0.59883 0,-0.79883 -1.7,-0.5 -3.4016,-1.40156 -4.6016,-2.60156 -0.1,-0.10002 -0.1988,-0.0992 -0.2988,-0.19922 -6.7,-5.5 -13.0008,-3.79922 -20.3008,-0.19922 -6.9,3.3 -12.7004,7.4 -17.4004,13 -0.7,1 -1.4992,1.99961 -2.1992,3.09961 -0.1002,0.1 -0.099,0.19883 -0.1992,0.29883 -1.5,2.1 -3.4008,4.20039 -5.3008,5.90039 -0.6,0.5 -16.6008,6.90117 -17.3008,7.20117 -26.35455,-3.11724 -73.18482,-21.72439 -85.125,-24.90087 -33.575,-9.60029 -38.7734,-11.40029 -43.7734,-13.30029 -1.8,-0.8 -4.0012,-0.99883 -5.2012,-2.79883 -10.9,-2.6 -13.9992,-12.30156 -18.6992,-20.60156 -11.4,-10.4 -17.4,-23.19922 -14.5,-38.69922 1,-5.7 0,-7.7 -5.5,-8.5 -10.2,-1.4 -20.4012,-2.50078 -30.7012,-2.30078 -15.1,0.3 -29.9992,-0.49961 -44.6992,-4.09961 -7.2,-1.7 -14.1,-4.50039 -19.5,-9.90039 -1.8,-1.7 -3.6004,-3.19883 -2.9004,-5.79883 l -0.2988,-0.5 c -0.2,0.1 -0.3008,0.0996 -0.3008,0.0996 C 93.600798,487.59922 75.2,478.89844 60.2,465.09844 38.8,445.39844 23.6,416.9 12.8,390.4 12.3,389.1 1.3436662,367.18046 3.2,287.4 2.3055288,282.98777 -0.04998529,275.18589 -0.06923915,269.27017 -0.11143549,256.3054 5.145555,245.82573 8.7042828,244.11953 c 2.3245032,-1.11446 7.1577942,-2.88897 7.2350122,-6.29329 0.05904,-2.60297 -0.606254,-4.25466 -2.531349,-8.47548 -1.376471,-3.01795 -1.230641,-5.72335 -0.955953,-8.43079 1.487913,-4.54333 3.905591,-7.57974 7.461011,-10.83725 6.608455,-6.05472 14.24113,-16.10295 17.427988,-19.73517 6.077445,-5.29192 11.928671,-6.74803 14.159808,-7.34872 z"
     id="_x23_1B81A8-4"
     inkscape:connector-curvature="0"
     sodipodi:nodetypes="cccccccccccccccccccccccccccccccsccccccccccccccccccccccccccccccccccccccccccccccccccccccccccccccccccscccccccccccccccccccccccccccccccccccccccccccccccscccccsccccccccccccccccccccccccccccccccccccccccsccccccccccccccccccccccsssscscc" /><path
     id="_x23_1B81A8"
     class="st0"
     d="M304.1,249.9l16.8,0.8l1.4,1.6v35.1h-19.8v-35.5L304.1,249.9z M285.4,149.5l21.1-1.3v-26.6  l-21.1,1.3V149.5z M321.3,34.8l-1.3,0.9l-1.3,0.3c-14.7,3.9-29.8,3.1-44.7,4.8l-2.6,0.5c-6.5,2.5-12.9,5.6-18.7,9.4  c-5.9,3.9-13.5,3.9-20.5,3.9c-0.1,0.3-0.5,0.4-0.8,0.3c-5,1.9-10.4,2.9-14.4,6.5l-3.7,2.3c-2,0-3.5,1.7-5.1,2.9  c-5.6,3.9-11.2,7.9-16.8,11.8c-0.8,0.1-1.7,0.2-2.6,0.5c-1.9,0.7-3.7,1.9-5.1,3.5c-2.5,2.3-4.5,3.9-8,4.4c-4.3,0.7-8.6,1.7-12.8,2.7  c-0.1,0-0.3,0.1-0.4,0.2c-4.1,0.5-8.2,1.4-12.2,2.7c-44.8,13.2-77.5,39.6-92.9,85c-1,3-2.5,4.8-5.9,5.6c-5.2,1.4-10,3.9-14.3,7.2  l5.6,2.2l2.8-4.1l42.6,5.4l0.7,6.1l51.4,8.8v6.7L254,229.9l-1.5-123.6l2.9-3.9l68.6-6.1l0.5-63.7l-2.8,1.7  C321.5,34.6,321.4,34.7,321.3,34.8z M271.7,247.8l-1.6-1.9l-19.6-0.9l-1.9,2.2v40.1h23.2V247.8z M285.4,194.2l21.1-1.3v-26.2  l-21.1,1.3V194.2z M125.4,220.6l-53.6-6.8l-5.4,2v71.6h63.5v-63.5L125.4,220.6z M239.1,242l-22.3-2l-2.2,2.6v44.9H241V244L239.1,242  z M164.7,234.7l-26.5-2.1v54.9h29v-50.3L164.7,234.7z M204.7,238.7l-26.8-2.1l-2.7,2.8v48.2H207v-46.5L204.7,238.7z M363.7,253.1  l-2,2.3V288h14.2v-32.9l-1.8-1.9H363.7z M329.5,252l-2.3,2v33.5l28.3,0.4v-33.1l-2.7-2.3L329.5,252z M276.3,249.7v37.8h21.6v-37.3  l-1.5-1.7l-18.2-0.8L276.3,249.7z M415.3,255.8h-7.7l-1.5,2.3v29.7h10.6v-30.1L415.3,255.8z M979.2,368.3c-0.8-1.3-2.2-3.1-1.9-4.1  c2.3-8.6-6.3-15.7-3.1-24.4c0.4-1-1-2.3-2.5-2.9l-0.8,0.8l0.7-0.8l-0.1-0.1c0.4-0.5-0.2-1.3-0.9-1h-0.1l-0.9-0.9  c-0.8-1.8-1.5-3.7-2.3-5.5c-10.2-24.6-17.4-50.8-35.5-71.4c-5.3-4.3-7.9-11-13.5-15l0,0c-1.5-2.1-3.3-4-3.5-7  c-2.2-32.2-17.5-57.4-41.4-78.2c-12.9-11.2-26.8-21.2-40.1-31.9c-4.8-3.8-9.8-7.3-8.9-14.6c0.3-2.9-2.3-4.1-4.3-5.6  c-7.8-6.1-15.1-12.7-22.2-19.6c-14.9-14.5-30.5-27.9-51.5-33.1h-0.1l-0.2-0.1c-5.7-1.9-12.8-2.8-18-6c-2.3-1.6-4.6-3.4-6.6-5.3  c-0.3-1.3-1.5-2-2.8-2.8c-4.6-2.8-9.4-5.1-14.5-6.9c-14.1-5.2-29-7.7-43.7-10.4c-19.2-3.6-36.9-12.2-55.6-17.2l-3.9-1  c-4.8-0.5-9.6-0.7-14.2-2.2L568.7,0H566l-9.2,0.7c-16.1,2.1-32.2,5.1-47.7,10.2c-1.1,0.3-2.2,0.1-3.2-0.6  c-11.7-9.1-25.2-6.3-38.3-5.1c-9.4,0.9-18.7,1.3-28.1-0.2c-7.8-1.2-15.4-1.1-23,2.8s-16.4,4-25,3.5l-2.7,0.1l-5.4,0.4l-2.6,0.4  c-9.2,1.6-18.4,3.1-27.6,5c-2.6,0.5-5.9,0.5-7.6,3.4l-0.8,0.4c-4.4-0.2-6.7,4-10.5,5.2l-1,1.2c-1.1,0.6-2.1,1.3-3.3,2  c-0.3,0.1-0.5,0.3-0.8,0.5l-3.3,2l0.7,64.4l10.1-0.9l12.7,4l5.2-0.4l8,2.8l0.9,2l18.6,5.8l-0.7,135.1l40.3,3.8l-0.2,4.3l-1.4,1  l0.4,53.7l-39.8,25.6v298.1c7.2-1.1,13-3.2,15.3-5.9c0.7-0.3,1.4-0.8,2-1.3c1.9-1.7,3.8-3.8,5.3-5.9c0.1-0.1,0.1-0.2,0.2-0.3  c0.7-1.1,1.5-2.1,2.2-3.1c4.7-5.6,10.5-9.7,17.4-13c7.3-3.6,13.6-5.3,20.3,0.2c0.1,0.1,0.2,0.1,0.3,0.2c1.2,1.2,2.9,2.1,4.6,2.6  c-0.2,0.2-0.2,0.6,0,0.8c0,0,0,0,0.1,0l4.1,3.4c0.3,0.4,0.7,0.7,1.1,0.9l6.1,5c0.5,0.7,1.1,1.2,1.9,1.6l0.6,0.5  c2.1,3.2,4.6,6,8.4,7.3l0.2-0.2l-0.2,0.2c1.4,1.6,2.5,4,5,3.9l0.6,0.5c0.1,0.4,0.4,0.7,0.8,0.7l0.6,0.5c0.1,0.5,0.4,0.7,0.9,0.8  l0.4,0.3c0,0.6,0.5,1.1,1.1,1.2c0.4,1.2,1.1,1.8,2.1,1.5l0.8,0.6c0.1,0.2,0.2,0.3,0.4,0.3l0.9,0.7c0.1,0.5,0.6,0.8,1.2,0.9l0,0  c0.4,0.3,0.8,0.7,1.2,1c0,0,0.1,0,0.1-0.1c0.5,0.4,1.1,0.8,1.6,1.2c0.1,0.2,0.3,0.3,0.5,0.4l0.6,0.4c0.3,0.8,1,1.3,1.8,1.2  c0.4,0.2,0.8,0.4,1.1,0.7c0.7,1.3,1.4,2.6,3.5,1.8l0.4,0.2c0.5,1.3,1.7,1.3,2.9,1.4l1.3,0.6c0.9,1,2.1,1.5,3.5,1.7  c1.4,0.7,3,1.5,4.3,2.3c0.1,0.1,0.2,0.2,0.4,0.2c1,0.6,2,1.3,3.1,2l0.8,0.6c0,0.1,0,0.3,0,0.4c0.2,0.6,0.6,1,1,1.5v0.1  c-0.2,0.2-0.1,0.6,0.1,0.8l0.1,0.1c0.2,0.1,0.4,0.2,0.6,0.3c1.4,1.6,3.3,1.5,5.6,0.3c2.2,0.4,4.6-0.3,6.2-1.9h0.2  c0.2,0.1,0.4,0.2,0.6,0.2c0.1,0,0.2,0,0.3,0l1.3,0.2c0.6,0.3,1.2,0.7,1.7,1.2c0,0.2,0,0.4,0.2,0.5c3.9,3.2,8,6.3,12,9.5l0.7,0.7  c0.2,0.6,0.5,1.3,1.1,0.8c3.6,2.9,7.2,5.8,10.6,9c0,0.1,0,0.2,0.1,0.3c0.8,1.3,1.6,2.7,2.6,3.9c-0.1,0.1-0.2,0.3-0.3,0.5h0.7  c0.1,0.2,0.3,0.3,0.4,0.5c0,0.4,0.3,0.8,0.7,0.9c0.2,0.2,0.4,0.5,0.7,0.7c0.1,0.3,0.3,0.5,0.6,0.6c0.3,0.4,0.7,0.8,1.1,1.1  c0,0.1,0,0.1,0,0.2c0.1,0.4,0.4,0.7,0.8,0.6c0.1,0,0.1,0,0.2-0.1l0.5,0.4c-0.1,0.8,0.3,1.7,1,2.2c0.1,0.2,0.3,0.3,0.4,0.5  c0.1,0.1,0.3,0.2,0.4,0.2c0.2,0.2,0.5,0.3,0.8,0.4c0.5,0.8,1.4,1.2,2.3,1l0.1,0.2c0,0.6,0.1,1.2,0.3,1.7c0,0.1,0,0.3,0.1,0.4  l0.2,0.3c0.1,0.3,0.5,0.4,0.8,0.3c0,0,0.1,0,0.1-0.1l0,0c0,0.1,0,0.2,0,0.3l0.9,2.3c0.1,0.3,0.5,0.5,0.8,0.4  c1.9,3.3,4.5,6.1,7.6,8.3c0.9,1.1,1.8,2.2,2.8,3.4c0.2,0.3,0.5,0.5,0.8,0.8c-1.1,0.7-1.7,1.7,0.1,3.1c1.2,0.8,2.9,2.2,4.2,1.4  c2.9,2.9,11.4,11.3,13.1,12.8c1.9,0.7,9.4,5.3,13,7c5.3,2.5,10.9,4,16.5,5.8c10.8,3.7,29.5,18.5,30.4,19.2c3,0.2,4.7,4.6,8.1,3.4  c0.3,0.4,0.7,0.8,1.1,1.1c0.6,0.5,1.2,0.9,1.9,1.2c0.3,0.3,0.5,0.5,0.8,0.8c0.2,0.2,0.5,0.2,0.7,0.1c1.2,3.7,4.1,6,7.2,8.2  c4.6,4.8,8.7,9.9,14.7,12.9l0,0l0.4,0.1c0.5,0.2,0.9,0.4,1.3,0.6c0.1,0.1,0.3,0.1,0.4,0c9.7,3.2,15.6,0.2,19.6-9.7  c1.4-3.7,0.8-6.5-3.5-8c-3.8-1.3-7.5-3.1-11.1-4.6l-5.2-3.6c-11.8-6.7-18-17.9-23-29.8c-1.6-4.1,1.6-4.5,4.1-5.2  c8.4-2.5,17-1.2,25.4-0.8c11.5,0.6,23,3.8,34.8,0.6c20.8-5.5,40.8-13.6,60.5-22.3c5.1-2.2,10-5.1,13.4-9.8l-0.2-0.3l0.2,0.3  c2.2,0,3.7-1.6,5.2-2.9c10.9-9,20.6-19.3,29.1-30.6c2.6-3.6,4.8-7.4,10-8c3-0.3,4.9-3,5.4-6.1c7.7-7.5,12.9-16.5,17.2-26.2  c2-4.5,4.7-9.1,3.4-14.5c0.2-0.3,0.3-0.7,0.4-1.1c3.5-1,5.5-3.9,7.4-6.6c16-23.4,19.8-49.1,13.7-76.5c-1.2-5.6,0.1-6.6,5.2-5.7  c9.7,1.8,18.6-0.3,27.3-4.7c10.5-5.2,17.9-14.2,26.2-22c5.8-5.5,14.1-8.9,17.7-16.2C997.6,437.3,999.2,402.7,979.2,368.3  L979.2,368.3z M401.7,256.4l-1.8-1.9l-18.4-1.3l-2,2.3V288h22.3V256.4z M12.8,390.4L12.8,390.4L12.8,390.4L12.8,390.4z M12.8,390.4  c0.5,1.3,1,2.7,1.5,4c10.8,26.5,24.5,51,45.9,70.7c15,13.8,33.4,22.5,49.3,34.8c0,0,0.1,0,0.3-0.1l0.3,0.5c-0.7,2.6,1.1,4.1,2.9,5.8  c5.4,5.4,12.3,8.2,19.5,9.9c14.7,3.6,29.6,4.4,44.7,4.1c10.3-0.2,20.5,0.9,30.7,2.3c5.5,0.8,6.5,2.8,5.5,8.5  c-2.9,15.5,3.1,28.3,14.5,38.7c4.7,8.3,7.8,18,18.7,20.6c1.2,1.8,3.4,2,5.2,2.8c5,1.9,10.2,3.7,15.4,5l0.1-235L12.8,390.4z   M3.2,287.4h50.2V214l-4.9-3.8L20,209.7l0,0c-0.5,0.5-1,1.1-1.5,1.6c-6.6,6.3-8.1,12.9-3.9,21c2.2,4.3,2.2,8.4-3.7,10.6  c-3.9,1.4-6.1,5.1-7.8,9c-2.6,6.7-3.6,14-3,21.1C0.5,278,2.3,282.6,3.2,287.4z M889.7,903.7c0.1-2.6-1.8-3.3-4-4.3  c-6.5-3-9.1-8.9-9.7-15.8s-2.2-12.3-12.4-4c11.3-17.8,2-31.8-5-43.3c-3.9-6.4-6.9-10.1-4.7-17.3c0.7-2.3-1.2-5.9-4-5.8  c-9.7,0.4-19.8-3.5-29.1,2.2c-2.3,9-4.8,18-9.2,26.4c-0.3,1.8-0.6,3.6-1.1,5.4c-3.4,10.2-6.2,20.6-10.6,30.3  c-3.9,8.6-1.3,21.4-14.7,24.4c-0.3,0.1-0.2,1.4-0.4,2.1c-2.7,13,0.3,16.5,13.6,16.2c5.9-0.1,11.8-0.5,17.6,0.1  c9.5,1.1,11.5-3.1,11.6-12c0.2-10.8-8.1-5.6-13.1-8.6c2.6-4.9,0.5-12.9,10.3-12.5c6.6,0.2,13.3,0.5,19.9,0.3  c7.1-0.3,7.5,5.5,8.2,9.7c1,5.6-4.2,3.9-7,3.8c-5.6-0.2-6.1,3.1-5.6,7.1c0.5,4.3-2.2,11.2,4.8,11.7c12.1,0.9,24.4,0.2,37.2,0.2  c-2.4-6.7-10.8-7.3-8.1-15.5c2.5,1.2,3.4,3.8,5.1,5.6c2.5,2.6,5.9,6.3,9.3,4.1C891.7,912.2,889.7,907.3,889.7,903.7z M844,872.1  c-23.5-0.5-23.7,6.7-10.6-28.6c7.7,8.4,6.9,19.3,12.8,27.1C845,871.4,844.5,872.1,844,872.1z M977.9,813.2c-4.2-0.7-8.8-0.5-6.4,6.1  l-2.3,1.6c-3.3-8.3-10.4-8.5-17.5-7.6c-4.7,0.6-2.4,5.3-3,8.2c-1.6,8.1,1,13.1,11.2,12.5c-3.4,5.4-6,9.4-8.4,13.4  c-2.6,4.4-5,9-7.4,13.5v0.1c-4.7,0.2-4.8-5.1-8-6.7l-1-2.1c-4.2-8.2-11.2-15.9-0.6-24.8c2.8-2.4,0.5-6.1-3.3-7.5l-0.2-0.2  c-1.3-6-16.4-10.7-20.2-5.1s-3.3,2.7-6.6,0.2c-4.5-3.3-10.4,0.7-15.8,0.1c1,6.2-2.7,13.6,5,17.8l-0.8-5.6c-1.7-1.3-2.3-3.2-0.4-4.1  c1.3-0.6,1.8,1.4,1.8,2.8c0.6,0,1.1,0.1,1.6,0.5c0.3,2.2,2,2.7,3.8,2.9l0.2-0.2l-0.2,0.2c1.3,6.5-2.9,4-5.8,3.7l14.8,20.4h-0.1  c1,3.7,2,7.5,6,9.3v0.1c2.7,4.8,6.3,9.4,7.8,14.5c2.3,8,8.1,16.6-3.7,23.6c-3.9,2.3-6.4,9.9-4.7,16c1.7,6.3,7.4,3.3,11.3,3.7  c6.6,0.5,13.3,0.1,19.9,0.1c19,0.1,19.1,0.1,18.4-18.2c0-0.5-0.9-0.9-1.7-1.7c-2.6,2-1.3,8-7.9,6.7c3.8-4.9-0.4-8.8-1.1-13.3  c-2.1-12.8,1.5-20.7,10.9-31.9c6.9-8.2,10.3-21.6,18.7-25.8c10.9-5.5,6.9-12.7,7-19C989.3,809.8,982,813.8,977.9,813.2L977.9,813.2z   M919.1,913.3c-0.5-0.2-1.4-0.5-1.5-0.8c0-1,0-2,0.2-3c0.9,0.5,1.8,0.7,1.8,1C919.6,911.4,919.4,912.4,919.1,913.3L919.1,913.3z   M772.1,844.1c-4.6-21.7-15-30.3-36-30.7c-15.3-0.3-30.7,0-46,0.2c-4,0-10-2.2-9.3,5.2c0.6,6.2-4.8,15.8,7.8,16.5  c0,7-0.5,14,0.1,20.9c0.8,8.9-2.8,18.2,2.2,26.8c-0.2,4.7,6.9,10.1-1.1,14.3c-0.2,0.1,0.3,2,0.7,3c1.6,4.5-1.4,6-4.4,4.7  c-7-3-5.7,2-5.4,5.2c0.3,3.8-2.3,10.3,5.1,9.9c22.6-1.4,45.7,3.6,67.7-5.3c2.5,1.5,4.3,0.9,5.3-2l1.6-1.5c6.9-0.1,6.7-4.2,4.4-8.7  c-1.3-2.5-3.7-4.5-3.2-7.8l0.6-0.1l0.2-0.5l4.1-1.9c2.2,0.2,4.6,0.8,5.1-2.3C774,874.7,775.2,859.3,772.1,844.1z M747.1,853.4  c-1.5,10.1-1.3,20.5-2,30.7c-0.9,14.1-12,21.4-25.6,17.2c-3.9-1.2-3.8-4-3.8-6.9c-0.1-9.2,0-18.4,0-27.6c0-6.6-0.5-13.3,0.2-19.8  c0.4-4.7-3.3-11.6,3.4-13.5c6.9-1.9,15.1-2.4,21,3C745,840.7,748.3,845.9,747.1,853.4z M321.9,825.3c-1.9-3.4-3.4-5.6-0.1-9.2  c1.7-1.9-0.6-4.3-3.2-3.7c-9.7,2.3-19.3-1.2-28.9-0.1c-1.6,0.2-4.2-0.7-4.1,2c0.1,2,1.7,2.4,3.9,2.3c5.7-0.3,10,5.7,16.8,2.8  c-0.8,6.3-5.5,5.1-8.5,6.8c-10.5,5.8-13.1,0.4-14.5-8.5c-0.3-2-0.1-4.4-2-5.9L278,813c0.1,2.8-0.4,5.7,0.5,8.2  c1.8,5.1-0.3,13,9.6,12.4c5-0.3,2.2,4,1.4,6.1c-4.7,11.5-5.9,24-11.5,35.2c-5.9,11.7-5,23.5,0.6,35.1c1.7,3.6,3.3,7.3,2.3,11.5  c1.4,1.7,3.2,0.8,3.6-0.4c2.6-8.5,7.4-16.4,8.3-25.5c-0.8-4.9,3.4-7.4,5.3-10.9v-0.1c2-9,5-17.7,9-26c3.3-9,2.3-20.2,13.2-25.5  C323,831.4,323,827.4,321.9,825.3z M282.7,874.7c6.2,2,6.2,2,8.1,11.1C289.4,881.1,286,877.9,282.7,874.7L282.7,874.7z M261.3,865.4  c-2.7-10.8-7.9-21.1-7.8-32.6h0.9l0.9-0.3c3.5,0,8.2,2.5,10.1-1.1c2-3.9-0.5-8.3-3.6-11.5c-0.7-0.6-1.4-1.2-2.2-1.7  c-0.4-4.5-2.7-6.6-7.4-5.9c-6.4,1-4,6.5-4.6,11.7c-2.3-2.9-3.8-6-4.8-5.8c-10.9,1.8-2.7-3.8-2.5-6.2l-3.5-0.3  c-4.5,0.2-9.1,0.9-13.5,0.4c-7.3-0.7-10.2,1.8-8.4,9.1c-0.2,5.9-3.8,12.9,6.8,14.6c1.5,0.2,9.9,3.3,7.5,8.4c-2,4.3-0.4,7,0.6,10.3  c2.6,9,8.7,16.7,9.5,26.6c0.4,5.4,5.4,9.3,6.4,15.2c1.4,7.8,3.1,16,7.2,22.5c5.4,8.5,15.4,1.5,22.9,3.9c0.6,0.1,1.2,0.2,1.8,0.3  c1.2-3.1-0.1-5.9-0.9-8.9C272.5,897.6,265.3,881.9,261.3,865.4L261.3,865.4z M250.3,892.8l8.2,23.7  C250.4,910.5,251.3,901.3,250.3,892.8L250.3,892.8z M95.8,854.9c-1.7-24.7-2.3-36.4-31.3-42.1c-4.8-1-10.5-2.2-12.6,4.8  c-2.6,0-5.2,0.1-7.4-1.8c-4.8-4.6-23.2-5.1-28.1-0.7c-1.6,1.5-3.8,4-4.7,1.3c-2.4-7.1-7.4-3-11.3-3.5c1.6,8.3-5.1,19,7.2,24.2  c0.8,0.3,0.8,2.9,0.8,4.4c0,17.9,0,35.7-0.1,53.6c0,2.3,0.7,5.8-3,5.5c-5.7-0.4-4.7,3.5-4.8,6.7c-0.2,4.6-0.2,9.2-0.3,13.9l1.8,0.1  c19,0.2,38,0.7,56.9,0.4c24.5-0.5,33.6-9.2,36.3-33.7C96.5,877,96.7,865.9,95.8,854.9z M51.4,902.3c-12.7,0.9-13,0.9-14.1-11.2  c-0.4-4.4-2.5-3.9-5.4-3.8c-1.3,0.2-2.6-0.7-2.8-2c0-0.3,0-0.5,0-0.8c0-1.3,1-2.3,2.3-2.4c0.3,0,0.7,0.1,1,0.2  c6.6,2.6,4.6-2.7,4.6-5.3c0.2-12.3,0.4-24.6,0-36.9c-0.2-6.2,2-7.7,8-7.8c9.5-0.1,17.9,0.5,21.6,11.1c1,0.1,1.9,0.3,2.8,0.6  c-0.9-0.3-1.9-0.5-2.8-0.6c1.6,3.2,0.7,6.4,0.9,9.7c0.5,9.5-3.5,19.4,2.5,28.3C70.8,890.6,61.1,901.6,51.4,902.3z M70.1,844.4  c0.1,0,0.2,0.1,0.3,0.2C70.3,844.6,70.2,844.5,70.1,844.4z M200.4,896.9c3,24.7,2.8,24.8-21.8,24.8c-15.7,0-31.4-0.2-47.1-0.3  c-2.1,0.1-4.3,0.4-6.4,0.3s-6.1,1.1-5.7-2.4c0.5-4.1,3.4-1.3,5.6-0.7c2.8,0.8,4.3-1.3,4.1-3.5c-0.4-3.9-2.6-6.7-7-6.7  c-2.8,0-5.8,3-8.2-1.1c3.8-3,7.2-5.2,6-12.4c-1.1-6.3-5.6-16,4.6-20.8c0.8-0.5,1.1-1.6,0.6-2.4c-0.2-0.3-0.4-0.5-0.6-0.6  c-9.3-5.8-3.7-15-5.3-22.5c-1.2-5.4,3.7-13.3-6.8-15c-2.2-0.3-1.2-4.4-1.3-6.8c-0.2-4.3-0.4-8.6-0.6-12.8c0.4-0.5,0.6-1,0.7-1.6  c3.2-1,4.4,2.6,7.1,2.9c13.6-1.7,27.3-4,41-2.6c4.6,0.5,9.2-1.7,13.6,0.6c1.3,1,0.5,4.3,3.1,3.7c2.3-0.5,1.4-3,1.7-4.7  c3.4-0.8,4.7,2.8,7.4,3.5c3.2-6.6,8.9-3.2,13.4-2.9c4.3,0.3,3,4.7,3,7.5c0.1,8.3-0.4,16.6,0.1,24.8c0.4,6.3-2,8.2-7.9,7.6  c-3.7-0.4-7.3-0.4-11-0.1c-5.5,0.6-8-1.2-7.6-7c0.3-4.3-0.2-8.6-0.3-12.9c-1.2-0.1-2.4-0.2-3.7-0.2c-24.2-0.5-24.2-0.5-23,24.2  c1.8,0.1,3.6,0.2,5.5,0.2c12.2,0.1,15.5,4.3,12.3,16.4c-1.7,6.4-6.7,3.1-10.5,3.2l-7.1,0.5c0.5,8.6-4.3,18,3.7,25.6  c1.8-0.1,3.7-0.3,5.5-0.3c16.8-0.4,17-0.4,17.5-17.3c0.1-4,1-5.5,5.1-5.2c6.1,0.4,13.1-1.5,18.3,0.7  C205.8,883.7,199.7,891.3,200.4,896.9L200.4,896.9z" /><path
     id="_x23_165B85"
     class="st1"
     d="M469.2,401.2L469.2,401.2l-0.5-0.6L469.2,401.2z M701.3,169.4c-11.3-3.9-23.9-2.2-33.9,4.4  c0.1-0.3,0.2-0.7,0.3-1c-0.1,0.3-0.2,0.7-0.3,1c-3.7,1.3-6.6,4.2-8.1,7.8c-0.3,4.9-2.9,9-5.2,13.2l0,0c0.2,7.5-7.2,3.9-10,6.9  c-1.1-0.8-1.9-2.2-3.4-2.6c-0.2,0-0.4-0.1-0.7-0.1c-3.1-3.2-4.7-7.7-9.2-9.4v0.1v-0.1l0,0c-1.4-3-3-5.5-6.5-6.7  c-11.5-4-22.5-4.3-33.7,1.8c-7.7,4.2-13.6,0.4-15.2-8.6c0.2-0.3,0.2-0.7,0.1-1.1c3.1-8.6,4.1-16.9-3-24.2  c-3.5-7.7-8.3-13.7-17.2-15.4c-1.9-0.4-3.7-1.6-5.5-2.5c-8.2-3.7-9.2-10.7-2.3-16.3c3.8-3.2,8-6.1,10.9-10c5.2-6.7,7-15.4,6.1-23.2  c-0.7-6.5-3.9-13.6-8.1-19.5c3.2-7.5,7.8-10.4,16.5-8.5c13.9,3.1,31.9-5.9,37.4-25c0.8-3,1.7-5.9,6.1-7.6c8-2.9,10.7,2.7,13.9,6.8  c6.9,9.2,15.7,14.1,27.1,13.7c6.9-0.2,13.2-4,19.6-6.4c4.5-1.7,9.5,0.4,11.2,4.9c0.3,0.8,0.5,1.6,0.6,2.5c0.3,3.8,0.2,7.7-0.2,11.4  c-0.8,5.6,0.7,10.2,3.3,15.3c4.3,8.2,10,14.6,18.9,16.7c8.9,2,11.7,7.4,11.6,15.5c-9.2,6.6-19,12.8-20.4,25.6  c-3.5,8.2,0,15.4,3.1,22.7l0,0v0.1c1.8,4,5.4,7.7,1.1,12.3c-0.1,0.3-0.2,0.6-0.4,0.9C705.1,166.9,702.9,167.8,701.3,169.4z   M596.3,127.8c-1.4,1.5,0.4,2.2,0.9,3.3c0.3,0.6,0.6,0.7,0.8,0C598.5,129.5,597.2,128.7,596.3,127.8z M598.2,91.8  c-7.4,8.7-8.8,25.3-2.3,33.5C592.5,114.2,593.5,102.4,598.2,91.8z M601,87.1c-2.1,0.5-2.7,2-2.5,4C599.9,90.1,601,89.1,601,87.1z   M654,77.7l1.1,0.8l0.2-0.8H654z M636.7,73.5c6.7-1.4,11.5,2.2,17,4C649.1,72.4,642.3,70.6,636.7,73.5L636.7,73.5z M616.1,74.6  c4.6-0.9,9.2-1.9,14-1.7C625.2,72.1,620.4,71.6,616.1,74.6L616.1,74.6z M602.4,85.8c-0.9-0.1-1.3,0.3-1.2,1.2  C601.8,87,602.4,86.5,602.4,85.8z M603.8,84.5c-1-0.2-1.3,0.1-1.3,1.1L603.8,84.5z M606,81.8c0-0.1-0.4-0.4-0.5-0.3  c-1.2,0.4-1.8,1.6-1.6,2.9C604.9,83.8,606.3,83.6,606,81.8L606,81.8z M624,150.6c-2-2-4.5-2.6-7.7-2.5  C618.7,150.9,621.4,150.7,624,150.6L624,150.6z M640.3,150.7h-16C629.5,153.4,634.8,151.8,640.3,150.7L640.3,150.7z M656.3,102  c-5.4-13-16.5-18.2-29.6-15.1l0,0c-4.7,0.6-8,3.7-11.5,6.3c-10.6,8.1-10.3,28,0.5,36l1.2,1.2c7.2,8.9,23.3,7.5,30.5,1.9  C658,124.2,661,113.3,656.3,102L656.3,102z M667.3,91.4c0.5,1.9,0.8,3.9,2.8,5C670.7,93.9,669.5,92.3,667.3,91.4z M667.1,91.1  l-0.2-2.2c-0.2,0.1-0.5,0.1-0.6,0.2C666,89.9,666.4,90.8,667.1,91.1L667.1,91.1z M668.8,165c-0.3-0.1-0.6-0.3-0.8-0.4l0,0  C668.1,164.7,668.4,164.8,668.8,165L668.8,165z M669.2,170.1l-0.2,0.3L669.2,170.1z M671.2,168c0.3-0.2,0.7-0.5,1-0.7  C671.9,167.5,671.6,167.7,671.2,168L671.2,168z M672.6,115.7c-0.7,6.4-4.1,12-5.7,18C669.4,127.8,676.3,123.5,672.6,115.7  L672.6,115.7z M674.4,104.8c-2.2-2.5-0.4-6.1-4.3-8.1l2,8.8L674.4,104.8z M676.5,165.9c-0.6,0.1-1.2,0.2-1.8,0.4  C675.3,166.1,675.9,166,676.5,165.9L676.5,165.9z M361.1,101l-6.2-2.1l-5.2,0.4l-12.7-4l-10.1,0.9l-0.7-60.7c0.5,0,1.1,0,1.7,0v0.1  c1.1,0.1,2.1,0.1,3.3,0c2.8-0.2,5.2-1.5,6.8-3.7c4.4-5.6,12.6-6.5,18.2-2c0.9,0.7,1.6,1.5,2.3,2.5c2.5,3.4,5.3,3.8,8.7,3.2  c8.8-1.5,15.2,4.5,13.7,13.3c-0.7,4.1-0.1,6.3,3.2,9c7.8,5.9,7.7,14.5,0,20.3c-3,2.2-4.3,3.9-3.4,8.1c1.9,8.9-4.2,14.9-13.4,14.1  C365.2,100,363,100.2,361.1,101z M365.8,67.6c-0.1-9.4-8.6-18-18.1-18.1c-8.8-0.1-17.9,9.4-17.8,18.4C330,77.2,339,86.2,348,86  C357.8,85.5,365.6,77.4,365.8,67.6z M553.8,61.6c-1.9,1.7,0,3.4,0,5c0.4,0.2,0.8,0.2,1.2,0.2c1.5,5.9-2.8,6.2-6.7,6.8l0.2,2.6  l0.9,2.8l-1.2,1.4c-0.4,0-0.9,0.2-1.3,0.3c-2.8,1.5-6.1,2.6-5.3,7c0.2,1.2-1.5,3.8-2.9,3c-5.8-3.5-5.9,1.9-7.9,4.6l-1.4,0.4  l-2.8-0.2c-0.1-0.3-0.4-0.5-0.8-0.5c-1.5-1.5-3.1-2.9-4.4,0.3c-0.3,0.3-0.4,0.6-0.3,1l-5.4,0.8l-2.5-1.8c-0.2-0.9,0-2.3-1.5-2.2  c-1.5,0.1-2.1,1.1-2.7,2.2l0,0c-1.5,0-4.1,1-4.4-0.3c-1.5-6.4-6.4-4.5-10.5-4.6c-0.2-0.4-0.6-0.6-1-0.6c0.1-3.9,0.5-7.9-5.4-7.7  c-0.9,0-2.7-1.6-2.6-1.7c3.9-6.9-7.8-8.1-5.4-12.8c1.9-3.9-0.3-5.3-0.6-7.8c-0.5-5,0.7-10.6,1.9-15.8c0.3-1.3,3.3-1.9,5.1-2.9  c-1.7-2.7-2.7-5.1,1.2-6.7c3-1.1,6.6-1.5,5.8-6.3c-0.2-1.3,1-3.4,2-3c5,1.9,7.4-3.8,9.7-4c5-0.4,10-3,14.4-2  c2.9,0.5,4.9,4.7,8.2,0.4c0.2-0.1,0.4-0.1,0.6,0c2.8,5.5,10.4,4.3,13.3,9.1c2,3.4,4.2,4.9,8,4.7c0.2,1,0.2,2,1.4,2.5  c-1.7,3.2,0.7,5.4,1.8,8c1.9,1.5,3.9,3,1.2,5.5c-0.4,1.5-2.5,2.8,0.6,4.6C558.3,56.1,558.3,59.3,553.8,61.6L553.8,61.6z M538.5,27.9  c0.1,0,0.3,0.1,0.4,0.1c0.9,0.5,1.4,1.4,1.2,2.5c0,0.7-0.2,1.3-0.7,1.8c0.5-0.5,0.7-1.1,0.7-1.8c0.2-1-0.3-2-1.2-2.5  C538.8,28,538.6,27.9,538.5,27.9L538.5,27.9z M547.4,67.5c-0.6,0.3-1.3,0.4-2,0.3c2.3-9.7,2.5-18.9-4.9-26.9l0,0  c-0.9-2.7-2.3-4.7-5.3-5.3c-0.5-1.7-2.2-2.9-4.1-2.7l-1.6-1.2l0,0c-7.2-4.2-14.4-5.1-21.8-0.3l-6.7,2.9c-1.7,0.8-3.2,2.2-4,4  c-2.9,1.9-5.1,4.3-5.5,8c-3.4,5.6-3.7,11.6-2.2,17.9c2.7,12.1,13.3,21.6,24.1,21.6c3.2,1.4,6.3,1.7,9.4-0.1  c4.5,1.2,7.7-1.1,10.6-3.9c2-1.6,5.1-2,5.8-5.2l2.3-1.5c0.1-0.4,0.2-0.8,0.4-1.2l1.1-3l2.5-2.7l0,0l-0.1-0.2  C546,67.9,546.7,67.8,547.4,67.5L547.4,67.5z M548.1,39.7c-0.4,0.9-1.4,1.4-2.3,1.2c-0.7,0-1.3-0.2-1.8-0.7c0.5,0.4,1.1,0.7,1.8,0.7  C546.7,41.1,547.6,40.6,548.1,39.7L548.1,39.7z M548.4,66.2c0-0.2,0.1-0.3,0.1-0.5C548.4,65.9,548.3,66,548.4,66.2L548.4,66.2z   M440.5,538.8h0.4l0,0H440.5z M285.4,174.6c0.8,0.3,1.6,0.6,2.3,1.1c1.1,0.7,2.1,1.6,3.3,2.2c2,1.1,4.4,1.9,6.3,0.4  c1.7-1.4,1-3.8,0.7-5.7c-0.2-1.3-0.9-2.6-1.1-3.9c-0.1-0.5-0.1-0.9-0.1-1.4l-11.4,0.7V174.6z M681.4,269.8L681.4,269.8  c0.3,0.6,0.6,1.6,0.8,1.6c3.9-0.1,8.2-1.2,9.9-4.3c2-3.8-1.7-5.5-5-6.8c-1.3-0.6-2.3-1.8-3.6-2.8c-0.3-1.5-0.4-3.2-0.3-4.7  c0.2-6.6,3.3-12.7,5.8-18.8c4.3,3,7.8,0.9,11-2c4.2-3.8-0.5-5.6-1.6-8.3c-0.4-0.8-0.8-1.6-1.3-2.3c0.6-0.8,1.1-1.5,1.6-2.3  c0.5-0.8,1-1.6,1.6-2.5c3.2-4.9,6.2-9.8,11.2-13.2l0,0c3-0.4,5.9,0.5,8,2.6c1.4,1.3,2.9,3.2,5.7,1c2.5-1.8,3.4-4,2.5-6.1  c-2.3-6,1.6-7.5,5.7-9c2.2-0.8,4.8-1.1,7.2-1.9c9.1-3.1,10.3-2.8,14.5,5.4c0.7,1.9,2.6,3.1,4.6,3c2.2,0.1,3.1-1.1,3.6-3.2  c1.3-6,5.1-7.9,10.9-6.2c4.5,1.2,9,2.5,13.4,4c2.3,0.8,4.5,2.1,3.6,5.4c-0.8,3-1.7,5.8,1.8,8.3c4,2.7,5.9-0.4,8.5-2  c3.7-3.6,6.1,0,9,1.4l10.7,11.1c0,0.4,0.2,0.7,0.4,1c0.3,2.7-0.7,5.3-2.8,6.9c-2.6,6.6-1.4,8.6,5.5,8.8c3.2,0.1,6.2-0.3,7.7,3.5  l0.8,1.4c0.9,3.4,2,6.7,2.9,10.1c1.2,5.2,1.7,10.2-5.2,12c-2.2,0.6-3.3,2-3.5,4.8c-0.3,3.5,2.1,3.4,4,4.2c1.2,0.5,2.5,0.9,3.7,1.2  l0,0c1.9,2.6,2.7,5.2,0.6,8.2c0.1,0.2,0.1,0.5-0.1,0.6c-0.5,0.6-1.1,1.2-1.6,1.8c0.5-0.6,1.2-1.2,1.6-1.8c1,4.5-2.1,8.2-2.2,12.4  l-0.8,2.8c-2.2,1.7-4.3,3.9-7.7,2.3c-1.8-0.8-4-2-5.7,0.8c-1.6,2.7-1.7,4.9,0.3,7.2c2.2,2.6,3.5,5.1,1.9,8.5l-10.5,10.7  c-3.8,3.3-7.5,4.8-11.3-0.1c-2.1-2.7-4.8-1.4-7.3-0.5l0,0c0,0.3-0.1,0.6-0.4,0.8c-0.2,0.8-0.5,1.6-0.7,2.6c-0.7,3.4,3.1,8.2-1.9,10  c-6.5,2.6-13.3,5.1-20.4,4.8c-3.5-0.2-3.9-3.8-4.8-6.5l0,0c-1.1-2.5-2.3-4.8-5.8-3.9c-2.6,2.7-3.4,8.1-9.4,4.7  c-1.2-0.6-3.9,3.4-6.8,3.5l-2.7,0.1c-3.3-1.5-8.9,0.7-9.1-5.6l0,0c-1.2-2.7,0.3-5.8-1.7-8.3c-3.1-3.1-6.2-4.6-9.7-0.5  c-2.8,3.2-5.7,2.2-8.4,0.2c-4.7-3.5-8.8-7.7-12.1-12.6c-3.3-5.1,1.5-7.6,4.1-10.6l0,0c-1.3-4.8-3.3-8-9.2-5.2  c-3.3,1.5-5-1.3-6.3-4.2c-2.3-5.3-2.9-11-4.3-16.5c-0.1-1.5-1-3-1.3-4.5C680.9,271.5,681,270.6,681.4,269.8z M832.6,283.2  c0.1-0.3,0.3-0.6,0.5-0.9C832.9,282.5,832.8,282.9,832.6,283.2L832.6,283.2z M816.2,232.9c0.1,0.4,0.2,0.9,0.4,1.3  C816.4,233.8,816.3,233.4,816.2,232.9z M810.9,209.9c0.3,0.3,0.6,0.5,0.8,0.8c4.1,4.1,6.9,9.5,6.7,14c-2.1,1.1-3.3,3.5-2.9,5.8  c0,0.2,0,0.4,0.1,0.6s0.1,0.7,0.2,1c-0.1-0.3-0.2-0.7-0.2-1c0-0.3-0.1-0.4-0.1-0.6c-0.4-2.3,0.7-4.7,2.9-5.8c0.2-4.6-2.7-9.9-6.7-14  C811.5,210.4,811.1,210.2,810.9,209.9L810.9,209.9z M731.2,279.1c7.3,14.7,23.2,21.5,40.2,14.9c13-5,21.9-23.1,18.8-33.8  c-1.9-12.6-9.7-20.5-21.1-24.6c-13.9-4.9-25.7-0.1-34.6,10.7C726.6,256.1,725,267.4,731.2,279.1L731.2,279.1z M815.7,231.3  c0-0.2-0.1-0.4-0.1-0.6C815.7,230.9,815.7,231.1,815.7,231.3L815.7,231.3z M730.3,403.3L730.3,403.3c7.3,0.5,14.3-1,21.3-2.8  c2.2-0.3,4.5-0.2,6.6-0.9c6.4-2,10.4,0.1,12.5,6.5c1.3,4,3.2,7.9,4.4,12c1.5,5,3.7,8.6,9.7,9.4c3.9,0.5,7.7,1.8,11,3.9  c4.2,2.6,9.3,2.9,14.1-1.3c5-4.4,10.9-7.8,16.5-11.4c1.5-1,2.8-2.6,5.1-0.4c8.2,6.9,16.7,13.4,25,20c0,0.5,0.1,1,0.2,1.4  c0.1,0.2,0.1,0.4,0.2,0.5c0.1,0.2,0.3,0.4,0.6,0.5c-0.2-0.1-0.4-0.3-0.6-0.5c-0.1-0.2-0.2-0.3-0.2-0.5c-0.1-0.5-0.2-0.9-0.2-1.4  c4,3.6,5.6-2.7,9-2c0-3.1-1.7-4.2-4.6-4.6c-0.7,0-1.2-0.6-1.2-1.2c0-0.2,0.1-0.5,0.2-0.7c0.4-0.9,2.6-0.1,1.7-1.6  c-0.2-0.4-2.8-0.5-3.1,0.1c-1.8,2.9-3.7,1.8-5.6,0.3c-6-4.8-4.9-13.5,2.2-16.9c3.6-1.7,8.3-3.8,5.4-8.5c-3.9-6.2-2.9-12.3-1.5-18.6  c4.2-0.5,8.2-3.8,12.5-0.5l0.2-0.1c3.2-1.4,6.4-5.3,9.9,0.8c-2.6-6-7.4-12.7-1.4-16.9c10-7.2,10.5-6.2,15.6-2.3  c4.3,1.4,7.2,1,9.7-3.7c5.6-10.5,15-10.5,20.9-0.2c2.7,4.7,5.3,5.5,10.3,3c7.9-3.9,14.8-1.8,17.5,3.8c0.8,2,1,4.4,0.6,6.5  c-0.5,5.6,2.2,7.7,7.4,8c12.7,0.9,16.5,8.2,9.7,18.9c-2.7,4.2-1.2,6.5,2.1,7.9c3.7,1.5,5.3,4.8,7.5,7.5c3.3,4.2,0.7,10.9-5.5,14.3  c-5.1,2.8-7,5.7-3.3,10.8c5.4,8.2,1.3,17.5-8.2,17.4c-7.2,0-10.1,1.8-9.8,9.5c0.4,8.2-8.1,13.3-15.7,9.9c-5.5-2.5-9.8-1.9-13.3,3.4  c-5.5,8.4-14.6,8.2-19.6-0.4c-1-1.7-1.7-3.6-2.7-5.4l-1.2-0.8l-5.2,0.6c-2.6,2.2-5.8,3.4-9.2,3.1c-7.9-0.5-10.8-3-10-10.7  c0.7-7.2-2.6-9.2-8.7-9.3c-1.5,0-3.1-0.5-4.6-0.4c-2.3,0.2-4.4-5.5-6.4-1.2c-2.1,4.7-7.4,9.2-4.2,15.1c3.3,6.2,8,11.7,10.5,18.6  c0.9,2.7,3.4,4.4,6.1,4.4c3.5,0.2,6.8,1.6,10.3,2.6c0.2,0.8,0.4,1.7,0.4,2.6c0-0.9-0.1-1.7-0.4-2.6c0.2-0.1,0.4-0.1,0.7-0.1  c13.7,2,14,2,14.2,15.9c0.1,4.7,3.9,8.9,1.5,13.7c0.8,4.6,1.7,9.1,2.6,13.7c0.3,1.6-0.5,2.6-2.2,2.6c-6.3,3-12.7,6.1-19.4,8l0,0  c-3.1,1.6-5,3.4-5.6,7.7c-1,7-2.7,14.3-6.4,20.5c-1.7,2.9,2.1,3.4,1.6,5.5c3.1,3.8,6.2,7.6,7.8,12.3c-0.1,0.4-0.1,0.8-0.1,1.1  c0-0.3,0-0.7,0.1-1.1c0.1-0.6,2.6,11-1.9,16.7c-4.8,5.8-10,11.3-13.7,17.9c-3.6,6.3-8.2,7.7-14.1,3.2c-1.7,0.4-3.6-0.5-4.3-2.1  c0.5-0.4,1.1-0.6,1.7-0.7c-0.6,0.1-1.2,0.4-1.7,0.7c-0.4,0.1-0.8,0-1-0.4c-7.4-4.2-14.3-4.1-20.6,1.9c-2.2,2.1-4.9,1.3-7.4,1.6l0,0  l0,0c0.3,0.4,1,1,0.9,1.2c-0.5,0.9-1.2,0.6-1.8,0l0,0c-5,1-7.3,5.2-9.8,8.9c-1,1.4-1.7,1.5-3,1.2c1.4,3.4-1.8,12.3-4.4,15.5  c-4.8,6.3-13,3.2-18.5,7.8c-3.7,3.1-8.9,3.6-13.9,2.8c-0.2-2,0-4.1,0.8-5.9c0.2-0.5,0.5-1,0.9-1.5c-0.3,0.5-0.6,0.9-0.9,1.5  c-0.8,1.8-1.1,4-0.8,5.9c-9,3.7-10-4.4-11.4-9c-3.3-10.3-8.8-15.2-19.8-18.2c-11.8-3.3-21-3.7-30,5.1c-5.4,5.3-10.9,5.7-16.4-0.6  c-2.6-3-6.4-4.8-9.7-7l0,0c0-0.2-0.1-0.4-0.1-0.6c-0.5-1.3-1.4-2.5-2.8-3.2c-1-0.5-1.9-1.2-2.9-1.9l0,0c-3.8-1.7-7-4.4-9.4-7.8  c-0.6-0.8-0.6-2,0.2-2.9c0.8-1,2.1-1.7,2.5-3c0.1-0.3,0-0.7-0.1-1l-2.6-0.4h-0.1c0-0.3,0.1-0.6,0.2-0.9c4-2.7,4.4-7.4,6.2-11.1  c0-2.8,3.9-4.9,1.3-8.1l-5-8.3l-1.6-2.6c-0.4-1.7-0.8-3.5-2.5-4.6c-0.2-0.9-0.4-1.7-0.6-2.7c-2.6-9-10.1-8.3-17.1-8.8  c-0.4-0.2-0.8-0.3-1.3-0.3c-1.2-1.4-4.9,0-4.5-3.6l0.1-0.1l0.2-0.2l0.2-0.2l0,0l-0.2,0.2l-0.2,0.2l-0.1,0.1c-4.7,2-8,1.5-7.9-4.6  c-1.2-5.8-3.4-11.6-0.2-17.4c1.7-3.1-2.5-3.4-2-5.6c1.8-3,3.8-5.8,0-9c-3.1-2.7-2.6-5.3,1.2-7c4-1.9,8.1-3.8,12.1-5.6l1.3-0.2l1.5-1  l2.6-1.2c6.8,0,7.2-4.6,6.7-9.7c0.1-0.4,0.2-0.8,0.2-1.2l0.8-1.5c0.3-0.3,0.4-0.8,0.3-1.2l5.3-13.7c-3.7-8.2-9.3-15.1-14.3-22.4  c-1.8-2.6-1.8-3.8,0.2-6.2c7.3-8.8,14.5-17.8,21.2-27c2.8-3.7,5.2-4.3,8.8-1.9c0.2,0.1,0.4,0.2,0.6,0.3c7.7,3.2,16,9.8,22.7,8.5  c6.6-1.3,13.4-8.1,20.8-11.1c2.3-1,2.3-3.1,2.8-5c1.3-6.7,2.8-13.4,4-20.2C724,404.5,726,402.5,730.3,403.3L730.3,403.3z   M652.8,540.1c2.9-0.2,2.6,3.7,5,3.9c0.3-1.8,0.5-3.8,0.5-5.6c0-0.6-1.1-1.7-1.5-1.6c-1.4,0.3-2.9,0.9-4.2,1.6  C652.5,538.4,652.8,540.1,652.8,540.1z M642.2,540.1c0,0.6-0.2,1.3-0.4,1.9l-0.1,0.4c0,0.2-0.1,0.3-0.2,0.5  c-0.1,0.2-0.1,0.4-0.1,0.5s0,0.3,0,0.4c0,0.5,0,0.9,0.2,1.3v0.1l-0.1,0.3l-0.1,0.3l0,0l0.3-0.5c1.9-0.4,3.7-1.1,5.4-2l1-0.5l1.4-0.7  l0.2-0.1c0.5-0.2,1-0.7,1.2-1.2c0.1-0.2,0.1-0.5,0-0.7c-0.1-0.3-0.2-0.6-0.3-0.8c-0.4-0.8-1-1.2-1.5-1.2H649  c-0.6,0.2-1.1,0.6-1.3,1.2c-0.2,0.5-0.5,0.9-0.8,1.4c-0.1,0.2-0.3,0.3-0.5,0.4c-0.1,0.1-0.3,0.1-0.5,0.1c-0.2,0-0.3-0.1-0.5-0.2  c-0.2-0.1-0.3-0.2-0.5-0.4c-0.2-0.2-0.3-0.4-0.5-0.6c-0.2-0.3-0.5-0.7-0.7-1.1c-0.4-0.6-0.8-1-1.1-0.9c-0.3,0.1-0.5,0.5-0.4,1.6  C642.2,539.8,642.2,539.9,642.2,540.1L642.2,540.1z M657.8,544.1L657.8,544.1c-3.9,3.4-8.6,5.6-13.7,6.4c-4.9,0.7-9.1,3.5-14,4.2  c-1.7,0.2-2.1,1.5-1.3,3.1c1.4,2.5,0.5,5-0.3,7.6c9.2-0.9,16.1-7.7,25.3-6.9c3.1,0,5.9-1.3,7.9-3.6l0,0l0,0c0.6-1.8,1.6-3.8,1.7-5.6  C663.6,545.4,662.8,542.2,657.8,544.1L657.8,544.1z M679.3,581.9l-0.7-2.3c-3-1.7-7.7-0.7-8.5-5.7h-2.8c0,1.9-1.9,1.6-2.8,2.7  c-0.1,2.6-0.2,5.2,3.8,3.7c2.9-1.1,4.4,0,4.9,3c2.3,0.6,4.1-1.1,6.2-1.2H679.3z M887.1,421.6c-2.8,11,4.3,17.4,11.2,23.8  c0.6,0.9,1.6,1.4,2.8,1.3c18.2,13.1,40.7-1,44.6-19.7c2.7-12.5-1.7-23.2-12.7-30.7c-10.5-7.3-21-7.4-32-1.1  c-9.6,5.5-16.1,17.5-14,26.3V421.6z M841.7,627.4c3.7-6.1,5.7-12.1,10.4-15.8c1.2-0.9,4.5,0.6,2.3-3.3c-1.5-2.9-3.5-2.6-5.1-1.5  C839.5,612.7,838.1,610.6,841.7,627.4z M695.9,569.7c0.2-0.2,0.4-0.4,0.5-0.6C696.3,569.3,696.1,569.5,695.9,569.7  c-0.6,0.6-1.3,1-2.1,1.2C694.6,570.7,695.3,570.3,695.9,569.7L695.9,569.7z M697.5,577.3c-0.5-0.1-0.9-0.1-1.4-0.2  C696.5,577.2,696.9,577.2,697.5,577.3c0.5,0.1,0.9,0.1,1.4,0.1C698.5,577.4,698,577.4,697.5,577.3z M745.9,607.2  c0-0.1-0.1-0.2-0.1-0.3C745.9,607,745.9,607.1,745.9,607.2L745.9,607.2z M749,608.9c-0.2,0-0.5,0-0.7,0  C748.5,608.9,748.8,608.9,749,608.9L749,608.9z M765.6,664.9c-0.2,0.1-0.4,0.3-0.6,0.5C765.2,665.2,765.4,665,765.6,664.9  L765.6,664.9z M782.2,611.6c0-1.8-1.2-1-2.1-1c-0.1,0-0.2,0.5-0.2,0.8L782.2,611.6z M793.5,611.6h-11.1  C785.9,615.1,789.7,613.8,793.5,611.6L793.5,611.6z M792.3,645.8c-1.6,2.3-3.4,4.5-1,6.8c0.9,0.9,3.4,1.4,3.5,0.5  C795.1,650.5,794.2,647.7,792.3,645.8L792.3,645.8z M794.4,634.2c-0.1,0.1-0.1,0.1-0.2,0.1C794.2,634.3,794.3,634.3,794.4,634.2  L794.4,634.2z M798.4,647.9c-0.1-0.4-0.1-1.1-0.8-0.2L798.4,647.9z M809.1,634.7c-4-6.8-9.7-5.4-14.9-5.1c-1,0.1,0.7,1.1,0.8,1.8  h0.1l0,0l5.6-1c1.5,2.3-4.4,2.8-0.7,6C805.3,641.4,804.7,631.4,809.1,634.7L809.1,634.7z M810.6,614.2l-12.8-1.3  c3,1.5,5.1,4.5,8.7,4.2l-1.8,2.8l1.8-2.8C807.8,616,809.9,616.1,810.6,614.2L810.6,614.2z M815.7,597.4c-0.3-0.2-0.7-0.3-1.1-0.4  c-1.3-0.1-2.8-0.2-4.2-0.2l-8-1.4l0,0c0,0.2,0,0.3,0,0.5c0.1,1-0.1,2-0.5,2.9c-0.1,0.1-0.2,0.3-0.4,0.4c-0.2,0.2-0.4,0.4-0.6,0.6  c-0.5,0.5-0.6,1.3-0.1,1.8c0.1,0.1,0.2,0.2,0.3,0.3c0.2,0.2,0.5,0.4,0.7,0.5c0.4,0.2,0.8,0.3,1.2,0.4c0.4,0,0.7-0.2,0.9-0.6  c0.1-0.2,0.2-0.3,0.3-0.5c1.1-1.6,3.2-1.9,4.7-3c0.7-0.4,1.2-1.1,1.5-1.9c1.4,0,2.8,0.1,4.2,0.2C815,597,815.4,597.2,815.7,597.4  L815.7,597.4z M805.7,481.4L805.7,481.4z M798.4,477.8L798.4,477.8z M775.6,471.4c-0.2,0.6-0.4,1.3-0.6,2  C775.2,472.7,775.4,472,775.6,471.4L775.6,471.4z M712.7,495.7l-0.3,0.3c-4.5,3.9-8.8,7.9-9.8,14.2v0.2  c-8.8,10.6-10.4,23.2-9.3,36.3c0.6,6.6,2.7,13.1,4.1,19.6l0,0l3.7,5.9l0.9,1.6l0.3,2.6c-0.6,0.4-1.3,0.7-2.1,0.8  c0.7-0.1,1.4-0.4,2.1-0.8l0,0l11,13.3l0,0c6.8,5.2,14.3,9.4,21.8,13.6c-2.5,0.6-4.8,1.2-7.2,1.7c2.3-0.5,4.8-1.1,7.2-1.7l10.5,3.1  l0,0l1.3-0.3l5.3,0.3c18.3,2.9,34-3.5,48.5-13.8c1.3-3.6,5.3-4.8,7-8.1c15.5-18.4,19.9-39.1,13.3-62.2c-2.9-9.2-6.6-17.7-15-23.3  c-1.1-0.8-2.1-1.6-1.8-3.2c0.6-3,2.2-0.8,3.5-0.6c1.5,0.2,2.5-0.3,2.7-2c0.2-2,0-3.6-2.6-3.3l-0.2-2.2c0.2-1.5,0-3.2-0.7-4.6  c-0.1-0.3-0.3-0.5-0.5-0.8c0.2,0.2,0.3,0.5,0.5,0.8c0.7,1.4,0.9,3.1,0.7,4.6c-1.7-3.3-3.6-6.3-9.6-1.9c5.7-1.1,6.1,4.1,9.8,4.3  c-0.1,1.5-0.2,3.6-2.3,2.2c-1.6-0.9-3.5-1.4-5.4-1.6c-2.9,0.6-2.6-4.4-5.8-3.2c-3.4-0.3-4-3.2-5.1-5.5c-0.5-1.1-0.5-3.6,1.1-2.8  c4.8,2.3,3.9-1.3,4.2-3.6c0.4-3.2-0.8-5.3-4.4-5.5c-2.1-0.1-4.2-0.7-1.4-3.2c5.1-0.6,6.8,1.9,7.8,5c0.1,0.2,0.1,0.4,0.2,0.6  c-0.1-0.2-0.1-0.4-0.2-0.6c-1-3.1-2.7-5.6-7.8-5c0.2-0.4,0.3-0.8,0.4-1.3c-0.4-0.2-0.6-0.5-0.6-0.9l0,0l-0.2-0.1l-1.9-4.4  c-1,4.9-2.6,8.8,2.2,13.6c-7.7-3.7-9.9,3.6-14.7,4c0.2-1.1,0.4-2.1,0.6-3.2c-0.2,1-0.4,2.1-0.6,3.2c-1.6,0.5-2.9-0.4-4-1.3  c-8.2-0.9-16.2-0.2-24.3-0.1C733.3,480.3,721.7,485.7,712.7,495.7L712.7,495.7z M634.5,572.7l0.2-0.2L634.5,572.7z M285.4,149.5  l21.1-1.3v-26.6l-7.3,0.4c0.8,1.8,1,3.9,0.6,5.8c-0.4,1.4-2.2,1.6-3.5,1c-1.8-1-4.4-1.8-3.5-4.7c0.2-0.6,0.3-1.1,0.4-1.7l-8.1,0.5  L285.4,149.5z M418.2,81.5h-3.7c-2.7-2.2-5.6-4.2-5.3-8.6c0.2-2.7-2.5-2.6-4.3-3.2c-4.6-1.5-8.4-3.7-5.3-9.7c1.1-2.1,0.5-4.4-1.5-6  c-1.4-1.1-3.2-2.6-2.6-4.4c2.3-6.3,5.3-12.6,4.5-19.7c0-0.2,0.2-0.6,0.3-0.6c7.6-0.2,8.5-9.8,12.6-10.8c6.3-1.5,12.8-2.9,18.9-5.2  c1.1-0.1,2.1,0.4,2.9,1.2c2.7,4.1,6.6,4.1,10.7,3.5c3.7-0.5,6.1,0.5,6.3,4.7c0.1,2.8,1.4,4.5,4.3,5.1c5.2,1.1,8.1,3.9,5.4,9.5  c-1.3,2.9,0,4.5,2.1,6.1c3.8,2.9,3.7,6.5,0.4,9.6c-2.6,2.5-3.3,4.8-2.5,8.3c1,4.4-0.1,8.2-5.6,8.4c-3.3,0.2-4.1,2.1-4.5,4.8  c-0.6,3.5-2.8,6.7-6.1,5.5c-4.7-1.7-7.6-0.5-11,2.7c-3,2.7-6.4,2.6-9.3-1.2C423.1,79,420.5,76.2,418.2,81.5L418.2,81.5z M430.3,64.1  c8.8,0.1,17.3-7.7,16.4-15.9c-0.7-7-6.1-15.2-15.7-15.3c-8.6-0.1-16.7,7.6-16.7,15.8C414.4,57.3,421.3,64,430.3,64.1L430.3,64.1z   M857.2,440.2c-0.1-0.2-0.2-0.3-0.2-0.5C857,439.9,857.1,440.1,857.2,440.2z M762.8,668.2c0.2-0.5,0.5-1,0.9-1.5  C763.3,667.1,763,667.6,762.8,668.2z M679.8,686.1l-0.1-1.3c0.6-0.9,0.9-2.3,1.7-2.8c5.4-2.1,6.9-4.8,2.2-9.6c-2-2,0-3.8,2.2-4  c2.1-0.1,4.3,0,6.3,0.3c0.8-1.4-0.3-2.1-0.9-3c-1.5-1.7-1.5-4.3-0.2-6.1c1.4-1.7,4.1-1.6,6,0c1.2,1,2.5,0.7,3.8,0.4  c0-1.4-0.8-3.2,1.2-4c0.5-1.3-0.6-3.6,1.5-4c3.1-0.7,3.9,2.5,5.6,4l0,0c0.4-0.1,1.1,0,1.3-0.2c2.7-4.4,4.5-11.8,10.5-2.6  c0.2,0.4,1.8,0.3,2.6,0c5.1-2.3,8.2-1.8,7.4,4.8c-0.3,2.3,0.6,2.8,3.2,2.2c3.8-0.7,10.7-3.1,5.5,5.7c-0.9,1.5-1.2,3.7,2.2,2.8  c2.2-0.6,4.6,0.4,5.8,2.3c1.3,2.5-1.1,3.5-2.6,4.7c-2.9,2.6-1,3.6,1.3,4.6s5.6,1.3,4.5,5.3c-1.2,0.5-2.5,1.1-3.7,1.6  c-2.8,1.1-4.6,1.7-1.4,5.2c3.4,3.6,1.6,6.8-3.3,6.4c-4.2-0.3-3.3,1.4-2.7,3.9c1,4.2,0.9,7.6-5,5.7c-6.3-1.9-1.9,5.5-5.4,6.1  c-2.1,2.6-4.1,1-5.4-0.7c-2.1-3-3.5-0.9-5,0.5c0,2.3-0.4,4.5-3.6,4.1c-4.2-0.5-4.1-3.6-4.1-6.6l-2.1-0.2l0,0c-1.4,3.3-4,4.9-7.4,3.8  c-3.4-1.1-1.8-4.4-1.9-6.7c-1.3-1.5-2.6-0.2-3.7,0c-6,0.7-7.2-0.8-4.7-6.5c0.6-1.2,0.7-2.6,0.4-3.9c-1.8,0-3.6,0-5.4-0.2  c-3.2-0.2-4.3-2.1-2-4.4c5.4-5.4,1.4-6.1-3.1-6.9C681,686.9,680.4,686.5,679.8,686.1L679.8,686.1z M701.2,671.4  c-0.2,0.1-0.4,0.2-0.6,0.3C700.8,671.6,701,671.5,701.2,671.4L701.2,671.4z M700.8,676.4c-3.8,13.5,1.6,22.3,15.2,24.7  c2.1-0.5,4.3-1.2,6.3-2.1c5.2-2.9,9.6-6.3,10.1-13.1c0.8-10.3-6.7-20.4-21.8-17.8c-0.4,0.2-0.8,0.2-1.2,0.2l-4.3,2.6  c0-1.4,1.1-2.6,2.6-2.7c0.1,0,0.2,0,0.3,0c-1.4-0.1-2.7,0.9-2.8,2.3c0,0.1,0,0.2,0,0.3c-0.1,0.2-0.4,0.3-0.7,0.2L700.8,676.4  c-1-1.8-1.2-3.2-0.9-4C699.6,673.4,699.8,674.7,700.8,676.4L700.8,676.4z M391.5,614.5c-4.6-5.8-6.5-13.2-10.6-19.9v-24.4  c3.7-1,7.2-2.6,10.3-4.6c1.5,0.6,4.5-0.7,5.6,0.5c-1.1-1.2-4.1,0.1-5.6-0.5c9-5.7,14-14.2,16.9-24.1c1.8-4,1.8-8.4,1.2-12.5  c-1-7.6-2.3-15.3-9.3-20.2c-1.4-5.9-5.9-8.7-11-10.7c-2.6-1.2-5.2-2.3-8-3.2v-24.7l9.3-19.8c0.6-1.3,3-3.4-1.1-2.9  c0-0.9,0.3-1.8,0.8-2.7c-0.5,0.8-0.8,1.7-0.8,2.7c-2,3.3-5,3.7-8.1,3.9v-46c1.8,2.9,4.2,5.4,6.9,7.5c8.6,7.6,18.2,10.6,29.4,6.8l0,0  c4.9-2.1,11.2-1.7,13.6-8.1c0.3,0,0.7-0.1,1-0.1c12-13.7,12.7-28.1,3.1-43.3c1.8,0,3.6,0.7,4.9,1.9c0.1,0.1,0.3,0.3,0.4,0.5  c-0.1-0.2-0.3-0.3-0.4-0.5c-1.3-1.2-3.1-1.9-4.9-1.9c-16.5-18.1-38.6-14.9-50.6-1.3c-1.3,1.4-2.5,3.1-3.5,4.7v-38.3l7.5-4.8  c4.8,2.2,5.6,1,9.5-5.3c0.3-0.5,0.6-0.9,0.9-1.3l9.1-5.8c4.2-0.4,8.5,1.8,11.4,7c3.5,6.2,6.5,7.8,13.2,3.9  c9.1-5.3,18.5,0.7,18.7,11.1c0,2,0,4.1,0,6.1c-0.2,0-0.4-0.1-0.6-0.1c-0.2-0.1-0.4-0.1-0.5-0.2c-0.3-0.1-0.6-0.3-0.8-0.5  s-0.4-0.4-0.5-0.7c0.1,0.2,0.3,0.5,0.5,0.7c0.2,0.2,0.5,0.4,0.8,0.5c0.2,0.1,0.3,0.1,0.5,0.2s0.4,0.1,0.6,0.1l2.7,2.7  c9.8-0.6,17.8,1.6,20.2,12.8c0,2.1-0.7,4.3-2,6c-2.8,0.3-2.6,3.6-4.6,4.5c-0.1,3,0.4,5.7,2.7,8l0.5-0.2h0.5l1.6,0.6l8.2,3.2l0,0  c1.4,9.7-0.8,17.4-11.7,19.8l0,0l-0.5-0.6l0.5,0.6c-2,2.9-1.6,5.3,0.3,8.4c4.9,7.9,2.9,15.9-4.9,20.9h-8.1c-5.9-1.3-5.3,2.8-5.4,6.4  c-0.1,8.7-4.4,14.2-12.5,16.2c-1.7-0.3-3.9,0.4-5-1.6l-7.3-4.8l0,0c-6.5,1.3-6.5,8.4-10.4,12c-5.3,1.9-10.6,2.6-15.8-1.2l-4.3,19  l-4.3-0.1l4.3,0.1c5.2,1.5,5.5-4.7,9.2-5.7c0.3,2.6,1.7,2.9,3.5,3c0.7,0,1.5,0,2.2,0.1c0.3,0.1,0.7,0.2,1,0.3  c-0.3-0.2-0.7-0.3-1-0.3c-0.7-0.1-1.5-0.1-2.2-0.1c-1.6-0.1-3.2-0.4-3.5-3l5.1-5.3c1.6,0.4,3.5-0.2,5.2,0.2c0.2,0.1,0.5,0.1,0.7,0.2  c-0.2-0.1-0.5-0.2-0.7-0.2c-1.7-0.4-3.6,0.1-5.2-0.2l5.7-6.6c8.9,1.7,9.8,3.8,5.8,11.3c-3.2,5.9-6,12.1-9.4,18.8  c6-2.2,11.8-5.1,17.2-8.7c1.2-0.5,2.5-1,3.7-1.5c2-0.7,3.8-4,6.2-0.9c2.1,2.7,5.4,5.1,2.2,9.1c-2,1-3.3,3-5,4.3  c-3.8,3.1-5.7,8.2-11,9.4c-0.3,1.5-3.4,1.1-2.5,3.4c0.7,1.6,2.6,2.3,4.2,1.6c0.1-0.1,0.3-0.1,0.4-0.2c5.3-2.8,11-3,16.7-3.9  c8.8-1.4,8.8-1.5,9.7,7.2c-0.2,0.4-0.3,0.8-0.3,1.2l-1.5,0.7l-2.5,1l-20.3,10.2c9.4,1.1,17.9,5.4,27,4.4l0.1,0.1  c0.7,9.8,0.7,9.8-8.6,11.3c-2.3,0.4-4.8,0.6-7.2,1h-0.4h0.4l0,0c-3.1,2.6-7.7-0.1-10.7,3.1c5.5,3,10.9,6.2,16.7,8.7  c2.5,1,4.9,4.7,8.3,1.7l-1.2,9.2c-6.1,2.7-16.9,0.4-19.2-4.1c-4.2-3.3,0-6.3,0.3-9.4c-7.6-0.2-9.9,1.9-10.9,8.9  c-0.4,2.9,1.2,8-5.1,6.5c-1.2-0.3-1.6,0.8-1.5,1.6c0.7,3.9,6.5,5.6,4.6,10.7c0.6,0.1,1.4,0.4,1.8,0.2c5.4-3.8,10.3,2,15.8,0.7  c2-0.5,3.9,2.5,2.6,4.8c-1.7,3.2-4.1,6.2-8.6,4c-4.7-2.5-9.4-5-14.1-7.4c-2-1-3.9-3-6.4-1.6c3.2,4.8,3.9,10.8,6.8,15.8  c-0.2,1-0.5,2.1-1,3.1v-0.1l0,0c-1.4,0.6-3,0.8-4.5,0.8h-0.7c-2.1-0.1-4.2-0.6-6.2-0.6l-10.4-9.5c-1.2,6.5,1.7,11.7,2.1,17.2  c0.2,3,1.6,5.9-3.1,6.7c-3,0.5-0.5,3-1,4.4c-0.3,1.1-0.7,2.3-1.9,2.5C391.8,616.9,392.1,615.2,391.5,614.5z M434.8,538.5  c1.1,0,2.3,0,3.6,0.1C437.2,538.5,436,538.5,434.8,538.5L434.8,538.5z M427.7,539.6c0.7-0.2,1.4-0.4,2.1-0.5  c1.6-0.3,3.3-0.5,4.9-0.5c-1.6,0-3.3,0.2-4.9,0.5C429.1,539.1,428.4,539.2,427.7,539.6L427.7,539.6z M412.2,575.1l1,1.3  c1-0.7,0.2-1.2-0.2-1.8C412.7,574.7,412.4,574.9,412.2,575.1z M441.4,372.6c-0.1-0.2-0.2-0.5-0.3-0.7  C441.2,372.1,441.3,372.3,441.4,372.6z M390.2,444.3c-0.1,0.1-0.2,0.2-0.2,0.3C390,444.6,390.1,444.5,390.2,444.3z M394.3,571  c0.9,3.3,4,3.6,8.8,0.8c-1.6-1.8-4.1-1.3-6-2.2C395.9,569.8,394.7,569.8,394.3,571L394.3,571z M807.1,483.1  c-0.1-0.3-0.3-0.5-0.5-0.8C806.8,482.6,807,482.9,807.1,483.1z M307.8,98.1l-37.9,3.4c-4.5-2.3-9.5-3.6-14.6-3.6c-2,0-1.7-1.4-2-2.7  c-0.9-2.8-2.3-5.2-5.2-6.4c-6.1,2.8-6.1,2.8-1.3,6.2c2.1,1.5,1.7,4.4-1,5.9c-5,2.8-10,1.8-15.7-0.4l9.1-5.6  c-6.1-1.8-10.7-7.8-17.4-2.8c-2.3-3.3-6.6-2.7-9.3-4.5c-3.1-2.2,2.3-1.3,1.8-3.3c-1.2-1.6-3.3-1.1-4.9-1c-2.9,0-3.4-1.3-3.3-3.7  c0.1-2.3,1.6-2.8,3.6-3c2.5-0.2,4.2,1.3,6.3,1.9c7.4,2,12.4-1.9,12-9.6c-0.1-2.6-1.4-5.7,1.4-7.3c3.4-1.8,4.9,1.4,7,3.3  c7.4,6.2,12,5.1,15.8-3.5c1.2-2.7,1.8-5.6,5.8-5.4c3.7,0.1,3.3,3.3,4.1,5.3c3.9,8.7,8.8,9.6,16.1,3c1.8-1.6,3.9-4.1,7-2.6  s2.1,4.3,2,6.5c-0.5,4.1,1,8.1,4,10.9l0,0c3.9,1.9,7.3,0.2,10.6-1.4c2.8-1.3,4.9-1.7,6.5,1.4c0.5,4.3-3.6,6.7-4.3,10.6  c-0.4,1.8,0.4,2.8,0.7,4.1C306.5,94.7,306.9,96.6,307.8,98.1z M232.3,87.3c-3.2-0.7-6.1-2.9-9.8-1.3C226,85.1,228.7,88.6,232.3,87.3  z M245,145.2c2.5,1.4,5,2.5,7.8,3.1l0.4,32.6c-1,0.5-2,1.2-3.3,2c-0.2,0.2-0.4,0.4-0.6,0.6c-0.4,0.3-0.8,0.8-1.1,1.2  c-2.3,5.9-5.3,5.6-8.8,0.9l0,0c-1.1-12-5.8-14.6-15.8-8.5c-1.9,1.2-4.3,1.4-6.4,0.5c-2.5-0.9-0.8-3.6-1.2-5.4c0-0.9,0.1-1.7,0.4-2.7  c1.7-8.2-1.2-11.5-9.6-11.3c-2.8,0.1-6.1,1.9-8.1-1.2c-2-3.5,1-5.7,2.8-8.2c2.8-3.8,3.9-7.5,0.6-11.5c-2.6-1.9-5.6-2.6-8.6-3.6  c-1.7-0.6-4.2-0.8-4-3.7c0.1-2,1.3-3.9,3.2-4.8c11.3-6.1,11.6-9.6,1.9-18.3c-1.4-1.3-2.3-3.2-2.6-5.1c3.3,0.1,5.6-3,9-2.9  c2.8,0.1,2.7,1.9,2.7,3.7c-0.1,4.7,2.7,8.6,3.1,13.4c3.3-1.9-1.3-7,3.6-7c3.7,0,5.6,2.2,5.8,6.4c0.2,3.9,3.1,1.8,5.1,1.2l1-1.5  c2-2,2.9-1,2.9,1.3c3.5,0.2,8.2-2.3,7.3,5.1C231.2,132.2,236.3,139.9,245,145.2z M224,116.9L224,116.9L224,116.9z M315.5,42.5  c-0.3,0.7-0.5,1.4-0.6,2.1c-0.4,2.6,0,5.1,1.2,7.4c0,3-2.2,4.1-4.2,5.6c-7.5,5.7-7.6,14.4-0.3,20.1c2.6,2,5,3.9,4.1,7.7  c-1.7,1.6-1.1,3.3-0.1,4.9l-0.2,2c1.9,0.7,3.5,2.1,4.2,4.1c0.1,0.2,0.2,0.4,0.2,0.5l3.9-0.3l0.5-60.9  C320.6,36.2,318.6,37.9,315.5,42.5L315.5,42.5z M315.5,92.3c0.5,1.6,0.6,3.3,0.5,5l3.9-0.3c-0.1-0.2-0.1-0.4-0.2-0.5  C319,94.5,317.5,93,315.5,92.3L315.5,92.3z M215.8,99.1c2,0.4,3.1-1.6,3.2-3.5c0.1-1.8-1.6-2.1-3.3-2.6c-6-1.5-7.8,1.4-7.8,8  C210.8,99.5,213.1,98.6,215.8,99.1z M248.2,184.8c0.3-0.5,0.6-0.9,1.1-1.2C248.9,183.9,248.5,184.3,248.2,184.8  c-2.3,5.9-5.3,5.6-8.8,0.9l0,0C242.9,190.3,245.9,190.6,248.2,184.8L248.2,184.8z M648.1,542.8l-1,0.5L648.1,542.8z M802.6,595.3  c0,0.2,0,0.3,0,0.5C802.6,595.6,802.6,595.5,802.6,595.3z M801,599.7c-0.5,0.5-0.6,1.3-0.1,1.8c0.1,0.1,0.2,0.2,0.3,0.3  c-0.6-0.4-0.8-1.2-0.4-1.8C800.8,599.9,800.9,599.8,801,599.7L801,599.7z M809.1,598.7c0.7-0.4,1.2-1.1,1.5-1.9l0,0  C810.3,597.6,809.8,598.2,809.1,598.7L809.1,598.7z M642.3,540c0,0.6-0.2,1.3-0.4,1.9C642.1,541.3,642.2,540.7,642.3,540z   M802.1,598.7c0.4-0.9,0.6-1.9,0.5-2.9C802.7,596.9,802.5,597.8,802.1,598.7L802.1,598.7z M730.3,403.3L730.3,403.3z M642.6,538  c-0.3,0-0.5,0.5-0.4,1.6C642.1,538.5,642.3,538.1,642.6,538z M471.9,365.3c1.3-1.7,2-3.8,2-6C474,361.5,473.2,363.7,471.9,365.3z   M681.4,269.8L681.4,269.8c-0.4,0.8-0.5,1.7-0.3,2.6C680.9,271.5,681,270.6,681.4,269.8z M679.7,686.1L679.7,686.1l-0.1-1.3  L679.7,686.1z M700.5,216.6c-0.5,0.8-1,1.6-1.6,2.5C699.4,218.2,699.9,217.4,700.5,216.6z M419,595.3c-1.4,0.6-3,0.8-4.5,0.8  C416,596.1,417.6,595.8,419,595.3z M419,595.3L419,595.3L419,595.3z M472.6,378.3l8.2,3.2l0,0L472.6,378.3z M630.9,189.8  L630.9,189.8L630.9,189.8L630.9,189.8L630.9,189.8z M711.8,203.5L711.8,203.5c-5,3.4-8.1,8.3-11.2,13.2  C703.7,211.8,706.7,206.7,711.8,203.5L711.8,203.5z M674.3,643.6c0.1,0.2,0.1,0.4,0.1,0.6l0,0C674.4,644,674.4,643.8,674.3,643.6z   M645,540.7c0.1,0.1,0.3,0.3,0.5,0.4C645.3,541,645.1,540.8,645,540.7z M645.5,541.1c0.1,0.1,0.3,0.1,0.5,0.2  C645.7,541.2,645.6,541.1,645.5,541.1L645.5,541.1z M668.8,638.6L668.8,638.6c0.9,0.7,1.8,1.3,2.9,1.9  C670.6,640,669.7,639.4,668.8,638.6z M659.3,623.6L659.3,623.6z M641.4,546L641.4,546l0.1-0.3L641.4,546z M661.9,625  c-0.2,1.2-1.5,1.9-2.5,3C660.3,627.1,661.7,626.3,661.9,625z M651,540.8c-0.2,0.5-0.7,1-1.2,1.2C650.3,541.7,650.8,541.3,651,540.8  L651,540.8z M641.4,543.4c0,0.1,0,0.3,0,0.4C641.4,543.7,641.4,543.5,641.4,543.4z M649,538c-0.6,0.2-1.1,0.6-1.3,1.2  c-0.2,0.5-0.5,0.9-0.8,1.4c0.3-0.4,0.6-0.9,0.8-1.4C647.9,538.6,648.4,538.1,649,538L649,538z M651,540.1c0.1,0.2,0.1,0.5,0,0.7  C651.1,540.5,651.1,540.3,651,540.1L651,540.1z M650.7,539.1c0.1,0.3,0.2,0.5,0.3,0.8C650.9,539.8,650.8,539.4,650.7,539.1  c-0.4-0.8-1-1.2-1.5-1.2C649.7,537.9,650.3,538.3,650.7,539.1L650.7,539.1z M641.6,542.9c0-0.2,0.1-0.4,0.2-0.5  C641.7,542.5,641.6,542.7,641.6,542.9z M641.6,545.3L641.6,545.3L641.6,545.3L641.6,545.3z M646.9,540.6c-0.1,0.2-0.3,0.3-0.5,0.4  C646.6,541,646.7,540.8,646.9,540.6L646.9,540.6z" /><path
     id="_x23_124C6F"
     class="st2"
     d="M374,253.1l1.8,1.9V288h-14.1v-32.4l2-2.3L374,253.1z M379.4,255.5V288h22.3v-31.6l-1.8-1.9  l-18.4-1.3L379.4,255.5z M348.2,252.3c2.9,3,5.2,6.2,7.2,9.9v-7.4l-2.7-2.3L348.2,252.3z M302.4,251.9v35.7h19.8v-35.2l-1.4-1.6  l-16.8-0.8L302.4,251.9z M420.3,256.4v-2.6l1.4-1l0.2-4.3l-20.9-1.9c-5-4.3-9.3-9.3-12.7-15c-3.3-5.3-5.5-11.2-6.6-17.4l0.1-21.8  c2.9-14.4,11.6-27,24.2-34.5c20.6-12.5,40.9-10.5,60.9,1.1c2.1,3,3.5,6.8,8.2,6.7c9.5,13.2,15,27.3,13.8,44.1  c-1.5,22.4-22.2,44-43.9,47.3C436.9,258.6,428.5,258.3,420.3,256.4z M430.7,238.6L430.7,238.6c2.6,1.6,5.8,1.6,8.3-0.1  c1.8-0.3,4,0.8,5.4-1.1c1.9-0.5,3.9-0.9,5.7-1.5c11.6-4.4,24.2-22,19.5-37.4l-0.2-3.7c-0.4-3.9-2.1-7.6-5-10.3  c-8-12.4-19.3-17.4-33.7-15.9c-12.5-0.5-26.5,11.8-29.9,26.6c-1.1,0.7-1.2,1.7-0.9,2.9v1.3C396.2,219.5,414.5,238.3,430.7,238.6  L430.7,238.6z M603.7,726.8c-0.9-0.5-1.8-1-2.8-1.4l0,0c0-1.5,0-3.1,0-4.5c-0.4-3.2,1.1-6.3,0-9.5c-3.8-2.5-7.9-1-11.7-0.9  c-1.9-0.2-4.2-0.1-4.4-3l-1.2-1.5l1.3-1.8c1.5-6.7-3.2-11-11-10l-2.3,0.1l-0.5-0.5l-0.3-0.7c0-0.1,0-0.2,0-0.3l0,0  c-0.1,0.1-0.3,0.1-0.5,0.1c-0.2-0.3-0.4-0.6-0.6-1c0,0,0,0,0-0.1c-0.2-0.5-0.3-1-0.3-1.5c0.2-1.2,1.4-2.1,3.9-2.9  c3.1-0.9,5.2-3.3,4.6-6.2c-0.6-3-0.3-7.2-5.2-7.5c-3.9-0.2-8-1.3-6.2-6.3c1.3-3.8,5.4-2.8,8.7-2.2c1.7,0.2,3,1.9,5.6,1.2  c-2-1.8-3.3-3.8-2.1-6.2c2.5-5-3.1-7.5-3.9-11.4c-0.1-0.5-3.1,0.5-2.7-1.5c0.3-1.5,1.9-2.6,3.6-2.7s4-0.6,5.2,0.2  c3.3,2,4.7,0.5,6.4-1.9c1.7-2.5,4-4.8,1.4-7.5c-1.9-2-0.5-7.9-5.8-5.9c-3.6,1.3-5.4-5.4-9.4-1.3c-1.6,1.6-4,0.2-5.7-0.5  c-4.2-1.5-7.2-0.7-9.9,2.9c-2,2.6-3.3,6.1-8,5.9c-2-0.1-2.6,2.9-1.9,4.9c1.3,4.1-1.6,3.7-3.6,4.4c-1.8-2,3.5-4-0.5-5.6  c-3.9-1.5-3.6,0.7-3.2,3.3c0,0.2,0,0.4-0.1,0.5c-4.1-0.5-8.4-1.8-12.2,0.5c-3.8,2.3-4.2,2.2-8.9-4.4c-1.5-2.1-4.4-3.1-4.9-6.1  c-0.8-5,2.3-9.3,8.7-11.1c1.9-0.4,3.9-1,5.8-1.7c-2.6-0.1-4-3.6-6.8-1.9c-2.9,1.6-4.2-1.2-7.2-2c3,5-1.5,7.8-2.6,11.8l-8.2-5.9  c-1.2,5.1-3.2,6.8-6.8,0c-0.5,6.3-6.1,3.5-8.3,6.4c-0.1,0.1-0.6,0-0.6,0c-1-3.3-2.9-3.2-6.1-3.2c-3.3,0-5.3-4.2-7.8-6.8  c-5.8-6.5-5-14.1-3.1-21.5c1.5-5.7,0-9.2-4.9-11.7c-0.4-0.2-0.6-0.7-1-0.9c-10.2-4.6-12.8-13.1-11.8-23.4l1.2-9.2  c4.5-5.3,11-8.1,15.7-13c3.1-5,0.3-9.7-0.8-14.5c0.1-0.4,0-0.9-0.3-1.2c0.7-4.4-1.3-9.5,3.6-12.8l0.2-0.2l0.9-1.7  c7.4-8.3,16-12,27.1-8c5.3,1.9,8.2-1.6,12.4-4.5c4.2-2.9,6.7-5.1,7.2-10c0.1-1.5,2.1-1.8,3.7-2.3c11.7-3.9,22.7-1.1,29.1,9  c5,7.9,10.8,9.6,19.5,7.5c15.7-3.9,29.2,10.5,25.7,26.6c-1,4.5-2.2,9.3,0.4,13.8c-5.2,2.3-13-0.6-15.7,6.3c-1.6,4.2-1.5,9-4,13.1  c-1.7,0.9-1.1,2.6-1.3,4c2,0.8,1.3,2.2,0.7,3.6c-1.9,1.8,0.2,3.1,0.5,4.6c0.5,1.8,0.2,4.4-2,3.8c-5.1-1.6-6.1,2.9-8.8,5  c-1.6-1-0.2-2.2-0.2-3.5c1.5-4.4,3.5-8.7,2.8-13.6l1.3-1.2c2.1,4.8,2.8,5,5.5,1.2l-2.6-1.3c0-2.8-4.7-1.9-4-5.2l0,0l0.9-1l-0.9-0.2  c-2.7-1.7-1.7-5.4-4.1-7.3l-0.5-1.3c-1-1.8-1.3-4.2-3.4-5.4c-1.3-4.6-5.7-5.9-9-8.2c-15.1-10.5-34.7-7.5-46.6,6.8  c-5.8,4.8-9.1,12.1-8.8,19.5c0.2,7.3-1.4,12.1-8.7,14.3c-4.9,1.5-1.2,5.8-2.2,8.7c-0.7,2,1.7,2.5,3.7,2.2c1-1.7-1.4-4.1,1-5.6  c3.1-1.9,3.1,3.4,5.6,2.2c2.3-0.9,0.1-4.3,2.8-4.9c0.8,1.3,1.9,2.6,1.7,4.3c-0.6,1,0.2,1.2,0.8,1.5c1.8,3.7,5.1,6,8.2,8.5  c16.3,13.6,37.1,10.6,51.4-4.6l2.3-4.1c0.6-1.2,1.3-2.5,3.1-1.8c0.5,2.7,3.5,4.6,1.6,8c-1.2,2.2,1.9,2.5,2.8,3.9  c1-1.1,1-2.3,1.2-3.9c0.5-3.5,1-8.4,3.3-9.7c5.6-3.4,4.4-6.7,2.1-10.9c2-0.8,2.3-2.5,2.3-4.4c2.9,0.2,5.7-0.1,8.5-0.8  c7.2-1.9,14.3-3.7,21.7-5.1c3.8-0.7,3.6,0.6,3.3,3.2c-8.6,4-17.9,5.5-27.1,7.7c-1.2,0.3-2.9,0.2-3.1,1.7c-0.1,0.7,0.5,1.6,0.7,2.5  c4.5-3.1,9.9,3.8,14.3-1.5c1.7-2,5.9-0.3,7.2-3.7c3.4,5,5.4,0.2,8-1c0.4,6.2,0.4,12.3-7.9,13.5c-2.2,0.3-1.9,2.7-2.8,4.2  c-5.6,2.3-9.7,5.7-7,12.5c1.7,4.5-1.9,9.7,2.1,13.9c0.8,0.9-0.3,3-1.5,4.1c-2.2,2-3.9,4.9-7,5.8c-3,0.8-4,3.4-1.5,4.4  c4.1,1.7,6.5,5.4,10.7,7.3c2.7,1.1,4-0.7,4-1c-0.1-3.6,4.6-6.2,2-10.4c-0.8-1.3-1.4-3.8,1.7-4.7c2.7-0.7,4.3,0,5.6,2  c0.9,1.5,1.5,3.2,2.6,4.7c2.2,3.3,5.8,2,8.6,1.6c2.8-0.4,2.3-3.1,1.4-5.2c2.2-1.8,2.8-6.2,6.8-5.2c3.6,0.9,2.3,4.3,2.8,6.7  c0.3,1.2,0.7,2.6,1.3,3.7c1.5,3.8,8.1,5.9,10.1,2.9c3.1-4.6,6.7-5.3,11.4-4.2h0.1l2.6,0.4c0.1,0.3,0.1,0.7,0.1,1  c-0.2,1.2-1.5,1.9-2.5,3c-0.7,0.8-0.8,1.9-0.2,2.9c-0.8,0.2-1.5-1.9-2.6-0.1c-1.8,3.3-1.7,5.7,1.3,8.7c4.4,4.3,7.4,1.8,10.7-0.9l0,0  c0.9,0.7,1.8,1.3,2.9,1.9c1.2,0.6,2.2,1.7,2.8,3.2c0.1,0.2,0.1,0.4,0.1,0.6l0,0c-0.8,0.8-1.5,1.6-2.2,2.5c-1.7,2.7-5.9,3.6-4,8.7  c1.8,4.9,4.6,5.8,9,5.3c2-0.2,4.2-0.2,4.6,2.7c0.5,3.2-1.7,4.5-4.1,4.9c-6.2,1.1-7.4,5.4-6,10.3c0.9,3.6,5.1,4.3,8,6.1l0.1,1.3l0,0  c0,4.3-2.2,5-6,4.1c-4.4-1-6.8,1.5-8.5,5.3c-1.6,3.8,0.1,6.2,3.4,8.1l1.3,1.5c-0.1,0.4,0,0.7,0.3,1c-1.1,1.5-1.1,4.3-3.8,4.2  c-3.3-0.1-1.7-3-2.2-4.7c-0.3-0.9-0.7-1.6-1.7-1.6c-4.9,0-12.2,8.9-11.4,14c0.3,2.5,0.9,5-2.1,6.3c-3.1,1.3-4.1-1.6-5.1-3.2  c-2.5-3.7-5.3-3.7-9.2-2.9c-3.9,0.8-4.3,3.3-4.4,6.3c-0.1,3.1-1.1,5.6-4.3,5.8c-3.2,0.2-2.7-3-3.3-5c-1-3.4-2.2-6.5-6.6-6.9  c-4.3-0.4-6.6,1.1-8.1,5.1C606.9,726.3,605.4,727.1,603.7,726.8z M638.9,675.5c0.2,3.6,5.2,6.3,6.1,5.8c3.9-2.1,3.2-6.6,2.6-11.4  C645.1,672.7,638.5,668.9,638.9,675.5L638.9,675.5z M500.3,524c0.3,0.8,0.8,1.4,1.5,1.8c0.3,0.2,1.5-0.5,1.5-0.8  c0.4-3.9,6.6-6.7,2.1-11.4C501,515.6,499.3,519.2,500.3,524z M489.1,570.6c6-0.1,6.3-3.5,4.9-8c-2.7,0-2.5,4-5.8,3.2  c-2.8-0.6-0.2,2.9-1.8,4.3C485.6,570.6,487.8,570.6,489.1,570.6L489.1,570.6z M496.1,586.7c-1.5,0.1-2.8-1.5-4.4-0.8  c1.8,1.7,0.3,3.8,0.2,5.6C494.4,590.9,495.1,588.7,496.1,586.7L496.1,586.7z M511,599c0-1.7,1.9-5.1-1-4.3c-3,0.8-6.1-1.4-8.9,1.8  c-4.6,5.5-1.8,10.2,0,15.4c0.8,2.2-0.8,6.5,3.1,5.7c2.5-0.5,3.8-4.7,3.7-8c0-1.2-1-2.5-1.2-3.7c-0.2-0.9-0.3-2.8,1.2-2.5  C513.5,605.1,511.1,601.4,511,599L511,599z M534.7,631.6c-9.1,3.3-5.3-3.1-5.5-6l-6.1,1.3c2.9,3.4,3.4,7.4,3.4,11.8  C529.8,637.4,531.3,634.1,534.7,631.6L534.7,631.6z M581.3,583.1c-3.1,3.9-0.8,7.9-1.2,11.3C581.1,591,583.3,587.6,581.3,583.1z   M628.6,694.1c-1.1-3.3-1.7-6.8-5.7-6.6c-4.4,0.2-5.2,4.6-6.6,7.8c-0.3,0.8,0.5,3.4,2,2.3C621.4,695.4,626.3,698.6,628.6,694.1z   M619.4,648.7c3.1,3.7,2.3,8.9,8.3,9.3c4.7,0.3,4.1-4.6,8-5.9C630.3,648,625.4,648.1,619.4,648.7z M614.8,672.5  c0.4,4.6,3.4,8.4,7.8,9.3c4.7,1,10.7-4.8,10.1-9.3c-0.7-4.7-3.4-8.1-6.5-8.4C618.8,664,614.3,667.9,614.8,672.5L614.8,672.5z   M601.4,677.7c3-0.7,6.4-0.4,7.4-4.7c1.2-5.8-3.3-6.8-6.5-9.1c-3.4,3.4-0.9,7.9-2.9,11.3C598.5,676.8,601.1,677.7,601.4,677.7  L601.4,677.7z M607.7,707.3c-0.1,0.1-0.3,0.2-0.2,0.3c0.1,0.2,0.2,0.3,0.3,0.5l0.4-0.5L607.7,707.3z M594.1,692.6  c1.3,1.1,1.7-0.7,2.7-0.9c5.1-1,3.5-6.6,6.8-9.3l-8-2c2.8,4.3,1,6.5-1.4,8.8c-1,0.9-1,2.3-0.2,3.4  C594.1,692.5,594.1,692.6,594.1,692.6z M592.9,683.8c-0.3-1.7-5.5-1.8-1.6-4.7c-0.6-0.8-1.2-1.6-1.9-2.3c-0.1-0.1-1.1,0.4-1.3,0.8  C586.3,680.4,588.9,683.7,592.9,683.8L592.9,683.8z M601.4,708c0.2,0.4,5.1-0.5,3.7-4.3c1.7-5.7-4.6-5.3-6.1-8.5  c-2.9,2.1-6.5,5.3-6.2,8C593.1,705.8,599.3,704.5,601.4,708L601.4,708z M602.9,710.5c-0.9-0.6-1.5,0-1.8,0.8l0,0  c0.3,0.9,0.8,1,1.7,0.5C603.7,711.4,603.4,710.9,602.9,710.5L602.9,710.5z M604.5,716.3c1.7,1,3.9,1,5.6-0.2  c1.7-1.2,5.3-0.1,4.9-4.2c0.1-1.9-1.4-1.4-2.8-1.5c-3.3-0.1-4.2,4.1-7.5,4.1C604.5,715,604.4,715.7,604.5,716.3L604.5,716.3z   M530.5,238.6L530.5,238.6L530.5,238.6z M420.7,301.5l-0.4-43c6.5,1.6,13.3,2.2,19.9,1.7c14.9-1,26.7-8.6,37.7-17.8  c0.1-2.9,2.5-4.6,3.9-6.6c12.2-18.1,13.3-36.8,4.8-56.8c-1.8-4.4-6.4-7-6.7-12.3c1.9,0.3,3.2,1.8,5.2,1.5c2-0.3,4-0.1,3.8-2.6  c-0.2-2.5-2.3-1.7-4.1-1.6c-2.9,0.2-5.6,2.2-8.5,0.5c-2-3-4.8-5.3-8.1-6.7c-12.3-9.9-26.5-12.3-41.6-10.5  c-19.2,2.1-37.5,17.7-44.6,35.1l0.3-62.3c2.8-1.8,5.5-3.8,8.2-5.8c3.8-2.9,3.8-7.5,5.7-11.1c2-4,3.6-8.3,4.6-12.6  c1.8-7.6,6.9-9.5,13.8-9.2h3.7c6.5,6.7,13.1,13.5,19.6,20.1c2.9,2.9,6.9,3,10.5,3.8c5.2,1.2,10.5,1.5,15.7,3.1  c2.8,0.8,5.8,0.5,8.4-0.8c6.9-3.6,14.3-6.2,21.5-9.6c5.5-2.7,15.5,2.9,15.7,9.1c0.1,5.6,0,11.2-0.5,16.8c-0.8,8.1,2.6,14.2,6.2,21.1  c6.9,12.8,16.7,20.2,30.5,23c1.5,0.8,3.2,2.3,4.7,2.3c6.2,0,5.8,5,6.9,8.7c1.3,4.3,0.8,7.8-3,11.1c-6,5.2-11.3,11.2-17,17  c-1,0.3-2,0.7-2.2,2c-1.4,7.5-2.9,15-4.3,22.5l-0.1,2.9c-1.2,1.3-1.9,2.7-0.2,4.1c0.2,1.4,0.1,3,1.6,3.8l0.1,0.1l1,1.6h-0.1  c0.3,3.5,1.8,6.7,4.3,9.3c-0.2,3.2,2.1,5.3,3,8.1c-0.2,2.3,2.2,4.2,1.5,6.6c-1.2,0.8-2,2.2-2,3.7c-4.8,8.9-13.3,7.2-20.5,6.1  c-10.8-1.5-19.3,1.8-28.7,7.2c-13.9,7.7-17.1,20.6-22,33.2c-2.9,7.6-14,10.1-19.8,4.3c-0.9-0.7-1.7-1.4-2.5-2.2  C439.8,310.4,431,304.8,420.7,301.5z M502.5,190.4c0.1,5.8,6.1,11.3,12.1,11c5.5-0.3,11.4-6.2,11.2-11.2  c-0.3-5.7-6.4-11.4-12.3-11.2C507.5,179.4,502.7,184.4,502.5,190.4L502.5,190.4z M432,127.3c0-5.5-6.2-11.7-11.7-11.7  c-5.8,0-11.3,5.9-11.2,11.8c0.1,5.9,5.9,11.4,11.7,11.2C426.1,138.5,432.1,132.5,432,127.3L432,127.3z M433.7,105.7  c-3.6-0.8-7.3-1.3-10.6,1C426.8,106.5,430.4,108.6,433.7,105.7L433.7,105.7z M481.5,246.6c4.5-0.1,9,0.4,11.7-1.5l-15.1-2.5  C478,245,478.2,246.7,481.5,246.6L481.5,246.6z M438.9,283.8c-0.2,4.6,6.3,11.1,11.4,11.4c6.3,0.1,11.5-4.8,11.8-11.1  c-0.1-6-4.8-10.9-10.8-11.2C445.8,272.7,439.2,278.6,438.9,283.8L438.9,283.8z M400.8,195L400.8,195L400.8,195z M391.6,240.3  c-4.3-4.8-7.8-10.4-10-16.5l-0.1,20.8l16.1,1.5C395.5,244.3,393.6,242.4,391.6,240.3L391.6,240.3z M39.5,389.2  c0.6,7.4-1.2,14.7-5.4,20.7c-2.7,4-1,6,1.4,8.6c9.2,9.2,19.8,14.4,33.4,13.3c9.4-0.8,15.3,5.7,15.4,15.2c0.1,5.4-0.3,10.8,0.5,16.1  c1,6.6,2.9,13.6,10.4,16c11.4,3.7,23,6.6,34-1.6c1.9-1.4,4.4-2.1,6.6-3.2c7.6-3.4,14.2-0.8,18.4,6.6c2.6,4.7,5.5,9.3,8.7,13.6  c3,3.9,6.4,7.7,11.4,8.8c14.8,3.2,25.3-1.8,32.8-14.8c2.5-4.3,3.5-9.7,8.5-12.3c4.6-4.9,9.8-4.3,15.2-1.5c6.9,3.6,13.2,8.4,21.1,9.9  c5,1,9.6,0.9,13.4-2.2c0.6-0.5,1.2-1,1.8-1.6V362.9l-11.6,1.2c-4.1,9.9-10.3,18.6-18.4,25.6c-11.6,12.2-26,18.9-42.6,21.3l-4.5,0.4  c-5,1-10.1,1-15.1,0l0,0c-20.9-2-38.5-10.7-52-27.1c-0.3-0.1-0.5-0.4-0.5-0.7l-1.5-2c-1-0.8-1.9-1.7-2.8-2.8l-78.9,8.5  C39.4,388.1,39.5,388.6,39.5,389.2z M297.7,266.5c-4.1,2.5-8.4,0.5-12.3,1.3c1.5-3.2,1.5-3.4,12.3-3.1v-14.6l-1.5-1.7l-18.2-0.8  l-1.8,2.1v37.8h21.6L297.7,266.5L297.7,266.5z M790.1,142.7L790.1,142.7L790.1,142.7L790.1,142.7z M41.7,238.6  c-3.8,3.4-6.3,8-7.2,13.1c-1.3,6.4-1,12.9-1.3,19.3l1.3,3.7c1.9,2.3,3.8,4.9,5.2,7.6c0.8,1.7,1.5,3.5,2.1,5.3h11.4v-52.6  c-3.7,0.4-7.3,1.5-10.5,3.3C42.5,238.5,42.1,238.7,41.7,238.6z M722.7,103.4L722.7,103.4L722.7,103.4L722.7,103.4z M859.3,384.4  h-0.1c0,0,0,0,0,0.1L859.3,384.4z M668.5,703.6L668.5,703.6L668.5,703.6L668.5,703.6z M794.5,111.4c-0.8,2.1-1.9,3.9-4.6,4.3  c-2.5,0.4-3,1.9-1.5,4.4c2.9,5.2,1.6,7.3-4.7,8.6c-3.2-1.3-3.8,0.7-3.3,2.9c0.5,2.1,0.8,3.8-0.3,5.6c-3.3,2-5.8,0.5-9.2-0.6  c-4.1-1.3-2.2,6.2-6.4,6.7c-0.2,0-0.5,0.2-0.6,0.2c-5.1-3.5-11.2-1-15.8-2.1c-4.1-0.9-7.7-7.4-14-6.9c-0.2-6.2-3.5-10.3-8.8-13  c4.5-6.5-0.9-11.7-2.3-17.5c0-0.2,0-0.4,0.1-0.6c4.1-2,10-3.3,3.9-9.6c-0.5-0.6,0.7-2.8,1.1-4.3l0.2-0.2l1.8-1.9  c4,1.4,7,2.2,6.3-4.2c-0.4-4.3,3.6-6.9,6.9-4.7c5.4,3.7,5.4,0.6,5.3-3.5l1.3-1.3c6-2.6,12,7.9,18.1,0.2c0.2,0,0.4,0.1,0.6,0.2  c3.1,5.9,8.7,6.8,14.3,8.9c3,1.1,0.9,10.9,8.7,11.7c0.1,0.2,0.2,0.4,0.1,0.6C786.9,101.6,792,106.2,794.5,111.4z M737.4,108.1  c-0.3-1.5-1.7-2.7-3.4-2.3h-0.1c-1.4,0.2-3,0.4-2.8,2.1c0.2,1.7,1.1,3.7,3.3,3.5C736.2,111.1,736.9,109.6,737.4,108.1L737.4,108.1z   M758.2,86.9c1.4-0.6,3.4-0.8,3.1-2.9c-0.2-1.5-1.3-3.2-3.1-3.1c-1,0.1-2.3,1.6-2.7,2.7C755.2,85.4,756.6,86.4,758.2,86.9  L758.2,86.9z M738.3,91.3c0.1,1.3,0.8,2.6,2.6,2.5c1.7-0.1,3.1-0.4,3.4-2.5c-0.1-1.6-1.4-2.9-3.1-2.9l0,0  C739.2,88.5,738.2,89.5,738.3,91.3L738.3,91.3z M744.3,125.6c0.2-2.1-1.2-2.8-2.9-3c-2-0.3-2.9,1.5-3,2.9c-0.1,1.5,1,3,2.6,3.1  c0.2,0,0.4,0,0.7,0C742.7,128.1,744.1,127.6,744.3,125.6z M758.3,129.3c-1.5,0.2-2.7,1.4-2.9,2.9c-0.4,1.4,0.4,2.9,1.8,3.3  c0.2,0,0.3,0.1,0.5,0.1c2.1,0.4,3.3-1.2,3.6-3.1C761.7,130.6,760.2,129.9,758.3,129.3L758.3,129.3z M771.4,108.5  c0.2-5.8-7.2-13.1-13.3-13c-5.6,0-12.1,6.4-12.4,12.3c-0.3,6.4,6,13.1,12.7,13.2C764.3,121,771.2,114.4,771.4,108.5L771.4,108.5z   M772.4,91.6c0.3,1.8,1.9,2.2,3.7,2.1c1.2,0.1,2.2-0.8,2.3-2c0-0.2,0-0.4,0-0.5c-0.2-1.8-1.3-2.7-3.6-2.6  C773.6,89,772,89.8,772.4,91.6L772.4,91.6z M778.8,125.7c-0.1-1.8-1.7-3.2-3.5-3.1c-1.4-0.1-2.8,0.9-2.9,2.3c0,0.2,0,0.4,0,0.5  c0.2,1.7,1.5,2.6,4.2,3.4C777.1,128.2,778.8,127,778.8,125.7L778.8,125.7z M249.9,182.8c1.1,0.2,2.2,0.4,3.3,0.6l0.6,46.7  l-113.6-14.5v-6.7l-51.4-8.8l-0.3-3.2c3.1-5.3,7.6-9.9,12.6-14.3l1.1-0.7c11.1-1.9,20.6,2,29.7,8c10.4,6.6,16.8,4.8,23.1-6  c1.1-1.9,2.8-3.9,3.1-5.9c0.3-2.5,6-3.9,1.9-6.6c-6.1-4.2-13.1-3.3-14.6,1.7c-1.6,5.3-5.1,4.4-8.8,4.6c-3.7,0.2-6-0.6-7.5-4.8  c-1.4-4-5.5-6.1-9.7-3.7c-5.4,3.2-6.9-1.8-9.8-3.9c-2.9-2-2.8-4.1-1-7.4c2.2-4.2,0.8-8.5-4.1-10c-4.7-1.4-3.9-4.7-3.9-8  c0-3.3-0.8-6.4,4-7.8s6.4-5,4.4-9.9c-1.5-3.6-2.8-6.7,3.4-5.6c0.4,0.1,0.8,0.2,1.2,0.3c1.1-7.9,7.6-4.2,11.7-5.3  c1.7-0.5,3.8-0.7,4.2-2.9c1.2-6.4,5.8-6.1,10.7-5.9c2.8,0.1,4.6,0.6,5.3,3.8c1.3,6,5.6,7.3,10.5,4.6c5.7-3.2,7.4,2,10.4,4.3  c3.1,2.2,1.5,4.2,0.1,6.8c-2.6,4.9-0.8,9.1,4.5,10.4c6.1,1.6,3.5,6.2,4,9.8c0.5,3.2-0.8,4.6-4.2,5.5c-5.2,1.4-6.1,5.7-4.6,10.6  c0.7,2.1,3.5,4.2-0.5,6.6c6.6-1.8,12.5-4.8,19.2-3.9c6.1,0.9,12.5,0.7,13.5,9.2c0.2,2,1,1.5,1.8-0.4s2.1,0.2,2.8,1.1  c2.2,3.3,5,6.5,6.5,10.2c6.9,16.3,19.1,13.6,29.8,4l0,0c3.5,4.7,6.4,5,8.8-0.9c0.3-0.5,0.6-0.9,1.1-1.2  C249.5,183.3,249.7,183.1,249.9,182.8z M153.9,142.3c0.1-10.2-6.7-17.8-16.7-18.2c-8-0.3-17.8,8.8-18.1,17  c-0.4,8.5,8.9,17.6,18,17.7C145.8,158.9,153.8,151.1,153.9,142.3L153.9,142.3z M641.7,542.3c0,0.2-0.1,0.3-0.2,0.5  c-0.1,0.2-0.1,0.4-0.1,0.5s0,0.3,0,0.4c0,0.5,0,0.9,0.2,1.3v0.1l0,0l-0.1,0.3l-0.1,0.3l0.3-0.5l0,0l0,0c1.9-0.4,3.7-1.1,5.4-2l1-0.5  l1.4-0.7l0.2-0.1c0.5-0.2,1-0.7,1.2-1.2c0.1-0.2,0.1-0.5,0-0.7c-0.1-0.3-0.2-0.6-0.3-0.8c-0.4-0.8-1-1.2-1.5-1.2H649  c-0.6,0.2-1.1,0.6-1.3,1.2c-0.2,0.5-0.5,0.9-0.8,1.4c-0.1,0.2-0.3,0.3-0.5,0.4c-0.1,0.1-0.3,0.1-0.5,0.1c-0.2,0-0.3-0.1-0.5-0.2  c-0.2-0.1-0.3-0.2-0.5-0.4c-0.2-0.2-0.3-0.4-0.5-0.6c-0.2-0.3-0.5-0.7-0.7-1.1c-0.4-0.6-0.8-1-1.1-0.9c-0.3,0.1-0.5,0.5-0.4,1.6  c0,0.1,0,0.2,0,0.3c0,0.6-0.2,1.3-0.4,1.9L641.7,542.3z M471.9,365.3c1.3-1.7,2-3.8,2-6c2.1-2.3,5.3-3.5,8.5-3.1  c4.6,0.5,6.1-1,7.4-5.7c1.3-5,2.3-8.6-3-11c-7.6-3.6-5.1-11,1.5-19.8c4.1-5.4,9.2-3,13.9-0.9c2.1,0.9,3.9,2.3,5.1-0.8  c1.5-3.9,9.3-4.3,5.7-11c-1.6-3.1-5.3-5.8-2.5-10.3c3.2-5.2,8.5-8.9,14.5-10c3.8-0.8,5.5,2.2,7.7,4.6c2.1,2.3,3.9,5.3,7.8,2.8  c3.7-2.5,10.4-1.7,8.7-9.2c-1.3-5.7,2-8.7,6.5-10.9c2.5-0.1,4.9-0.1,7.4-0.4c5.7-0.5,10.1,0.3,11,7.5c0.9,7.7,7.8,5.6,12.6,6.5  c4.6,0.9,3.9-3.5,5-5.6c3.3-6,7.5-7.7,15-5.2c7.9,2.6,10.3,5.9,8.7,13.1c-0.9,4.1-0.3,6.8,4,8.4c3.9,1.4,7.8,6.6,11.3-0.5  c1.1-2.2,3.5-2.7,5.7-2.7c13.8,3.4,19.4,12.2,12.4,21c-5.1,6.6,1.8,8.9,3.1,13.1c1.3,4.7,5.5,2,7.2,1.2c6.7-3.4,9.9,0,12.8,5.3  c0.6,1.2,0.2,3.3,2.3,3.7c6.3-12.6,6.3-12.6-6.6-15.5c-0.4-0.1-0.9-0.1-1.3-0.2c-10.7-1.9-14.3-11.1-7.8-20.1l1.2-1.1  c9.6-9.5,9.6-9.5-1.3-15.7c-2.2-1.3-4.6-2.7-6.8-4c-3.9-9.1-2.1-13.8,8-21.2l9.5-4.4c-3.8-4.2-7.2-8-10.5-11.8  c-6.2-7.2-2.8-17,6.5-19.5c4.9-1.3,12.5-0.2,13.9-4.2c1.3-3.6-3.2-9.3-5.3-14c-1.5-3.5-1.8-6.1,0.4-9.8c3.7-5.8,7.8-7.9,14.3-5.6  c2.7,0.9,5.8,0.5,8.7,0.7c3.4,0.2,4.2-0.6,3.9-4.6c-0.5-6.2-3.4-12.8,0.7-18.8c1.6-1.5,3.8-2.5,4.9-4.5c0.2-0.3,0.3-0.6,0.4-0.9  c4.5-0.9,8.2,1.4,12,3.2c11.3,5.2,11.3,5.2,13.9-6.6c0.2-1.1,0.7-2.1,1-3.2c2.8-10,11.5-13,19.6-6.4c2.1,1.6,4.1,3.5,5.9,5.4  c3.7,4,5.7,4.6,9-1.1c3-5.3,4.2-13.3,12.8-13.7h2.7l6.6,1.3l1.5,2.5l8.8,15.6c3.6-3.7,7.7-5.8,10.2-9.8c3.9-1.9,6.7-5.6,12.5-3.1  c5.1,2.2,8.4,4,8,10.3c-0.3,3.9,3,7.2,3.2,11.3c0.1,2.1,2.3,1.6,3.8,1c3.2-1.2,6.4-2.1,9.3-4c5.3-3.4,9.6-2.8,14.4,1.2  c3.4,2.8,5.1,4.9,3.8,9.5c-1.3,4.7,0,9.8-1.8,14.9c5.5,1.3,10.7,0.5,15.9-0.6c3.8-0.8,7.2-0.4,9.4,3.3c2.5,3.9,6,7.2,3,12.7  c-2.6,4.6-7.3,10.6-5.2,14.4c1.7,3.2,9.4,3.1,14.6,4.3c8.1,1.8,11.5,12.3,5.9,18.5c-2.9,3.2-5.8,6.3-8.8,9.6  c-1.5,1.6-1.5,2.9,0.7,4.1c3.6,1.8,6.7,4.5,10.4,6.2c4.6,2.2,5.8,5.5,6.1,10.6c0.3,6.4-3.5,8.5-8,10.9c-1.2,0.6-2.5,0.4-3.8,1.1  c-8,4.3-6.6,8.3-0.7,13.1c1.5,1.2,2.5,3.2,3.9,4.6c2.5,2.6,4.3,4.9,2.5,8.8c-2,4.2-1.8,9.7-8.9,9.8c-4.4,0.1-8.7,1.8-13.1,2.9  c-1.8,0.4-3.7,1-4.1,3c-0.3,1.6,1.6,1.7,2.7,2.6c7,6,8.1,16.4,2.2,23c-3.2,3.6-3.1,3.4-8.7,0.7c-1.5-0.7-4.3,0-5.8,0.4  c-3.4,0.7-6.6,0-9.8,0.4c-0.6,5.1,1.6,10,0.5,15.1c-5.2-1.2-10.6-0.6-14.9-4.2c-1-0.9-3.3-0.7-3.5,0.5c-0.4,1.5,0.5,3.5,0.8,5.2  c4.3-2,5.7,2.9,8.9,3.8c1.4,0.4,3,0.7,4.4,1c1.2,0.2,2.6,0.3,3.9,0.5c0.3,3.9-5,3-5.1,6.3c-7.2,3-13.1-2-18.6-4.5  c-5.9-2.7-6.1-1.5-7.3,3.8c-1.6,7.7-0.7,16.9-12.9,18.6c-5.8,0.8-6.9-3-9.6-5c-10.9-8.2-10.8-8.4-17.7,3.4  c-5.9,10-15.3,10.2-21.2,0.4c-1.7-2.9-3.4-5.7-4.8-8.8c-1.1-2.6-2.3-3.9-4.8-1.5c-3.5,3.4-7.9,5.7-10.7,9.9  c-6.9,1.7-14,3.3-21.3,2.8l0,0c2.8-2.1,6.3-0.4,11.2-2.1c-6.2-1.3-7.4-4.5-8-8.5c-0.6-4-1.9-8.2-3-12.3c-0.9-3.6-4.3-1.6-6.3-2.9  c-0.8,4.6-5.2,4.3-8.3,5.6c-9.5,4.1-17.2-1.6-16.3-11.7c0.4-5,2.7-12.4,0.3-14.5c-3.4-3.1-10.1-0.4-15.2,0.7  c-4.1,0.8-6.9-0.3-9.2-3.7c-0.9-1.5-1.4-4.7-4-2.5c-2.9,2.6-9,2.1-8.4,8c0.7,6.3,2.1,12.8,10.9,12.4c1.6,0,3.1,0.7,4.2,1.8l1.4,10.8  c-1.3,9.5-2.9,10.9-13.2,11.4c-1.7,0.1-3.5,0.1-3.8,1.9c-0.9,4.6-3.4,8.8-3.1,13.7c0.1,1.9,4.6,3.8,0.2,6c-0.2,0.1,1.7,3.1,3.5,3.3  c1.7,0.2,1.7-1.4,1.8-2.9s-2-4.5,2.1-3.4c2.8,4.3,0.4,8.7,0,13.1c-4.9,7.2-10.3,10.4-19.3,5.8c-5.3-2.8-5.6,5.6-9.8,7  c-2.7,0.9-1,3.5-0.2,4.5c5.7,7.5,2.2,13.1-3.4,18.3h-0.5l-0.5,0.2c-1.5,0.4-3.2,0.4-4.3,1.7h-0.1l-5,0.6c-2.5,0.1-3.7-1.7-4.7-3.4  c-3.1-4.7-6.7-4.7-11.7-3c-4.8,1.6-6,4.2-5.8,8.7c0.3,8-0.9,8.9-9.3,8.7c-2.7-0.1-4.3,3.4-7.9,2.5c-3.6-0.9-5.9-1.5-6.7-5.8  c-1.5-7.3-7.2-10.1-14.2-8.3c-2.8,0.7-3.3,3-3.9,5c-2.6,7.4-6.5,7.7-16,5.3c-7.6-1.9-8.9-4.8-7.9-12.5c0.4-2.8,1.8-6.4-2.6-7.8  c-3.9-1.1-7.3-7.2-12.1-1.7c-5.5,6.2-10.9,4.1-16.3,0.1l-5.3-6.8l-1.1-2.8c1.3-2.6,2.5-5.1,3.9-7.5c3.5-5.5,2.8-8-3.8-11.5  c-1.4-3.3-4.1-2.8-6.8-2.3l-6.6,0.9l0,0c-3.2-2.9-5.8-6-7-10.3c-1.5-5.8-3.1-11.2,4.6-14.2c2.6-1,6.1-1.7,4.9-6.4  c-1.1-4.5,0.2-10.2-6.6-11.1l0,0l-8.2-3.2l-1.6-0.6C472.7,373.7,470.3,369.4,471.9,365.3L471.9,365.3L471.9,365.3z M774.7,382.8  c-1.4-0.7-3.2-0.1-3.8,1.2c-0.1,0.2-0.2,0.5-0.3,0.8c-0.4,1.5,0.9,2.8,2.6,3.3c1.7-1,4.3-1,4.8-3.2  C778.4,382.3,775.9,383.3,774.7,382.8L774.7,382.8z M836.6,371.4c-2.7-1.5-4.4-6-9.2-1.3C831,370.1,832.7,374.7,836.6,371.4z   M681.1,272.3c0.3,1.5,1.2,3,1.3,4.5c-1.4,1.1-1.3,2.8-1.2,4.3c3.2,31.5,16.1,57.4,42.6,75.7l1.3,0.8c3.7,3.9,9.7,4.9,13,8.6  c2.3,2.7,3.7,2.6,6.1,1.8c9.6,4.4,29.1,7.9,32.9,8c12.5,0.4,24.9-1.3,36.9-5c11.6-3.7,21.7-9,29.1-15.6c0.4,0.2,0.8,0,1-0.4  c0-0.1,0-0.1,0-0.2l3.1-1.8c7.2,0.4,14.5-0.4,21.7,1.2c-3.3-3-8.5-1.6-10.9-5.9c-0.3-0.6-0.6-0.3-1,0.4c-1.9,3.5-5.9,2.5-8.9,3.7  l7.5-7.8c8.1-7.9,14.5-17.2,18.9-27.5c1.7-0.8,1.4-2.2,1.3-3.7l0.8-1.7c0.3-0.3,0.5-0.7,0.5-1.1c6.8-14.8,7.3-30.4,6.4-46.3  c0.4-1.6-0.7-2.8-1.2-4.1c-0.5-6-0.6-12.2-4.1-17.6c-2.7-9.4-7-18.2-13-25.9c-12.5-17.7-28.4-30.7-49.3-37.2l-1.3-0.2  c-5.8-3.4-12.5-4-18.9-5.1l-2.6-0.3c-16.1-1.8-32.5,0.4-47.6,6.6c-12.8,5.2-25,11.6-33.8,23l0,0c-5,3.4-8.1,8.3-11.2,13.2  c-0.5,0.8-1,1.6-1.6,2.5s-1.1,1.6-1.6,2.3c-3.5,3.8-5.7,8.2-8.1,12.7c-2.6,6.1-5.6,12.2-5.8,18.8c0,1.6,0.1,3.2,0.3,4.7  c-3.2,3.7-1.1,8.3-2.1,12.3l0,0C681.1,270.6,681,271.5,681.1,272.3z M652.1,407.2c1.9,1.7,1.5-0.8,1.6-1.8c0.2-1.6,0.2-3.3-2.1-3.4  c-2.3-0.1-3.9,2.7-3.9,3.2C647.5,408.2,650.6,405.8,652.1,407.2L652.1,407.2z M543.9,420.4c-2.1-1.5-3-5.1-6.3-4.8  C539.2,418,541.1,420,543.9,420.4L543.9,420.4z M594.6,461.5c-1.3-1.3-3.4-0.8-5-2.1c1.9,2.2-3.2,5.8,1.2,6.8  C594.1,467,591.2,461.5,594.6,461.5z M602.4,423.7c-2.8-0.7-4.2,1.6-6.2,2.3C598.7,426.5,601,426.3,602.4,423.7L602.4,423.7z   M608.9,418.2l-3.1,2.1c-1.1,1.1-3.5,1-3.3,3.3c1.7,0.1,3.5-0.9,4.1-2.6C607.9,420.4,609.9,420.4,608.9,418.2z M617.2,410.3  c-2.5,2.9-6.2,4.2-8.1,7.6C613.6,417.4,616.4,414.9,617.2,410.3L617.2,410.3z M624.2,352.2c5.1,16.7,7.3,33.2-1,49.8  c5-3.9,3.9-13.8,13.1-13.6c-5.8-0.9-5.6-5.2-5.6-9.5c0-2.5,0.4-5,0-7.5C629.3,364.9,629.5,357.6,624.2,352.2L624.2,352.2z   M617.5,341.5c1.1,4.1,4,7.2,6.4,10.4C623.2,347.5,620.7,344.2,617.5,341.5L617.5,341.5z M617.4,410.1l4.9,0.9v-7  C621.4,406.8,616.4,406.3,617.4,410.1L617.4,410.1z M609.4,333.2c1.6,3.4,4.3,6.1,7.8,7.8C615.2,337.7,613.5,334.3,609.4,333.2  L609.4,333.2z M539.8,336.1c11.4-9.7,24.7-13.6,39.5-12.9c8.2,0.4,15.4,3.6,23,5.9c0.2,1.4,1.2,1.5,2.3,1.6l1.5,1.2  c0.7,1.1,1.6,1.6,2.9,1l-2-1.9l-1.9-0.8c-0.2-1.4-1.3-1.5-2.5-1.8C582.3,315.7,552.1,320.3,539.8,336.1z M540,389.2  c-0.2,1.1,0.2,2.3,1.1,3.2c1.4,4.6,4.5,8.6,8.6,11.1l0,0l1.2,1.4c0,0.7,0.6,1.3,1.4,1.3l0,0c2.7,2.7,5.6,4.8,9.5,5.3  c5,3.2,10.7,3,16.2,2.9c20.4-0.5,37.5-21,35.3-41.1c-0.6-6-3.8-10.5-5.5-15.8c-6.9-17.5-36-26.6-54.3-12.3c-1.2,0.3-2.2,1.2-2.8,2.5  C538,359,533.8,375,540,389.2L540,389.2z M537.4,415.5c0-2.7-1.9-4-3.8-5.3C533.3,413.1,535.3,414.3,537.4,415.5z M531.1,408.7  c0.6,0.8,0.8,2.6,2.5,1.3c-0.2-1-1-1.9-2-2.1C531.5,407.9,531,408.6,531.1,408.7L531.1,408.7z M521.2,384  c0.2-13.5,2.1-26.6,9.2-38.3C521.9,357,519.4,370,521.2,384L521.2,384z M517.8,422.8c1.1-3.5,3.3-5.9,1.4-8.9  c-0.4-0.6-1.2-0.8-1.8-0.5c-0.2,0.1-0.3,0.2-0.4,0.4C515.2,416.6,516.3,419.2,517.8,422.8L517.8,422.8z M407.6,255.8l-1.5,2.3v29.7  h10.6v-30.2l-0.3-0.4c-1.3-0.4-2.6-1-3.9-1.5L407.6,255.8z M630.9,189.8L630.9,189.8L630.9,189.8L630.9,189.8z M551,404.8L551,404.8  L551,404.8z M419,595.3L419,595.3c-1.4,0.6-3,0.8-4.5,0.8h-0.7c-2.1-0.1-4.2-0.6-6.2-0.6l5.6,5.5c-0.4-4.1,5.1-1.6,5.8-5.5l0,0  V595.3z M334.9,260.2c0.1-2.8-0.4-5.5-1.6-8.1l-3.8-0.1l-2.3,2v26.9c2-3.5,4.1-6.9,6.1-10.3L334.9,260.2z M950.1,336.2  c-3.3,1.3-4,3.4-3.1,6.6c1.4,4.9-2,8.6-6.6,6.8c-3.3-1.1-5.1,0.3-6.7,2.3c-3.3,4-6.5,3.9-9.8-0.3c-1.5-1.9-3.2-3.3-6.2-2.3  c-4.8,1.3-7.8-2-6.7-7c0.5-2.5,0.5-4.4-2.2-6.2c-3.9-2.6-3.5-6.7-0.2-9.2c2.6-1.9,3.5-3.3,2.8-6.4c-1.1-5.5,1.8-8.2,7.3-6.7  c2.1,0.7,4.6-0.1,5.7-2c3.3-4.3,6.6-4.5,10-0.1c2,2.6,4.1,2.7,7,1.9c4.3-1,5.5,2.6,7.3,5.2c-4.1,5-0.9,6.4,3,9.1  C953.6,329.3,954.9,334.1,950.1,336.2z M938.7,331.8c-0.1-5.5-4.2-9.4-9.8-9.5c-5.6-0.1-10.9,4.2-11.1,9.4  c-0.2,4.4,6.3,11.1,10.8,11.1C934,342.8,938.7,337.7,938.7,331.8L938.7,331.8z M630.9,189.8L630.9,189.8L630.9,189.8z M802.6,595.3  c0,0.2,0,0.3,0,0.5c0.1,1-0.1,2-0.5,2.9c-0.1,0.1-0.2,0.3-0.4,0.4c-0.2,0.2-0.4,0.4-0.6,0.6c-0.5,0.5-0.6,1.3-0.1,1.8  c0.1,0.1,0.2,0.2,0.3,0.3c0.2,0.2,0.5,0.4,0.7,0.5c0.4,0.2,0.8,0.3,1.2,0.4c0.4,0,0.7-0.2,0.9-0.6c0.1-0.2,0.2-0.3,0.3-0.5  c1.1-1.6,3.2-1.9,4.7-3c0.7-0.4,1.2-1.1,1.5-1.9l0,0L802.6,595.3z M167.3,255.4v-18.2l-2.6-2.6l-26.5-2.1v34.9  c4-2.6,8.1-4.7,12.4-6.5C156.1,258.5,161.6,256.7,167.3,255.4z M640,199.2c0.2,0,0.4,0,0.7,0.1c1.4,0.3,2.2,1.7,3.4,2.6  c0.5,1.7-1.1,2.1-1.9,3.2c-1.4,1.7-3.9,2.9-2.3,6.1c1.3,2.7,2.9,3.8,5.6,3.7c1.8-0.1,4-0.6,4.6,2.5s-1.7,3.1-3.5,3.9  c-1.9,0.9-3.9,1.7-3.9,4.7c0,3,1.8,3.6,3.7,4.8c1.2,0.9,4.4-0.2,3.7,3.4c-0.6,3.1-2.7,2.2-4.5,2.6c-5.9,0.7-7.7,5.1-4,9.8  c1,1.3,3.1,2,2.2,4.4L643,252c-1.1,0.6-2.6,0.8-3.8,0.4c-8-2.8-9.7-1.2-8.5,7.2c0.2,1.3,0.8,2.8-0.7,3.6c-2.5,1.2-4.1-0.2-5.8-1.8  c-3.7-3.5-7.4-2.7-9,1.9c-0.6,1.6-0.5,3.5-0.7,5.2c-2.6,0.1-4.5-0.1-5.8-3.1c-2.9-6.1-6-6.2-9.6-0.8c-0.9,1.4-1.2,3.5-3.9,2.7  c-2.7-0.8-2.5-2.1-2.2-4.6c0.4-6.1-3.2-8.1-8.8-5c-1.8,1-3.5,2.1-5.3,0.2c-1.8-1.9-0.6-3.9,0.6-5.3c1.9-2.2,1.1-3.7-0.2-5.8  c-1.5-2.6-3.2-2.2-5.5-1.5c-1.3,0.4-3.7,1.8-4.7-0.6c-1-1.8-0.4-4.2,1.4-5.3c1.7-1.2,4.4-2.2,3.2-5.8c-1.3-3.8-4-4.4-7.4-4.3  c-1.3-3.3-0.8-5,3.1-6.2c5.4-1.6,6.1-6.1,1.7-9.5c-2.8-2.1-2.7-4.3-1.9-6.9l2.2-0.1c2.9,1.3,5.5,2.2,8.2-0.7c2.6-2.9,0.6-4.8-0.6-7  c-0.8-1.5-1.7-3.1,0.2-4.7c1.9-1.6,3.6-0.2,4.7,0.9c1.7,1.8,3.4,3,5.7,1.4c2.3-1.5,4.6-3.3,3.6-6.4c-0.8-2.5,0-3.9,2.2-4.7  c2.6-0.9,2.9,1.4,3.8,2.9c1.3,2,1.9,4.1,5.5,3.5c2.9-0.5,3.7-1.8,4.2-4.2c0.4-1.7,0.7-3.8,3.1-3.8c2.6,0,2.8,1.9,3.3,4.1  c1.4,6.2,5.3,7.4,9.8,2.9c2.3-2.3,4-2.1,6.1-0.2c0.6,3.4-3.6,7,1.2,10.2C635.5,202.3,637.5,200.2,640,199.2z M598.1,220.1  c0.5-1.9-1.2-4.6-2.9-4.6c-3.3,0.1-3.3,3.7-4.2,6c-1,2.8,1.3,1.9,3.7,2.6S597.7,221.9,598.1,220.1L598.1,220.1z M606,244  c-1.2-3.8,0.3-6.8-2.9-7.9c-2.8-0.9-3.9,1.7-6.2,3.4L606,244z M614.1,225.4c0.1-3.1-2.2-5.5-5.3-5.6c-0.3,0-0.5,0-0.8,0  c-3.5,0.3-6.8,2.2-6.6,6c0.1,3.5,2.6,6,6.8,5.8C612.5,232,614,228.5,614.1,225.4L614.1,225.4z M619.4,214.7c0-4.3-4.2-4.2-7.5-6.2  c0,3.9-1,7,3,8.1C616.9,217.1,619.4,215.5,619.4,214.7L619.4,214.7z M624.8,230.4c-3,0.5-6.2-1.6-7.2,2.1c-0.4,1.5,1.4,4.2,2.8,4.1  C623.2,236.6,623.5,233.6,624.8,230.4L624.8,230.4z M241,279.4V244l-1.8-2.1l-22.3-2l-2.2,2.6v18.2c5.2,2.5,10.2,5.3,14.9,8.6  C233.6,272.3,237.5,275.7,241,279.4L241,279.4z M271.6,247.9L270,246l-19.6-0.9l-1.9,2.2v40.1h23.2V247.9z M206.9,257.6V241  l-2.2-2.2l-26.8-2.1l-2.7,2.8V254C185.9,252.7,196.8,253.9,206.9,257.6L206.9,257.6z M129.9,274v-50.1l-4.5-3.3l-41.1-5.2  c0,0.2,0,0.3,0,0.5c1.2,12.7-7.2,19.4-18,19v52.6h52c3.2-5.1,7.2-9.7,11.6-13.6H129.9z M41.8,726.5H30.6V724  c0.1-2.3-0.6-4.6-1.8-6.7c-1.3-1.8-3.3-2.8-6.1-2.8c-1.4-0.1-2.6,0.3-3.8,0.9c-1,0.6-1.7,1.4-2.3,2.2c-0.6,1-1,2-1.2,3.2  c-0.2,1.3-0.3,2.5-0.3,3.8c0,1.3,0,2.6,0.2,3.9c0.1,1,0.4,1.9,0.8,2.7c0.5,0.8,1.2,1.5,1.9,2c1.1,0.8,2.2,1.4,3.5,1.8l8.6,3.4  c2.2,0.8,4.2,1.9,6.1,3.4c1.5,1.3,2.7,2.8,3.6,4.5c0.9,1.8,1.4,3.9,1.7,6c0.3,2.5,0.5,5.1,0.5,7.6c0,3.1-0.4,6.2-1.1,9.2  c-0.6,2.6-1.6,5.1-3.3,7.2c-1.5,2.1-3.7,3.8-6,4.8c-2.9,1.3-6,1.8-9.1,1.7c-2.6,0-5.2-0.5-7.6-1.4c-4.5-1.7-8.1-5.3-10-9.8  c-1-2.3-1.5-4.8-1.4-7.3v-4.2h11.2v3.6c0,2,0.6,4,1.8,5.6c1.3,1.6,3.3,2.5,6.1,2.5c1.5,0.1,3.1-0.2,4.4-0.8c1.1-0.5,1.8-1.4,2.4-2.3  c0.6-1.2,1-2.4,1.1-3.7c0.2-1.4,0.2-3.1,0.2-4.8c0-1.6-0.1-3.4-0.2-5c-0.1-1.2-0.4-2.2-1-3.2c-0.5-0.9-1.2-1.5-1.9-2  c-1.1-0.7-2.2-1.2-3.4-1.6l-8-3.3c-4.8-2-8.1-4.6-9.8-7.9c-1.7-3.9-2.6-8-2.5-12.3c0-2.8,0.4-5.6,1.2-8.3c0.8-2.5,1.9-4.8,3.6-6.9  c1.6-1.9,3.7-3.5,6-4.5c2.7-1.2,5.6-1.7,8.5-1.7c2.6,0,5.2,0.5,7.6,1.5c2.2,1,4.2,2.3,5.9,4.1c1.6,1.6,2.9,3.6,3.8,5.7  c0.9,2,1.4,4.2,1.4,6.5L41.8,726.5z M71.9,703.9h-9.4L45,782.2h11.2l3.3-16.8h15.4l3.3,16.8h11.2L71.9,703.9z M61.6,754.9l5.5-28.4  h0.2l5.5,28.4H61.6z M94.9,703.9h11.2V771h22.2v11.2H94.9V703.9z M149.4,782.2h-9.9l-15.9-78.3h11.9l8.9,54.7h0.2l9.1-54.7h11.9  L149.4,782.2z M190,703.9h-9.4l-17.4,78.3h11.2l3.3-16.8H193l3.3,16.8h11.2L190,703.9z M179.7,754.9l5.5-28.4h0.2l5.5,28.4H179.7z   M244.3,709.2c-3.4-3.6-8.3-5.3-14.7-5.3H213v78.3h15.6c6.7,0,11.8-1.7,15.4-5.2c3.6-3.5,5.3-8.9,5.3-16.2v-36.7  C249.3,717.7,247.7,712.8,244.3,709.2z M238.2,761.8c0,3.4-0.7,5.9-2,7.4c-1.4,1.6-3.6,2.4-6.8,2.4h-5.2v-57.3h5.3  c3.4,0,5.6,0.9,6.9,2.5c1.3,1.6,1.8,4.1,1.8,7.1V761.8z M296.9,722.4c0.1-2.9-0.5-5.8-1.6-8.4c-1-2.3-2.5-4.3-4.3-6  c-1.8-1.5-3.9-2.8-6.1-3.6c-4.3-1.6-9.2-1.6-13.5,0c-2.2,0.8-4.3,2-6.1,3.6c-1.8,1.6-3.4,3.7-4.3,6c-1.2,2.7-1.7,5.5-1.7,8.4  l0.1,41.3c-0.1,2.9,0.5,5.8,1.6,8.4c1,2.3,2.5,4.3,4.3,6c1.8,1.5,3.9,2.8,6.1,3.6c4.3,1.6,9.2,1.6,13.5,0c2.2-0.8,4.3-2,6.1-3.6  c1.8-1.7,3.4-3.8,4.3-6c1.2-2.6,1.7-5.5,1.6-8.4V722.4z M285.5,763.7c0,2.7-0.7,4.7-2.2,6c-3.1,2.6-7.5,2.6-10.6,0  c-1.4-1.3-2.2-3.3-2.2-6v-41.3c0-2.7,0.7-4.7,2.2-6c3.1-2.6,7.5-2.6,10.6,0c1.4,1.3,2.2,3.3,2.2,6V763.7z M335,746.5  c3.3-1.7,6-4.5,7.5-7.9c1.5-3.7,2.2-7.6,2.1-11.7c0-15.4-6.6-23-19.8-23h-18.1v78.3h11.1v-33.4h6.8l10.5,33.4H347L335,746.5z   M333,731.9c-0.2,1.4-0.6,2.6-1.3,3.8c-0.7,1.1-1.5,1.9-2.7,2.4c-1.5,0.6-3.1,0.9-4.7,0.8H318l0.1-24.4h5.8c1.6-0.1,3.4,0.2,4.9,0.8  c1.2,0.5,2.2,1.4,2.9,2.4c0.7,1.2,1.2,2.5,1.4,3.9C333.5,724.9,333.5,728.4,333,731.9z M393,771.7l20.3-38.1c0.9-1.5,1.4-3.3,1.7-5  c0.2-1.4,0.2-3.2,0.2-5.3c0-1,0-1.9-0.1-3c-0.1-1-0.3-1.9-0.6-2.8c-0.3-0.8-0.9-1.5-1.5-2c-1-0.6-2-0.9-3.2-0.8  c-2.8-0.3-5.2,1.8-5.5,4.5c0,0.4,0,0.7,0,1.1v6.4h-11.2v-6.2c0-2.2,0.5-4.5,1.4-6.6c0.9-2,2-3.9,3.6-5.4c1.5-1.5,3.4-2.8,5.3-3.7  c2.1-1,4.3-1.4,6.6-1.4c2.6-0.1,5.2,0.5,7.5,1.6c2,1.1,3.9,2.5,5.2,4.3c1.4,1.9,2.4,4.1,3,6.3c0.7,2.4,1,4.9,1,7.5  c0,1.9,0,3.6-0.1,4.8c-0.1,1.3-0.2,2.5-0.5,3.7c-0.2,1.3-0.6,2.4-1.1,3.6c-0.5,1.2-1.3,2.6-2.1,4.2L406.2,771h20.3v11.2H393V771.7z   M466,713c-0.9-2-2.1-3.8-3.7-5.3c-1.5-1.4-3.3-2.6-5.3-3.4c-4.1-1.5-8.6-1.5-12.7,0c-2,0.7-3.9,1.9-5.4,3.4  c-1.5,1.5-2.8,3.3-3.7,5.3c-1,2.2-1.4,4.6-1.4,7.1l0.1,46c-0.1,2.4,0.4,4.8,1.4,7.1c0.9,2,2.1,3.8,3.7,5.3c1.5,1.4,3.3,2.6,5.3,3.4  c4.1,1.5,8.6,1.5,12.7,0c1.9-0.8,3.8-1.9,5.3-3.4c1.5-1.5,2.8-3.3,3.7-5.3c1-2.2,1.4-4.6,1.4-7.1v-46C467.5,717.7,467,715.3,466,713  z M456.2,720v46.1c0,1.5-0.5,3-1.5,4.1c-2.2,2.1-5.7,2.1-7.9,0c-1.1-1.2-1.6-2.6-1.5-4.1V720c0-1.5,0.5-3,1.5-4.1  c2.2-2.1,5.7-2.1,7.9,0C455.7,717.1,456.3,718.5,456.2,720z M488.1,715.7l-11.2,8.2v-11.9l11.2-8.2h11.3v78.3h-11.2L488.1,715.7z   M538.1,714.4h-12.4v9h-9.9v-19.6h33.4V715l-19,67.1h-11.9L538.1,714.4z M372.6,738.2c-4.8,0-8.7,3.9-8.7,8.7s3.9,8.7,8.7,8.7  s8.7-3.9,8.7-8.7S377.4,738.2,372.6,738.2z M553.2,825c-5.5-9.5-11.5-12.4-22.2-10.9l-4.3,0.7c-5.5-1.6-11.1-3.7-17-2.2  c-1.8,0.5-5.2-1.3-4.6,3.3c0.8,5.3,3.9,2.1,6.1,2.2l1.3,3.4c-4.2,2.8-7.7,4.1-10.4-2.3c-0.8-1.8-4.3-7.5-8.1-1.5  c-1.9-2.1-6.4,2.8-7.2-2.7c-0.1-0.9,5.6-2.1-0.2-2.7c-6.1-0.6-5.7,3.5-5.7,7s0.6,6.3-4.9,5.1c1.1-1.8,2.4-3.2,2.7-4.8  c0.4-2.4,1.7-6.7-2.2-6.4c-3.7,0.2-10.9-3.1-10.7,2.6c0.2,6.2-7.7,16.4,5.9,19.2c2.8,0.6,1.9,4.2,1.9,6.5c0,17.5,0,35.1-0.2,52.6  c0,2.1,0.7,5.5-1.4,5.8c-13,2.2-4.8,12.1-6.7,18.2c-1,3.1,1.9,4,4.7,3.9c4.3-0.1,8.6,0,12.9-0.1c5.5-0.2,9.6-3.2,10.9-8  c0.9-3.2,1.1-4.7,4.2-2.8c2.3,1.4,4.7,3.3,2,6.4c-0.8,0.8-3.6,0.1-1.8,2.7c1.2,1.7,15,2.1,15.6,0.2c2.1-6-1-11.9-0.9-18  c0.1-2.8-6.4-0.9-9.8-1.2l-0.6-0.3c-0.7-4.3-2.4-12,1-12.1c7.2,0,13.8-5.2,21.3-2c5.9,2.8,11-3.6,17.1-3c0.2,0,0.7-4.2,1.1-6.4  c6.5,2.5,10-0.5,11.8-6.5C559.2,855.4,560,840.1,553.2,825z M528.9,860.8c-5,5.2-17.9,8.3-24.3,6c-3.1-1.1-3-3.5-3-5.9  c0-7.3,0.2-14.7-0.1-22c-0.2-4.7,1.9-6.2,6.5-6.5c18.5-1.2,21.8,1.9,20.9,20.2C528.8,855.3,528.9,858.1,528.9,860.8  c3.6-2.8,4.6-6.1,4.6-9.5c0-2.6-0.6-5.4-1-8c0.4,2.6,1,5.4,1,8C533.5,854.7,532.5,858,528.9,860.8z M651.2,916.6  c-0.2-1.8-0.4-3.7,0.3-5.4C650.8,912.9,651.1,914.8,651.2,916.6l-1.6,1.1c-5.7,4.4-12.7,4.8-19.2,5.1c-16.9,1.1-33.8,0.6-50.6-1.5  c-4.9-0.6-7.2-2.2-6.6-7.4c1-9.2-1.9-18.8,3.5-28.5c1.6,4.3,2.3,8.9,6.8,2.7c3.3-4.6,9.3-3.2,13.8-2.2c4.7,1,3,6.2,2.6,9.5  c-0.8,7.1,2.4,9.5,9,9.2c3.1-0.2,6.2,0.1,9.2-0.1c5.8-0.3,12.3,0.4,14-7.3c1.6-7.2,0.3-13.5-7.7-16.5c-5.6-3.4-12.5,0.1-18.2-3.3  c-5.5-1.3-11.9-0.7-14.4-7.7c-1-2.7-2-1-3.1,0c-1.5,1.3-4.7,1.4-4.2-0.2c3.8-10-6.8-4.2-8.5-7.6c0.7-4.4,4.5,2.8,4.7-1.8  c0.1-1.7-0.9-5.1-1.1-5c-11.1,1-5.5-7.2-6.5-11.6c-1.2-20.2,6-29.3,25.8-31.6c7.3-0.8,14.7-0.7,22-0.7c11.4,0,15.1,5.2,12.9,17.5  c2.1,1.2,2.5,5.8,6.2,3.6c2.2-1.3,3.4-3.7,3.1-6.2c-1.3-12.3-1.3-12.3,11.3-12.9l2.1,0.7l1.4,2.1h-0.1c-0.2,7.6-0.8,15.2-0.4,22.8  c0.3,5.8-1.9,7.8-7.4,7.1c-3.6-0.5-7.3-0.7-10.9-0.7c-6.8,0.3-9.6-2-9.3-9.4c0.4-9.7-8.6-3.2-12.3-6.2c-6.7,0.5-13.4,0.9-18.3,6.6  c-1.1,2.9-1.1,6.1-0.2,9l0,0c2.5,2.1,6.3,3.1,3.9,8.1c-1.7,3.7,1.7,5.9,4.5,8.5c4.2-7,8.6-13.8,15.8-3c3.4-8.1,7.4,1.1,11.8-0.3  c6.7-2.1,13.2,1.6,18.4,6.2C666.3,875.5,664.7,906.8,651.2,916.6z M452.1,851.2c3.4-1.8,1.7-3.4,0.5-4.8c-1.8-2.1-3.9-1.4-5.2,0.7  c-2,3.3-4.2,6.6-3.9,10.8c-2.9,0.2-6.7,0.1-5.4-3.8c3.8-11.2-10.7-20.4-3.2-31.9c1.3-2-1.4-2.9-2.9-3.9c-3.6-2.4-7.4-4.5-10.7-7.2  c-3.3-2.7-5.8-1.8-8.8,0.7c-8.4,6.8-17.1,5.3-22.9-4.4c-2.5-4.2-5.2-6-9.6-4.1c-5.6,2.5-15.2-0.2-15.3,9.7  c-0.1,6.6-3.5,9.2-8.5,11.3l-0.2,0.1c-3.7,5-7.6,3.8-11.7,0.5l-0.2-0.1l-5.5,0.4c-1.8,3.2-3.3,6.6-5.5,9.5  c-4.1,5.3-5.9,9.4,0.3,15.2c5.7,5.4,0.6,17.4-7.9,20.7l-2.5,1.3l-1.5,4.9l0.5,3.8c0.7,1.3,2,2.7,2,4.1c0,8.1,4.2,11.3,11.8,11  c2.2-0.1,4.4,0.3,4.7,3.2l2.7,3.8c0.6,0.1,1,0.7,1,1.4c2.4,1.4,4,4.1,2.9,6.2c-5.2,9.8,1.9,13.8,8,18.4c4.2,2,8.3,4.8,12.3-0.7  c6.6-9,13.1-2.9,19.6,0.5c2.2,2.6,3.7,5.8,4.3,9.1c5,2.8,9.5-1.2,14.2-1.2c6.4,0,8.6-3.6,9.3-9.8c1.2-11.1,8.9-15.4,19.8-11.8  c1.8,0.6,4,2,5.1,0.5c3.9-4.7,7.4-9.8,10.3-15.2c2-3.9-2.1-6.5-4.2-9.3c-3.7-5-3.2-14.3,1.2-18.1c8.8-7.6,8.8-8-1.1-14.6  C447.9,855.7,449.5,852.6,452.1,851.2z M389.1,921.1c-3.6,0.6-2.7-3.7-4-6.3c2.5,5.9,7.6-4,9.1,1.8  C394.5,917.6,391.1,920.8,389.1,921.1z M421,870.1c-1,16.1-16.7,30.9-32.6,30c-17.4-1-32.8-11.7-31.8-33.3  c0.7-17.7,15.6-31.6,33.3-30.9C406.7,836.3,422.1,853.2,421,870.1z" /><g
     id="g5278"
     transform="matrix(1.4469732,0,0,1.4469732,-292.73386,-193.05815)"><g
       id="Background"><rect
         id="rect5195"
         height="932"
         width="1111"
         y="0"
         x="0"
         style="fill:#000000;fill-opacity:0" /></g><g
       id="Brain Shape"
       style="fill:#ffffff"
       transform="translate(-640.41865,-23.362912)" /></g></svg>