<?xml version="1.0" encoding="UTF-8" standalone="no"?>
<svg
   xmlns:dc="http://purl.org/dc/elements/1.1/"
   xmlns:cc="http://creativecommons.org/ns#"
   xmlns:rdf="http://www.w3.org/1999/02/22-rdf-syntax-ns#"
   xmlns:svg="http://www.w3.org/2000/svg"
   xmlns="http://www.w3.org/2000/svg"
   viewBox="0 0 456 266.66666"
   height="266.66666"
   width="456"
   xml:space="preserve"
   id="svg2"
   version="1.1"><metadata
     id="metadata8"><rdf:RDF><cc:Work
         rdf:about=""><dc:format>image/svg+xml</dc:format><dc:type
           rdf:resource="http://purl.org/dc/dcmitype/StillImage" /></cc:Work></rdf:RDF></metadata><defs
     id="defs6" /><g
     transform="matrix(1.3333333,0,0,-1.3333333,0,266.66667)"
     id="g10"><g
       transform="scale(0.1)"
       id="g12"><path
         id="path14"
         style="fill:#ffffff;fill-opacity:1;fill-rule:nonzero;stroke:none"
         d="M 9.99609,9.99219 H 3411.56 V 1993.99 H 9.99609 V 9.99219" /><path
         id="path16"
         style="fill:#db7239;fill-opacity:1;fill-rule:nonzero;stroke:none"
         d="m 455.938,1069.82 95.316,-0.03 -0.043,88.66 -95.402,0.02 -162.344,-68.04 0.086,-88.81 162.387,68.2" /><path
         id="path18"
         style="fill:#db7239;fill-opacity:1;fill-rule:nonzero;stroke:none"
         d="m 455.938,942.418 h 95.316 l -0.043,88.642 -95.453,-0.02 -162.293,-67.958 0.086,-88.828 162.387,68.164" /><path
         id="path20"
         style="fill:#414a5d;fill-opacity:1;fill-rule:nonzero;stroke:none"
         d="M 880.973,894.875 H 798.285 L 678.484,1052.63 V 894.875 h -64.629 v 315.945 h 64.629 v -151.87 l 123.871,151.87 H 880.07 L 754.879,1056.23 880.973,894.875" /><path
         id="path22"
         style="fill:#414a5d;fill-opacity:1;fill-rule:nonzero;stroke:none"
         d="m 1097.23,894.875 h -59.66 v 146.715 c 0,10.59 -1.84,18.18 -5.43,22.73 -6.32,7.88 -18.28,11.81 -35.71,11.81 H 947.598 V 894.875 H 888.84 v 231.875 h 113 c 33.11,0 56.66,-5.3 70.5,-15.89 16.56,-12.7 24.89,-35.68 24.89,-68.99 V 894.875" /><path
         id="path24"
         style="fill:#414a5d;fill-opacity:1;fill-rule:nonzero;stroke:none"
         d="m 1293.36,1010.13 c 0,20.48 -5,37.21 -15,50.17 -10.93,14.17 -25.81,21.24 -44.66,21.24 -14.86,0 -28.06,-5.57 -39.63,-16.7 -13.96,-13.25 -20.98,-31.5 -20.98,-54.71 0,-18.364 5.2,-34.337 15.52,-47.923 11.57,-15.336 26.32,-23.035 44.23,-23.035 18.48,0 33.48,7.371 45.02,22.144 10.35,13.258 15.5,29.547 15.5,48.814 z m 61.02,0.89 c 0,-36.778 -10.93,-66.047 -32.77,-87.895 -21.81,-21.852 -51.31,-32.777 -88.37,-32.777 -36.76,0 -66.15,10.695 -88.13,32.097 -21.98,21.379 -32.97,50.93 -32.97,88.575 0,45.21 14.59,77.89 43.84,98.09 20.75,14.48 46.54,21.68 77.26,21.68 29.51,0 55.01,-7.5 76.37,-22.58 29.85,-21.08 44.77,-53.5 44.77,-97.19" /><path
         id="path26"
         style="fill:#414a5d;fill-opacity:1;fill-rule:nonzero;stroke:none"
         d="m 1729.05,1126.75 -77.66,-231.875 -67.32,0.031 -51.02,161.874 -49.71,-161.956 -64.68,0.051 -80.11,231.875 h 61.04 l 51.07,-166.344 51.52,166.344 h 62.8 l 52.47,-166.344 50.59,166.344 h 61.01" /><path
         id="path28"
         style="fill:#414a5d;fill-opacity:1;fill-rule:nonzero;stroke:none"
         d="m 1738.29,894.875 h 61.03 v 315.945 h -61.03 V 894.875" /><path
         id="path30"
         style="fill:#414a5d;fill-opacity:1;fill-rule:nonzero;stroke:none"
         d="m 2010.21,894.875 h -87.71 c -37.7,0 -66.3,10.449 -85.89,31.301 -19.59,20.871 -29.36,49.172 -29.36,84.844 0,45.99 14,78.37 42.04,97.13 18.38,12.39 42.76,18.6 73.21,18.6 h 87.71 v -46.55 h -80.12 c -20.93,0 -35.64,-3.28 -44.1,-9.82 -8.49,-6.55 -12.73,-18.64 -12.73,-36.32 h 136.95 v -47.419 h -136.95 c 0,-17.078 3.85,-28.918 11.49,-35.618 7.73,-6.71 22.82,-10.07 45.43,-10.07 h 80.03 v -46.078" /><path
         id="path32"
         style="fill:#414a5d;fill-opacity:1;fill-rule:nonzero;stroke:none"
         d="m 2189.79,942.313 v 134.267 h -32.66 c -27.86,0 -46.99,-5.23 -57.4,-15.65 -10.46,-10.46 -15.68,-29.59 -15.68,-57.38 0,-20.245 3.93,-34.769 11.82,-43.534 10.56,-11.782 30.09,-17.703 58.56,-17.703 z m 59.67,-47.438 h -116.14 c -28.64,0 -52.89,7.68 -72.75,23.098 -25.94,20.218 -38.88,50.722 -38.88,91.487 0,38.95 10.83,68.68 32.56,89.21 19.82,18.72 46.55,28.08 79.98,28.08 h 55.11 l 0.45,84.07 h 59.67 V 894.875" /><path
         id="path34"
         style="fill:#414a5d;fill-opacity:1;fill-rule:nonzero;stroke:none"
         d="m 2430.39,941.395 v 137.445 h -32.55 c -28.64,0 -48.64,-6.37 -60.11,-19.05 -9.94,-10.89 -14.93,-27.98 -14.93,-51.24 0,-22.093 4.38,-38.265 13.15,-48.534 10.5,-12.391 28.91,-18.621 55.1,-18.621 z m 60.11,-37.797 c 0,-30.493 -6.77,-53.403 -20.32,-68.797 -13.57,-15.375 -35.6,-23.074 -66.04,-23.074 h -118.39 v 45.66 h 107.56 c 24.71,0 37.08,12.484 37.08,37.488 h -56.03 c -28.97,0 -52.73,6.5 -71.43,19.488 -28.04,19.301 -42.02,51.293 -42.02,95.997 0,38.65 10.28,67.7 30.92,87.18 20.71,19.48 50.26,29.21 88.88,29.21 H 2490.5 V 903.598" /><path
         id="path36"
         style="fill:#414a5d;fill-opacity:1;fill-rule:nonzero;stroke:none"
         d="m 2703.95,894.875 h -87.7 c -37.67,0 -66.27,10.449 -85.84,31.301 -19.59,20.871 -29.39,49.172 -29.39,84.844 0,45.99 14,78.37 42.03,97.13 18.38,12.39 42.79,18.6 73.2,18.6 h 87.7 v -46.55 h -80.07 c -20.92,0 -35.64,-3.28 -44.11,-9.82 -8.55,-6.55 -12.77,-18.64 -12.77,-36.32 h 136.95 V 986.641 H 2567 c 0,-17.078 3.86,-28.918 11.5,-35.618 7.77,-6.71 22.89,-10.07 45.44,-10.07 h 80.01 v -46.078" /><path
         id="path38"
         style="fill:#db7239;fill-opacity:1;fill-rule:nonzero;stroke:none"
         d="m 2999.43,1122.22 c 0,-30.41 -7.12,-53.48 -21.2,-69.17 -15.41,-17.16 -39.5,-25.76 -72.32,-25.76 h -59.23 c -17.77,0 -30.96,-3.72 -39.57,-11.11 -8.59,-7.43 -12.84,-23.555 -12.84,-48.438 v -19.527 h 203.82 v -53.34 H 2725.1 v 95.129 c 0,32.326 7.8,55.446 23.49,69.336 17.17,15.42 46.7,23.11 88.54,23.11 h 53.37 c 10.56,0 19.29,3.16 26.25,9.5 6.91,6.34 10.36,14.91 10.36,25.75 0,13.56 -3.45,23.32 -10.36,29.38 -8.12,6.92 -22.19,10.39 -42.05,10.39 h -149.6 v 53.35 h 178.97 c 30.14,0 53.16,-6.8 69.14,-20.34 17.47,-14.8 26.22,-37.54 26.22,-68.26" /><path
         id="path40"
         style="fill:#db7239;fill-opacity:1;fill-rule:nonzero;stroke:none"
         d="m 3066.61,1210.82 -43.43,-19.57 0.07,-49.75 37.93,16 V 894.875 h 66.93 v 315.945 h -61.5" /><path
         id="path42"
         style="fill:#db7239;fill-opacity:1;fill-rule:nonzero;stroke:none"
         d="m 663.184,873.137 v -10.84 h -18.313 v -50.363 h -12.867 v 50.363 h -18.391 v 10.84 h 49.571" /><path
         id="path44"
         style="fill:#db7239;fill-opacity:1;fill-rule:nonzero;stroke:none"
         d="m 706.734,856.934 c 2.266,-0.973 4.141,-2.45 5.602,-4.442 1.238,-1.687 1.996,-3.429 2.273,-5.219 0.27,-1.789 0.407,-4.703 0.407,-8.75 v -26.589 h -12.075 v 27.558 c 0,2.442 -0.421,4.403 -1.238,5.899 -1.074,2.101 -3.101,3.164 -6.098,3.164 -3.109,0 -5.464,-1.047 -7.074,-3.141 -1.605,-2.09 -2.41,-5.078 -2.41,-8.961 v -24.519 h -11.832 v 60.984 h 11.832 v -21.586 c 1.707,2.633 3.688,4.473 5.938,5.5 2.246,1.043 4.609,1.551 7.082,1.551 2.789,0 5.32,-0.469 7.593,-1.449" /><path
         id="path46"
         style="fill:#db7239;fill-opacity:1;fill-rule:nonzero;stroke:none"
         d="m 742.438,846.051 c -1.665,-1.723 -2.719,-4.059 -3.145,-7.004 h 20.379 c -0.211,3.137 -1.262,5.527 -3.152,7.144 -1.879,1.637 -4.227,2.446 -7.016,2.446 -3.031,0 -5.395,-0.86 -7.066,-2.586 z m 17.707,10.211 c 3.152,-1.41 5.765,-3.637 7.82,-6.692 1.851,-2.683 3.051,-5.804 3.598,-9.343 0.328,-2.086 0.457,-5.086 0.394,-8.981 h -32.961 c 0.188,-4.555 1.766,-7.73 4.731,-9.558 1.808,-1.137 3.988,-1.696 6.527,-1.696 2.691,0 4.891,0.692 6.574,2.071 0.918,0.75 1.727,1.785 2.438,3.109 h 12.078 c -0.317,-2.68 -1.785,-5.406 -4.391,-8.164 -4.051,-4.414 -9.73,-6.606 -17.019,-6.606 -6.032,0 -11.34,1.852 -15.95,5.563 -4.597,3.707 -6.902,9.75 -6.902,18.121 0,7.836 2.074,13.836 6.231,18.031 4.16,4.176 9.554,6.266 16.191,6.266 3.93,0 7.48,-0.695 10.641,-2.121" /><path
         id="path48"
         style="fill:#db7239;fill-opacity:1;fill-rule:nonzero;stroke:none"
         d="m 823.949,862.492 v -39.937 h 11.813 c 6.043,0 10.25,2.976 12.636,8.929 1.305,3.274 1.954,7.161 1.954,11.668 0,6.231 -0.981,11.012 -2.934,14.34 -1.953,3.34 -5.836,5 -11.656,5 z m 23.442,9.309 c 4.297,-1.41 7.777,-3.996 10.433,-7.758 2.129,-3.051 3.586,-6.336 4.36,-9.879 0.781,-3.551 1.168,-6.934 1.168,-10.137 0,-8.14 -1.637,-15.035 -4.907,-20.679 -4.429,-7.602 -11.273,-11.414 -20.523,-11.414 h -26.391 v 61.203 h 26.391 c 3.793,-0.063 6.953,-0.5 9.469,-1.336" /><path
         id="path50"
         style="fill:#db7239;fill-opacity:1;fill-rule:nonzero;stroke:none"
         d="m 876.66,857.184 h 11.996 v -45.25 H 876.66 Z m 11.996,5.402 H 876.66 v 10.922 h 11.996 v -10.922" /><path
         id="path52"
         style="fill:#db7239;fill-opacity:1;fill-rule:nonzero;stroke:none"
         d="m 931.043,824.781 c 1.902,2.094 2.852,5.422 2.852,9.985 0,4.297 -0.907,7.558 -2.707,9.808 -1.809,2.231 -4.227,3.348 -7.254,3.348 -4.137,0 -6.993,-1.949 -8.567,-5.848 -0.824,-2.078 -1.238,-4.629 -1.238,-7.683 0,-2.629 0.441,-4.965 1.328,-7.008 1.594,-3.828 4.457,-5.727 8.598,-5.727 2.754,0 5.086,1.035 6.988,3.125 z m -4.031,32.442 c 2.879,-1.188 5.195,-3.368 6.965,-6.551 v 6.512 h 11.543 v -42.926 c 0,-5.84 -0.981,-10.242 -2.946,-13.207 -3.379,-5.09 -9.859,-7.633 -19.437,-7.633 -5.785,0 -10.5,1.137 -14.153,3.398 -3.66,2.282 -5.675,5.664 -6.066,10.176 h 12.875 c 0.328,-1.39 0.875,-2.39 1.621,-2.984 1.27,-1.094 3.418,-1.621 6.434,-1.621 4.261,0 7.113,1.414 8.55,4.277 0.938,1.816 1.411,4.899 1.411,9.207 v 2.902 c -1.133,-1.929 -2.352,-3.378 -3.653,-4.351 -2.351,-1.797 -5.414,-2.695 -9.176,-2.695 -5.808,0 -10.457,2.035 -13.929,6.128 -3.473,4.079 -5.207,9.61 -5.207,16.579 0,6.73 1.672,12.382 5.011,16.961 3.348,4.578 8.09,6.882 14.227,6.882 2.266,0 4.238,-0.363 5.93,-1.054" /><path
         id="path54"
         style="fill:#db7239;fill-opacity:1;fill-rule:nonzero;stroke:none"
         d="m 961.234,857.184 h 12 v -45.25 h -12 z m 12,5.402 h -12 v 10.922 h 12 v -10.922" /><path
         id="path56"
         style="fill:#db7239;fill-opacity:1;fill-rule:nonzero;stroke:none"
         d="m 984.547,848.348 v 8.429 h 6.312 v 12.618 h 11.711 v -12.618 h 7.34 v -8.429 h -7.34 v -23.91 c 0,-1.868 0.23,-3.02 0.7,-3.473 0.48,-0.457 1.91,-0.684 4.32,-0.684 0.36,0 0.74,0 1.14,0.024 0.41,0.008 0.79,0.027 1.18,0.058 v -8.851 l -5.6,-0.211 c -5.587,-0.184 -9.408,0.785 -11.462,2.914 -1.325,1.359 -1.989,3.453 -1.989,6.265 v 27.868 h -6.312" /><path
         id="path58"
         style="fill:#db7239;fill-opacity:1;fill-rule:nonzero;stroke:none"
         d="m 1047.19,833.934 c -0.77,-0.469 -1.53,-0.848 -2.31,-1.137 -0.76,-0.289 -1.83,-0.567 -3.18,-0.817 l -2.69,-0.496 c -2.53,-0.437 -4.34,-0.98 -5.44,-1.613 -1.86,-1.086 -2.78,-2.758 -2.78,-5.023 0,-2.024 0.57,-3.481 1.7,-4.387 1.14,-0.891 2.51,-1.336 4.15,-1.336 2.58,0 4.97,0.738 7.15,2.227 2.17,1.503 3.3,4.222 3.4,8.191 z m -7.25,5.527 c 2.2,0.269 3.78,0.609 4.74,1.031 1.7,0.731 2.55,1.84 2.55,3.36 0,1.859 -0.66,3.14 -1.97,3.855 -1.31,0.695 -3.22,1.051 -5.74,1.051 -2.84,0 -4.84,-0.695 -6.02,-2.086 -0.84,-1.004 -1.41,-2.395 -1.68,-4.149 h -11.42 c 0.24,3.973 1.37,7.219 3.33,9.762 3.15,3.988 8.55,5.992 16.18,5.992 4.98,0 9.4,-0.992 13.27,-2.953 3.86,-1.972 5.8,-5.683 5.8,-11.14 v -20.75 c 0,-1.438 0.02,-3.18 0.07,-5.231 0.09,-1.547 0.33,-2.601 0.72,-3.16 0.37,-0.547 0.95,-1.012 1.73,-1.359 v -1.75 h -12.87 c -0.36,0.918 -0.61,1.769 -0.74,2.582 -0.15,0.797 -0.26,1.707 -0.34,2.73 -1.64,-1.773 -3.54,-3.285 -5.67,-4.523 -2.57,-1.469 -5.47,-2.207 -8.7,-2.207 -4.12,0 -7.52,1.168 -10.2,3.515 -2.69,2.336 -4.02,5.653 -4.02,9.942 0,5.57 2.15,9.59 6.47,12.078 2.37,1.363 5.85,2.324 10.45,2.914 l 4.06,0.496" /><path
         id="path60"
         style="fill:#db7239;fill-opacity:1;fill-rule:nonzero;stroke:none"
         d="m 1074.06,811.934 h 11.83 v 61.203 h -11.83 v -61.203" /><path
         id="path62"
         style="fill:#db7239;fill-opacity:1;fill-rule:nonzero;stroke:none"
         d="m 1175.5,873.137 v -10.84 h -18.32 v -50.363 h -12.86 v 50.363 h -18.4 v 10.84 h 49.58" /><path
         id="path64"
         style="fill:#db7239;fill-opacity:1;fill-rule:nonzero;stroke:none"
         d="m 1207.02,858.254 c 0.14,-0.02 0.48,-0.039 1.02,-0.07 v -12.121 c -0.75,0.078 -1.41,0.144 -2,0.167 -0.58,0.028 -1.06,0.032 -1.41,0.032 -4.76,0 -7.97,-1.551 -9.59,-4.641 -0.91,-1.746 -1.38,-4.433 -1.38,-8.058 v -21.629 h -11.92 v 45.25 h 11.31 v -7.887 c 1.81,3.016 3.41,5.074 4.77,6.183 2.2,1.868 5.09,2.797 8.64,2.797 0.22,0 0.4,-0.011 0.56,-0.023" /><path
         id="path66"
         style="fill:#db7239;fill-opacity:1;fill-rule:nonzero;stroke:none"
         d="m 1244.64,833.934 c -0.76,-0.469 -1.53,-0.848 -2.31,-1.137 -0.76,-0.289 -1.83,-0.567 -3.17,-0.817 l -2.7,-0.496 c -2.51,-0.437 -4.33,-0.98 -5.44,-1.613 -1.86,-1.086 -2.79,-2.758 -2.79,-5.023 0,-2.024 0.57,-3.481 1.72,-4.387 1.12,-0.891 2.51,-1.336 4.14,-1.336 2.58,0 4.96,0.738 7.16,2.227 2.16,1.503 3.3,4.222 3.39,8.191 z m -7.25,5.527 c 2.2,0.269 3.79,0.609 4.74,1.031 1.69,0.731 2.55,1.84 2.55,3.36 0,1.859 -0.66,3.14 -1.97,3.855 -1.3,0.695 -3.22,1.051 -5.74,1.051 -2.83,0 -4.83,-0.695 -6.01,-2.086 -0.85,-1.004 -1.41,-2.395 -1.69,-4.149 h -11.41 c 0.24,3.973 1.35,7.219 3.32,9.762 3.15,3.988 8.55,5.992 16.18,5.992 4.98,0 9.41,-0.992 13.27,-2.953 3.87,-1.972 5.8,-5.683 5.8,-11.14 v -20.75 c 0,-1.438 0.02,-3.18 0.07,-5.231 0.09,-1.547 0.32,-2.601 0.71,-3.16 0.38,-0.547 0.97,-1.012 1.74,-1.359 v -1.75 h -12.86 c -0.37,0.918 -0.61,1.769 -0.75,2.582 -0.13,0.797 -0.26,1.707 -0.34,2.73 -1.63,-1.773 -3.54,-3.285 -5.68,-4.523 -2.55,-1.469 -5.46,-2.207 -8.68,-2.207 -4.12,0 -7.53,1.168 -10.21,3.515 -2.69,2.336 -4.02,5.653 -4.02,9.942 0,5.57 2.14,9.59 6.48,12.078 2.36,1.363 5.86,2.324 10.44,2.914 l 4.06,0.496" /><path
         id="path68"
         style="fill:#db7239;fill-opacity:1;fill-rule:nonzero;stroke:none"
         d="m 1307.75,854.586 c 2.96,-2.445 4.46,-6.5 4.46,-12.172 v -30.48 h -12.14 v 27.527 c 0,2.375 -0.3,4.215 -0.94,5.48 -1.15,2.321 -3.35,3.481 -6.59,3.481 -4,0 -6.72,-1.699 -8.2,-5.098 -0.78,-1.797 -1.16,-4.101 -1.16,-6.902 v -24.488 h -11.84 v 45.168 h 11.46 v -6.594 c 1.52,2.324 2.95,3.996 4.31,5.019 2.43,1.825 5.5,2.75 9.21,2.75 4.66,0 8.48,-1.23 11.43,-3.691" /><path
         id="path70"
         style="fill:#db7239;fill-opacity:1;fill-rule:nonzero;stroke:none"
         d="m 1336.88,826.387 c 0.26,-2.114 0.81,-3.606 1.63,-4.492 1.48,-1.571 4.2,-2.364 8.19,-2.364 2.32,0 4.18,0.34 5.57,1.032 1.36,0.691 2.05,1.734 2.05,3.121 0,1.32 -0.55,2.343 -1.66,3.027 -1.11,0.691 -5.23,1.887 -12.37,3.574 -5.15,1.27 -8.77,2.871 -10.88,4.766 -2.1,1.89 -3.16,4.605 -3.16,8.14 0,4.184 1.65,7.77 4.95,10.782 3.27,3 7.9,4.5 13.86,4.5 5.67,0 10.28,-1.125 13.84,-3.391 3.56,-2.25 5.62,-6.148 6.14,-11.676 h -11.83 c -0.17,1.52 -0.6,2.731 -1.3,3.606 -1.3,1.613 -3.53,2.41 -6.66,2.41 -2.57,0 -4.41,-0.399 -5.52,-1.199 -1.09,-0.797 -1.64,-1.746 -1.64,-2.821 0,-1.355 0.59,-2.347 1.76,-2.945 1.15,-0.641 5.28,-1.734 12.35,-3.293 4.71,-1.098 8.25,-2.781 10.6,-5.012 2.33,-2.277 3.49,-5.109 3.49,-8.519 0,-4.481 -1.68,-8.141 -5.02,-10.992 -3.34,-2.828 -8.51,-4.239 -15.49,-4.239 -7.14,0 -12.39,1.489 -15.8,4.5 -3.39,3.004 -5.09,6.821 -5.09,11.485 h 11.99" /><path
         id="path72"
         style="fill:#db7239;fill-opacity:1;fill-rule:nonzero;stroke:none"
         d="m 1398.23,873.691 c 0.61,-0.039 1.43,-0.109 2.5,-0.183 v -9.633 c -0.68,0.078 -1.78,0.137 -3.35,0.188 -1.56,0.042 -2.65,-0.321 -3.24,-1.047 -0.59,-0.731 -0.89,-1.543 -0.89,-2.422 0,-0.891 0,-2.16 0,-3.817 h 7.77 v -8.355 h -7.77 v -36.488 h -11.75 v 36.488 h -6.64 v 8.355 h 6.47 v 2.895 c 0,4.855 0.81,8.191 2.46,10.012 1.71,2.718 5.84,4.062 12.41,4.062 0.75,0 1.43,-0.012 2.03,-0.055" /><path
         id="path74"
         style="fill:#db7239;fill-opacity:1;fill-rule:nonzero;stroke:none"
         d="m 1440.6,824.012 c 1.85,2.449 2.78,5.953 2.78,10.496 0,4.527 -0.93,8.008 -2.78,10.465 -1.85,2.445 -4.51,3.664 -7.96,3.664 -3.48,0 -6.14,-1.219 -8,-3.664 -1.87,-2.457 -2.8,-5.938 -2.8,-10.465 0,-4.543 0.93,-8.047 2.8,-10.496 1.86,-2.457 4.52,-3.688 8,-3.688 3.45,0 6.11,1.231 7.96,3.688 z m 9.47,-6.539 c -3.82,-4.715 -9.62,-7.071 -17.39,-7.071 -7.79,0 -13.59,2.356 -17.4,7.071 -3.83,4.711 -5.74,10.394 -5.74,17.035 0,6.515 1.91,12.164 5.74,16.957 3.81,4.777 9.61,7.176 17.4,7.176 7.77,0 13.57,-2.399 17.39,-7.176 3.81,-4.793 5.72,-10.442 5.72,-16.957 0,-6.641 -1.91,-12.324 -5.72,-17.035" /><path
         id="path76"
         style="fill:#db7239;fill-opacity:1;fill-rule:nonzero;stroke:none"
         d="m 1493.91,858.254 c 0.16,-0.02 0.5,-0.039 1.02,-0.07 v -12.121 c -0.75,0.078 -1.41,0.144 -2,0.167 -0.57,0.028 -1.04,0.032 -1.41,0.032 -4.75,0 -7.95,-1.551 -9.59,-4.641 -0.91,-1.746 -1.37,-4.433 -1.37,-8.058 v -21.629 h -11.92 v 45.25 h 11.31 v -7.887 c 1.82,3.016 3.41,5.074 4.76,6.183 2.22,1.868 5.09,2.797 8.64,2.797 0.22,0 0.4,-0.011 0.56,-0.023" /><path
         id="path78"
         style="fill:#db7239;fill-opacity:1;fill-rule:nonzero;stroke:none"
         d="m 1562.83,857.027 c 1.94,-0.785 3.71,-2.136 5.28,-4.082 1.27,-1.57 2.12,-3.511 2.57,-5.808 0.28,-1.52 0.41,-3.75 0.41,-6.684 l -0.07,-28.519 h -12.13 v 28.82 c 0,1.711 -0.28,3.117 -0.82,4.226 -1.06,2.106 -3,3.157 -5.82,3.157 -3.27,0 -5.53,-1.36 -6.77,-4.059 -0.64,-1.457 -0.96,-3.187 -0.96,-5.207 v -26.937 h -11.91 v 26.937 c 0,2.692 -0.27,4.641 -0.82,5.859 -1,2.192 -2.95,3.286 -5.87,3.286 -3.38,0 -5.65,-1.094 -6.81,-3.286 -0.63,-1.25 -0.95,-3.097 -0.95,-5.566 v -27.23 h -12 v 45.168 h 11.5 v -6.594 c 1.47,2.344 2.86,4.027 4.15,5.019 2.3,1.766 5.28,2.657 8.94,2.657 3.45,0 6.25,-0.762 8.39,-2.293 1.7,-1.395 3,-3.215 3.9,-5.438 1.54,2.66 3.46,4.61 5.76,5.86 2.45,1.242 5.15,1.871 8.13,1.871 2,0 3.96,-0.391 5.9,-1.157" /><path
         id="path80"
         style="fill:#db7239;fill-opacity:1;fill-rule:nonzero;stroke:none"
         d="m 1611.64,833.934 c -0.76,-0.469 -1.51,-0.848 -2.28,-1.137 -0.79,-0.289 -1.84,-0.567 -3.18,-0.817 l -2.71,-0.496 c -2.52,-0.437 -4.33,-0.98 -5.43,-1.613 -1.86,-1.086 -2.79,-2.758 -2.79,-5.023 0,-2.024 0.56,-3.481 1.7,-4.387 1.14,-0.891 2.52,-1.336 4.16,-1.336 2.59,0 4.95,0.738 7.14,2.227 2.18,1.503 3.3,4.222 3.39,8.191 z m -7.24,5.527 c 2.21,0.269 3.78,0.609 4.73,1.031 1.71,0.731 2.55,1.84 2.55,3.36 0,1.859 -0.64,3.14 -1.96,3.855 -1.29,0.695 -3.22,1.051 -5.74,1.051 -2.82,0 -4.84,-0.695 -6.02,-2.086 -0.83,-1.004 -1.39,-2.395 -1.67,-4.149 h -11.43 c 0.25,3.973 1.37,7.219 3.34,9.762 3.14,3.988 8.53,5.992 16.18,5.992 4.98,0 9.39,-0.992 13.26,-2.953 3.86,-1.972 5.79,-5.683 5.79,-11.14 v -20.75 c 0,-1.438 0.03,-3.18 0.1,-5.231 0.08,-1.547 0.31,-2.601 0.69,-3.16 0.39,-0.547 0.98,-1.012 1.74,-1.359 v -1.75 h -12.87 c -0.36,0.918 -0.6,1.769 -0.75,2.582 -0.13,0.797 -0.25,1.707 -0.32,2.73 -1.64,-1.773 -3.54,-3.285 -5.69,-4.523 -2.56,-1.469 -5.45,-2.207 -8.68,-2.207 -4.11,0 -7.52,1.168 -10.2,3.515 -2.7,2.336 -4.04,5.653 -4.04,9.942 0,5.57 2.16,9.59 6.48,12.078 2.38,1.363 5.86,2.324 10.47,2.914 l 4.04,0.496" /><path
         id="path82"
         style="fill:#db7239;fill-opacity:1;fill-rule:nonzero;stroke:none"
         d="m 1633.63,848.348 v 8.429 h 6.32 v 12.618 h 11.7 v -12.618 h 7.35 v -8.429 h -7.35 v -23.91 c 0,-1.868 0.23,-3.02 0.71,-3.473 0.46,-0.457 1.91,-0.684 4.32,-0.684 0.36,0 0.73,0 1.13,0.024 0.4,0.008 0.8,0.027 1.19,0.058 v -8.851 l -5.61,-0.211 c -5.59,-0.184 -9.41,0.785 -11.46,2.914 -1.32,1.359 -1.98,3.453 -1.98,6.265 v 27.868 h -6.32" /><path
         id="path84"
         style="fill:#db7239;fill-opacity:1;fill-rule:nonzero;stroke:none"
         d="m 1671.27,857.184 h 11.99 v -45.25 h -11.99 z m 11.99,5.402 h -11.99 v 10.922 h 11.99 v -10.922" /><path
         id="path86"
         style="fill:#db7239;fill-opacity:1;fill-rule:nonzero;stroke:none"
         d="m 1727.5,824.012 c 1.87,2.449 2.79,5.953 2.79,10.496 0,4.527 -0.92,8.008 -2.79,10.465 -1.84,2.445 -4.51,3.664 -7.96,3.664 -3.47,0 -6.13,-1.219 -8,-3.664 -1.87,-2.457 -2.8,-5.938 -2.8,-10.465 0,-4.543 0.93,-8.047 2.8,-10.496 1.87,-2.457 4.53,-3.688 8,-3.688 3.45,0 6.12,1.231 7.96,3.688 z m 9.47,-6.539 c -3.81,-4.715 -9.62,-7.071 -17.4,-7.071 -7.78,0 -13.57,2.356 -17.39,7.071 -3.82,4.711 -5.72,10.394 -5.72,17.035 0,6.515 1.9,12.164 5.72,16.957 3.82,4.777 9.61,7.176 17.39,7.176 7.78,0 13.59,-2.399 17.4,-7.176 3.83,-4.793 5.74,-10.442 5.74,-16.957 0,-6.641 -1.91,-12.324 -5.74,-17.035" /><path
         id="path88"
         style="fill:#db7239;fill-opacity:1;fill-rule:nonzero;stroke:none"
         d="m 1792.18,854.586 c 2.96,-2.445 4.43,-6.5 4.43,-12.172 v -30.48 h -12.12 v 27.527 c 0,2.375 -0.32,4.215 -0.95,5.48 -1.15,2.321 -3.34,3.481 -6.59,3.481 -3.99,0 -6.73,-1.699 -8.2,-5.098 -0.78,-1.797 -1.16,-4.101 -1.16,-6.902 v -24.488 h -11.82 v 45.168 h 11.46 v -6.594 c 1.5,2.324 2.94,3.996 4.29,5.019 2.43,1.825 5.49,2.75 9.21,2.75 4.66,0 8.48,-1.23 11.45,-3.691" /><path
         id="path90"
         style="fill:#db7239;fill-opacity:1;fill-rule:nonzero;stroke:none"
         d="m 1847.05,866.73 c 4.93,5.043 11.2,7.563 18.82,7.563 10.18,0 17.63,-3.379 22.34,-10.125 2.61,-3.793 3.99,-7.605 4.19,-11.426 h -12.79 c -0.82,2.942 -1.86,5.153 -3.13,6.641 -2.28,2.668 -5.66,3.988 -10.12,3.988 -4.57,0 -8.16,-1.863 -10.79,-5.629 -2.62,-3.75 -3.93,-9.051 -3.93,-15.914 0,-6.863 1.38,-12.008 4.15,-15.426 2.77,-3.422 6.3,-5.129 10.59,-5.129 4.37,0 7.73,1.469 10.03,4.403 1.27,1.582 2.32,3.937 3.16,7.097 h 12.71 c -1.1,-6.671 -3.9,-12.089 -8.4,-16.265 -4.5,-4.188 -10.29,-6.278 -17.31,-6.278 -8.71,0 -15.55,2.821 -20.54,8.473 -4.98,5.672 -7.48,13.442 -7.48,23.328 0,10.684 2.84,18.922 8.5,24.699" /><path
         id="path92"
         style="fill:#db7239;fill-opacity:1;fill-rule:nonzero;stroke:none"
         d="m 1934.43,824.012 c 1.87,2.449 2.8,5.953 2.8,10.496 0,4.527 -0.93,8.008 -2.8,10.465 -1.84,2.445 -4.5,3.664 -7.97,3.664 -3.46,0 -6.12,-1.219 -7.99,-3.664 -1.86,-2.457 -2.79,-5.938 -2.79,-10.465 0,-4.543 0.93,-8.047 2.79,-10.496 1.87,-2.457 4.53,-3.688 7.99,-3.688 3.47,0 6.13,1.231 7.97,3.688 z m 9.47,-6.539 c -3.81,-4.715 -9.61,-7.071 -17.4,-7.071 -7.77,0 -13.57,2.356 -17.39,7.071 -3.81,4.711 -5.73,10.394 -5.73,17.035 0,6.515 1.92,12.164 5.73,16.957 3.82,4.777 9.62,7.176 17.39,7.176 7.79,0 13.59,-2.399 17.4,-7.176 3.82,-4.793 5.73,-10.442 5.73,-16.957 0,-6.641 -1.91,-12.324 -5.73,-17.035" /><path
         id="path94"
         style="fill:#db7239;fill-opacity:1;fill-rule:nonzero;stroke:none"
         d="m 2019.07,857.027 c 1.95,-0.785 3.7,-2.136 5.28,-4.082 1.28,-1.57 2.12,-3.511 2.58,-5.808 0.27,-1.52 0.41,-3.75 0.41,-6.684 l -0.09,-28.519 h -12.11 v 28.82 c 0,1.711 -0.28,3.117 -0.84,4.226 -1.05,2.106 -2.99,3.157 -5.81,3.157 -3.26,0 -5.53,-1.36 -6.77,-4.059 -0.64,-1.457 -0.96,-3.187 -0.96,-5.207 v -26.937 h -11.9 v 26.937 c 0,2.692 -0.29,4.641 -0.84,5.859 -1,2.192 -2.95,3.286 -5.86,3.286 -3.37,0 -5.64,-1.094 -6.81,-3.286 -0.63,-1.25 -0.95,-3.097 -0.95,-5.566 v -27.23 h -11.99 v 45.168 h 11.5 v -6.594 c 1.47,2.344 2.84,4.027 4.14,5.019 2.31,1.766 5.29,2.657 8.93,2.657 3.47,0 6.25,-0.762 8.4,-2.293 1.7,-1.395 3.01,-3.215 3.89,-5.438 1.55,2.66 3.48,4.61 5.77,5.86 2.44,1.242 5.16,1.871 8.13,1.871 2.01,0 3.96,-0.391 5.9,-1.157" /><path
         id="path96"
         style="fill:#db7239;fill-opacity:1;fill-rule:nonzero;stroke:none"
         d="m 2071.7,843.813 c -1.6,2.695 -4.22,4.039 -7.82,4.039 -4.33,0 -7.32,-2.036 -8.93,-6.11 -0.84,-2.168 -1.27,-4.894 -1.27,-8.219 0,-5.261 1.41,-8.953 4.23,-11.082 1.68,-1.25 3.67,-1.878 5.97,-1.878 3.32,0 5.87,1.281 7.6,3.82 1.75,2.555 2.64,5.941 2.64,10.18 0,3.48 -0.82,6.57 -2.42,9.25 z m 9.09,8.523 c 3.68,-3.914 5.53,-9.641 5.53,-17.195 0,-7.977 -1.8,-14.043 -5.41,-18.227 -3.61,-4.184 -8.25,-6.273 -13.93,-6.273 -3.64,0 -6.64,0.902 -9.03,2.707 -1.32,1 -2.59,2.449 -3.84,4.355 v -23.582 h -11.72 v 63.063 h 11.34 v -6.676 c 1.27,1.965 2.65,3.515 4.09,4.648 2.64,2.016 5.8,3.028 9.45,3.028 5.32,0 9.81,-1.954 13.52,-5.848" /><path
         id="path98"
         style="fill:#db7239;fill-opacity:1;fill-rule:nonzero;stroke:none"
         d="m 2124.34,833.934 c -0.77,-0.469 -1.54,-0.848 -2.3,-1.137 -0.77,-0.289 -1.84,-0.567 -3.18,-0.817 l -2.7,-0.496 c -2.53,-0.437 -4.34,-0.98 -5.43,-1.613 -1.86,-1.086 -2.8,-2.758 -2.8,-5.023 0,-2.024 0.57,-3.481 1.7,-4.387 1.15,-0.891 2.52,-1.336 4.16,-1.336 2.59,0 4.96,0.738 7.14,2.227 2.18,1.503 3.31,4.222 3.41,8.191 z m -7.25,5.527 c 2.2,0.269 3.77,0.609 4.73,1.031 1.7,0.731 2.56,1.84 2.56,3.36 0,1.859 -0.66,3.14 -1.97,3.855 -1.3,0.695 -3.21,1.051 -5.75,1.051 -2.82,0 -4.83,-0.695 -6.02,-2.086 -0.84,-1.004 -1.39,-2.395 -1.68,-4.149 h -11.42 c 0.25,3.973 1.37,7.219 3.35,9.762 3.13,3.988 8.52,5.992 16.17,5.992 4.98,0 9.39,-0.992 13.26,-2.953 3.86,-1.972 5.81,-5.683 5.81,-11.14 v -20.75 c 0,-1.438 0.01,-3.18 0.08,-5.231 0.08,-1.547 0.32,-2.601 0.7,-3.16 0.38,-0.547 0.97,-1.012 1.75,-1.359 v -1.75 h -12.87 c -0.36,0.918 -0.61,1.769 -0.75,2.582 -0.15,0.797 -0.25,1.707 -0.33,2.73 -1.65,-1.773 -3.55,-3.285 -5.69,-4.523 -2.57,-1.469 -5.45,-2.207 -8.69,-2.207 -4.12,0 -7.52,1.168 -10.2,3.515 -2.68,2.336 -4.04,5.653 -4.04,9.942 0,5.57 2.16,9.59 6.48,12.078 2.38,1.363 5.86,2.324 10.47,2.914 l 4.05,0.496" /><path
         id="path100"
         style="fill:#db7239;fill-opacity:1;fill-rule:nonzero;stroke:none"
         d="m 2187.46,854.586 c 2.95,-2.445 4.44,-6.5 4.44,-12.172 v -30.48 h -12.11 v 27.527 c 0,2.375 -0.33,4.215 -0.95,5.48 -1.17,2.321 -3.37,3.481 -6.61,3.481 -3.98,0 -6.71,-1.699 -8.2,-5.098 -0.76,-1.797 -1.14,-4.101 -1.14,-6.902 v -24.488 h -11.85 v 45.168 h 11.46 v -6.594 c 1.52,2.324 2.95,3.996 4.3,5.019 2.43,1.825 5.5,2.75 9.22,2.75 4.66,0 8.47,-1.23 11.44,-3.691" /><path
         id="path102"
         style="fill:#db7239;fill-opacity:1;fill-rule:nonzero;stroke:none"
         d="m 2209.2,803.254 1.5,-0.082 c 1.16,-0.059 2.25,-0.008 3.31,0.133 1.06,0.129 1.95,0.437 2.65,0.941 0.7,0.477 1.34,1.457 1.93,2.945 0.61,1.5 0.86,2.411 0.79,2.75 l -16.65,47.243 h 13.18 l 9.87,-33.379 9.35,33.379 h 12.57 l -15.5,-44.496 c -3.02,-8.586 -5.38,-13.915 -7.13,-15.977 -1.73,-2.055 -5.24,-3.086 -10.48,-3.086 -1.05,0 -1.89,0.008 -2.53,0.02 -0.63,0.019 -1.6,0.07 -2.86,0.136 v 9.473" /></g></g></svg>