<?xml version="1.0" encoding="UTF-8" standalone="no"?>
<!-- Created with Inkscape (http://www.inkscape.org/) -->

<svg
   xmlns:dc="http://purl.org/dc/elements/1.1/"
   xmlns:cc="http://creativecommons.org/ns#"
   xmlns:rdf="http://www.w3.org/1999/02/22-rdf-syntax-ns#"
   xmlns:svg="http://www.w3.org/2000/svg"
   xmlns="http://www.w3.org/2000/svg"
   xmlns:sodipodi="http://sodipodi.sourceforge.net/DTD/sodipodi-0.dtd"
   xmlns:inkscape="http://www.inkscape.org/namespaces/inkscape"
   width="1700"
   height="563.04871"
   viewBox="0 0 1700 563.04868"
   id="svg2"
   version="1.1"
   inkscape:version="0.91 r13725"
   sodipodi:docname="agilize-marca.svg"
   inkscape:export-filename="/home/thiago/Agilize/App-Graphic-Assets/tv-banner.png"
   inkscape:export-xdpi="90"
   inkscape:export-ydpi="90">
  <defs
     id="defs4" />
  <sodipodi:namedview
     id="base"
     pagecolor="#ffffff"
     bordercolor="#666666"
     borderopacity="1.0"
     inkscape:pageopacity="0.0"
     inkscape:pageshadow="2"
     inkscape:zoom="0.49497475"
     inkscape:cx="938.62124"
     inkscape:cy="406.54745"
     inkscape:document-units="px"
     inkscape:current-layer="layer3"
     showgrid="false"
     units="px"
     inkscape:window-width="1881"
     inkscape:window-height="1056"
     inkscape:window-x="39"
     inkscape:window-y="24"
     inkscape:window-maximized="1"
     fit-margin-top="0"
     fit-margin-left="0"
     fit-margin-right="0"
     fit-margin-bottom="0" />
  <metadata
     id="metadata7">
    <rdf:RDF>
      <cc:Work
         rdf:about="">
        <dc:format>image/svg+xml</dc:format>
        <dc:type
           rdf:resource="http://purl.org/dc/dcmitype/StillImage" />
        <dc:title></dc:title>
      </cc:Work>
    </rdf:RDF>
  </metadata>
  <g
     inkscape:groupmode="layer"
     id="layer3"
     inkscape:label="marca"
     style="display:inline"
     transform="translate(333.53477,139.08991)">
    <g
       id="g5288"
       transform="matrix(1.2049067,0,0,1.2049067,-1136.1745,-2041.7227)"
       style="fill:#542790;fill-opacity:1;stroke:none;stroke-width:6.63877058;stroke-miterlimit:4;stroke-dasharray:none;stroke-opacity:1">
      <path
         d="m 1097.4049,1878.9443 c 0,-6.5781 1.1515,-12.6112 3.454,-18.0915 2.3025,-5.4843 5.3344,-10.105 9.1032,-13.866 3.7687,-3.7573 8.3208,-7.1 13.6589,-10.0244 5.3386,-2.9244 10.8076,-5.2233 16.4065,-6.8927 5.5993,-1.6695 11.6674,-3.055 18.2104,-4.1525 6.5399,-1.0938 12.5577,-1.8268 18.0534,-2.1915 5.4957,-0.3644 11.1218,-0.5487 16.8788,-0.5487 l 6.7504,0 0,-3.9146 c 0,-10.0282 -2.8015,-17.3393 -8.4009,-21.9331 -5.5994,-4.5939 -12.9525,-6.8927 -22.0557,-6.8927 -11.5135,0 -22.8699,3.0817 -34.0687,9.2414 -2.8245,1.255 -5.3878,1.8805 -7.6908,1.8805 -4.5018,0 -7.9558,-2.4024 -10.362,-7.2036 l -3.1393,-6.1098 c -1.4662,-2.8207 -2.1993,-5.3805 -2.1993,-7.6756 0,-4.1793 2.4067,-7.6257 7.2232,-10.339 17.4774,-8.9805 35.3731,-13.4746 53.6909,-13.4746 21.2461,0 37.8867,5.7183 49.9223,17.155 12.0355,11.4367 18.0528,27.4404 18.0528,48.015 l 0,88.8185 c 0,8.9805 -4.4976,13.4708 -13.5013,13.4708 l -10.9877,0 c -8.7921,0 -13.1866,-4.4903 -13.1866,-13.4708 l 0,-6.4245 0.6258,-7.0462 -0.6258,0 c -0.4189,0.8328 -1.0478,1.9572 -1.8846,3.3657 -0.8363,1.4124 -2.8015,3.8915 -5.8869,7.4415 -3.0895,3.5501 -6.4362,6.6586 -10.0473,9.3221 -3.6116,2.6634 -8.4512,5.1158 -14.5224,7.3609 -6.0717,2.2451 -12.454,3.3696 -19.1546,3.3696 -15.2785,0 -28.1541,-4.5708 -38.6203,-13.7086 -10.4656,-9.1379 -15.6964,-20.966 -15.6964,-35.4806 z m 40.5002,-3.4464 c 0,5.8488 2.1993,10.8879 6.5975,15.1172 4.3944,4.2292 10.4656,6.3438 18.2104,6.3438 10.7804,0 19.7532,-4.5171 26.9225,-13.5513 7.1688,-9.0303 10.7531,-18.8743 10.7531,-29.5281 l 0,-5.9525 -6.7503,0 c -6.2786,0 -12.166,0.3148 -17.6617,0.9403 -5.4921,0.6256 -11.3564,1.8268 -17.5811,3.6037 -6.2288,1.7769 -11.1987,4.6208 -14.914,8.5353 -3.7148,3.9184 -5.5764,8.7464 -5.5764,14.4916"
         style="fill:#542790;fill-opacity:1;fill-rule:nonzero;stroke:none;stroke-width:6.63877058;stroke-miterlimit:4;stroke-dasharray:none;stroke-opacity:1"
         id="path14"
         inkscape:connector-curvature="0" />
      <path
         d="m 1263.0371,1837.9026 c 0,-11.2793 1.5966,-21.8026 4.7862,-31.566 3.1927,-9.7634 7.7982,-18.3525 13.816,-25.7671 6.0178,-7.4147 13.7626,-13.2366 23.2338,-17.4659 9.4718,-4.2293 20.1758,-6.3477 32.1077,-6.3477 7.1153,0 13.6547,0.8635 19.6227,2.5867 5.9639,1.7231 10.65,3.8109 14.0501,6.2671 3.4001,2.4524 6.3053,4.9086 8.712,7.3609 2.4098,2.4562 4.0295,4.5172 4.8663,6.1866 l 1.2588,2.6635 0.6252,0 c -0.2094,-1.1476 -0.3089,-2.556 -0.3089,-4.2293 l 0,-6.1098 c 0,-3.1317 1.1515,-5.7184 3.4503,-7.7524 2.3025,-2.0379 5.5497,-3.0549 9.7368,-3.0549 l 10.9877,0 c 8.7921,0 13.1866,4.4903 13.1866,13.4708 l 0,140.203 c 0,10.861 -1.6464,20.705 -4.9433,29.5281 -3.2963,8.8232 -7.6945,16.1342 -13.1865,21.9293 -5.4957,5.799 -11.9586,10.6807 -19.3887,14.649 -7.4337,3.9683 -15.0979,6.8121 -23.0003,8.5353 -7.9019,1.7232 -16.0378,2.5867 -24.4121,2.5867 -18.5251,0 -34.4865,-2.8746 -47.8847,-8.6159 -5.7564,-2.5061 -8.6308,-6.1098 -8.6308,-10.8112 0,-1.9841 0.5237,-4.1755 1.5694,-6.578 l 2.5099,-7.3609 c 1.7809,-3.9683 4.03,-6.5281 6.7509,-7.6756 1.1515,-0.5221 2.5135,-0.7829 4.0834,-0.7829 1.8804,0 3.9761,0.3644 6.2786,1.0937 11.0951,4.0758 22.1368,6.1098 33.124,6.1098 13.7128,0 24.831,-3.2122 33.3623,-9.6329 8.5276,-6.4245 12.7954,-16.4757 12.7954,-30.1537 l 0,-12.2196 0.7829,-8.3051 -0.7829,0 c -9.5257,16.2916 -24.4932,24.4393 -44.9025,24.4393 -11.6172,0 -22.1866,-2.1914 -31.7118,-6.5781 -9.5215,-4.3865 -17.3469,-10.3928 -23.4684,-18.0147 -6.1251,-7.6257 -10.8343,-16.4489 -14.1307,-26.4771 -3.2969,-10.0243 -4.9433,-20.728 -4.9433,-32.111 z m 41.1302,-1.5658 c 0,15.0365 3.6383,27.1794 10.9107,36.4209 7.273,9.2414 17.347,13.8622 30.2231,13.8622 5.127,0 9.8362,-0.8098 14.127,-2.4293 4.2903,-1.6158 8.2936,-4.1756 12.012,-7.6757 3.7153,-3.4963 6.6169,-8.4585 8.712,-14.8792 2.0914,-6.4245 3.1393,-14.0196 3.1393,-22.7928 0,-31.6428 -13.2903,-47.4661 -39.875,-47.4661 -12.4534,0 -22.1095,4.0489 -28.9636,12.139 -6.8582,8.094 -10.2855,19.0356 -10.2855,32.821"
         style="fill:#542790;fill-opacity:1;fill-rule:nonzero;stroke:none;stroke-width:6.63877058;stroke-miterlimit:4;stroke-dasharray:none;stroke-opacity:1"
         id="path16"
         inkscape:connector-curvature="0" />
      <path
         d="m 1457.0852,1910.7444 0,-136.5993 c 0,-8.9805 4.394,-13.4708 13.1866,-13.4708 l 14.1271,0 c 8.792,0 13.1902,4.4903 13.1902,13.4708 l 0,136.5993 c 0,8.9805 -4.3982,13.4708 -13.1902,13.4708 l -14.1271,0 c -8.7926,0 -13.1866,-4.4903 -13.1866,-13.4708 z m 0,-191.269 0,-9.5562 c 0,-8.9805 4.394,-13.4708 13.1866,-13.4708 l 14.1271,0 c 4.2944,0 7.6138,1.1744 9.9703,3.5232 2.3564,2.3487 3.5309,5.6646 3.5309,9.9476 l 0,9.5562 c 0,8.7732 -4.4976,13.1598 -13.5012,13.1598 l -14.1271,0 c -8.7926,0 -13.1866,-4.3866 -13.1866,-13.1598"
         style="fill:#542790;fill-opacity:1;fill-rule:nonzero;stroke:none;stroke-width:6.63877058;stroke-miterlimit:4;stroke-dasharray:none;stroke-opacity:1"
         id="path18"
         inkscape:connector-curvature="0" />
      <path
         d="m 1531.3467,1873.1491 0,-163.2299 c 0,-8.9805 4.3982,-13.4708 13.1866,-13.4708 l 14.1307,0 c 8.7926,0 13.1871,4.4903 13.1871,13.4708 l 0,160.0944 c 0,7.2075 1.1782,12.1698 3.5305,14.8831 2.3564,2.7172 5.469,4.283 9.3414,4.7013 6.5932,0.7292 9.8901,4.5939 9.8901,11.5902 l 0,10.8111 c 0,9.1878 -4.4981,13.7817 -13.4976,13.7817 -5.0239,0 -9.5791,-0.3105 -13.6589,-0.9365 -4.0834,-0.6293 -8.4779,-2.011 -13.1865,-4.1525 -4.7129,-2.1415 -8.635,-5.039 -11.7743,-8.6927 -3.1435,-3.6574 -5.7837,-8.8001 -7.9291,-15.4318 -2.1454,-6.6317 -3.22,-14.4379 -3.22,-23.4184"
         style="fill:#542790;fill-opacity:1;fill-rule:nonzero;stroke:none;stroke-width:6.63877058;stroke-miterlimit:4;stroke-dasharray:none;stroke-opacity:1"
         id="path20"
         inkscape:connector-curvature="0" />
      <path
         d="m 1614.8732,1910.7444 0,-136.5993 c 0,-8.9805 4.3939,-13.4708 13.1865,-13.4708 l 14.1307,0 c 8.7927,0 13.1866,4.4903 13.1866,13.4708 l 0,136.5993 c 0,8.9805 -4.3939,13.4708 -13.1866,13.4708 l -14.1307,0 c -8.7926,0 -13.1865,-4.4903 -13.1865,-13.4708 z m 0,-191.269 0,-9.5562 c 0,-8.9805 4.3939,-13.4708 13.1865,-13.4708 l 14.1307,0 c 4.2908,0 7.6145,1.1744 9.9672,3.5232 2.3559,2.3487 3.5341,5.6646 3.5341,9.9476 l 0,9.5562 c 0,8.7732 -4.5013,13.1598 -13.5013,13.1598 l -14.1307,0 c -8.7926,0 -13.1865,-4.3866 -13.1865,-13.1598"
         style="fill:#542790;fill-opacity:1;fill-rule:nonzero;stroke:none;stroke-width:6.63877058;stroke-miterlimit:4;stroke-dasharray:none;stroke-opacity:1"
         id="path22"
         inkscape:connector-curvature="0" />
      <path
         d="m 1678.1469,1913.2504 0,-3.1315 c 0,-3.2392 0.4189,-5.8758 1.2552,-7.9137 0.8363,-2.034 2.3564,-4.4096 4.5552,-7.1268 l 67.818,-84.7466 c 2.303,-2.7134 4.6055,-5.3269 6.9085,-7.833 2.3025,-2.5061 4.0295,-4.3329 5.181,-5.4804 l 1.727,-1.7232 0,-0.6294 c -2.9324,0.4184 -7.9558,0.6294 -15.0712,0.6294 l -55.5755,0 c -8.9995,0 -13.5013,-4.4941 -13.5013,-13.4745 l 0,-7.6756 c 0,-8.9805 4.5018,-13.4708 13.5013,-13.4708 l 112.5634,0 c 8.9994,0 13.5013,3.6037 13.5013,10.8073 l 0,3.289 c 0,3.2391 -0.419,5.8757 -1.2552,7.9135 -0.8363,2.0341 -2.3565,4.4097 -4.5553,7.1269 l -67.8179,85.0613 c -2.1994,2.7134 -4.4752,5.327 -6.8316,7.833 -2.3522,2.5061 -4.1599,4.3329 -5.4151,5.4804 l -1.8846,1.7232 0,0.6294 c 3.1398,-0.6294 8.2706,-0.9403 15.3859,-0.9403 l 61.0713,0 c 9,0 13.5013,4.4903 13.5013,13.4707 l 0,7.6757 c 0,8.9805 -4.5013,13.4708 -13.5013,13.4708 l -118.0591,0 c -4.2903,0 -7.6139,-0.9404 -9.9703,-2.817 -2.3528,-1.8805 -3.531,-4.5977 -3.531,-8.1478"
         style="fill:#542790;fill-opacity:1;fill-rule:nonzero;stroke:none;stroke-width:6.63877058;stroke-miterlimit:4;stroke-dasharray:none;stroke-opacity:1"
         id="path24"
         inkscape:connector-curvature="0" />
      <path
         d="m 1834.2042,1842.4466 c 0,-25.2759 7.7175,-45.8734 23.1532,-61.8003 15.4398,-15.927 35.4579,-23.8904 60.0506,-23.8904 22.7123,0 40.5044,7.2343 53.3763,21.699 12.876,14.4609 19.3117,33.2355 19.3117,56.3161 0,3.6536 -1.3851,6.8658 -4.1599,9.6329 -2.7748,2.7671 -6.0984,4.1487 -9.9708,4.1487 l -100.0021,0 c 1.2552,14.2037 6.5168,25.2221 15.7776,33.0551 9.2602,7.8329 20.3826,11.7475 33.3618,11.7475 12.4539,0 24.2282,-3.4962 35.3233,-10.4964 2.9283,-1.4583 5.5994,-2.1914 8.0056,-2.1914 4.1871,0 7.5338,2.1914 10.0478,6.578 l 3.9258,6.4245 c 1.462,2.8208 2.1952,5.4305 2.1952,7.833 0,4.072 -2.2491,7.4646 -6.7504,10.1818 -17.3742,10.9646 -35.8994,16.4488 -55.5756,16.4488 -17.581,0 -33.1512,-3.9183 -46.7023,-11.7514 -13.5552,-7.8291 -23.8365,-18.2219 -30.8524,-31.1707 -7.0117,-12.9488 -10.5154,-27.2063 -10.5154,-42.7648 z m 42.6995,-18.6441 72.6884,0 c -0.3142,-11.1719 -3.5309,-19.9988 -9.6561,-26.4732 -6.1215,-6.4745 -13.9469,-9.7097 -23.4684,-9.7097 -10.362,0 -19.051,3.2622 -26.0626,9.7902 -7.0117,6.5244 -11.5135,15.3244 -13.5013,26.3927"
         style="fill:#542790;fill-opacity:1;fill-rule:nonzero;stroke:none;stroke-width:6.63877058;stroke-miterlimit:4;stroke-dasharray:none;stroke-opacity:1"
         id="path26"
         inkscape:connector-curvature="0" />
      <path
         d="m 901.17689,1928.9893 c -0.1781,0 -0.3509,0 -0.5258,0 -81.4412,0 -147.5642,-66.1217 -147.5642,-147.5639 0,-81.4423 66.123,-147.5641 147.5642,-147.5641 81.4428,0 147.56471,66.1218 147.56471,147.5641 l 0,124.8172 c 0,12.5574 -10.1934,22.7467 -22.7468,22.7467 -11.2067,0 -20.302,-9.0956 -20.302,-20.2981 l 0,-127.2658 0,0 c 0,-57.621 -46.80591,-104.4001 -104.45781,-104.4001 -57.6507,0 -104.4572,46.7829 -104.4572,104.4001 0,57.6209 46.8065,104.4001 104.4572,104.4001 0.1571,0 0.508,0 0.5609,0 9.9347,0.047 17.991,8.1361 17.991,18.0838 l 0,7.0001 c 0,9.9783 -8.1056,18.0799 -18.0842,18.0799 l 0,0 z m 82.598,-147.5639 0,0 0,124.7174 c 0,12.6111 -10.2395,22.8465 -22.8506,22.8465 -11.2522,0 -20.3904,-9.1339 -20.3904,-20.3902 l 0,-127.1737 c 0,-21.96 -17.3925,-39.7944 -39.357,-39.7944 -21.9635,0 -39.7933,17.8305 -39.7933,39.7944 0,21.96 17.8298,39.7904 39.7933,39.7904 0.058,0 0.1099,0 0.1675,0 9.9017,0.092 17.9146,8.1669 17.9146,18.0915 l 0,7.0423 c 0,9.9822 -8.1056,18.0838 -18.0842,18.0838 0,0 -0.309,0 -0.4661,0 -45.8419,0 -83.0656,-37.1653 -83.0656,-82.939 0,-45.7736 37.2237,-82.939 83.0656,-82.939 45.82,0 83.0274,37.127 83.0662,82.87"
         style="fill:#542790;fill-opacity:1;fill-rule:evenodd;stroke:none;stroke-width:6.63877058;stroke-miterlimit:4;stroke-dasharray:none;stroke-opacity:1"
         id="path28"
         inkscape:connector-curvature="0" />
    </g>
  </g>
</svg>
